  0
SECTION
  2
HEADER
  9
$ANGBASE
  50
0.0
  9
$ANGDIR
  70
1
  9
$MEASUREMENT
  70
0
  0
ENDSEC
  0
SECTION
  2
TABLES
  0
TABLE
  2
LTYPE
  70
4
  0
LTYPE
  5
40F
  2
CONTINUOUS
  70
0
  3
Solid line
  72
65
  73
0
  40
0.0
  0
LTYPE
  5
410
  2
DASHDOT
 70
0
  3
Dash Dot ____ _ ____ _
 72
65
 73
4
 40
2.0
 49
1.25
 49
-0.25
 49
0.25
 49
-0.25
  0
LTYPE
  5
411
  2
DASHED
 70
0
  3
Dashed __ __ __ __ __
 72
65
 73
2
 40
0.75
 49
0.5
 49
-0.25
  0
LTYPE
  5
43B
  2
DOTTED
 70
0
  3
Dotted .  .  .  .
 72
65
 73
2
 40
0.2
 49
0.0
 49
-0.2
  0
ENDTAB
  0
TABLE
  2
STYLE
  70
4
  0
STYLE
  2
KICAD
  70
0
  40
0
  41
1
  42
1
  50
0
  71
0
  3
isocp.shx
  0
STYLE
  2
KICADB
  70
0
  40
0
  41
1
  42
1
  50
0
  71
0
  3
isocp.shx
  0
STYLE
  2
KICADI
  70
0
  40
0
  41
1
  42
1
  50
15
  71
0
  3
isocp.shx
  0
STYLE
  2
KICADBI
  70
0
  40
0
  41
1
  42
1
  50
15
  71
0
  3
isocp.shx
  0
ENDTAB
  0
TABLE
  2
LAYER
  70
1
  0
LAYER
  2
BLACK
  70
0
  62
7
  6
CONTINUOUS
  0
ENDTAB
  0
ENDSEC
  0
SECTION
  2
ENTITIES
0
LINE
8
BLACK
6
CONTINUOUS
10
1.1957
20
-4.46282
11
1.19607
21
-4.46293
0
LINE
8
BLACK
6
CONTINUOUS
10
1.19607
20
-4.46293
11
1.19641
21
-4.46311
0
LINE
8
BLACK
6
CONTINUOUS
10
1.19641
20
-4.46311
11
1.19671
21
-4.46336
0
LINE
8
BLACK
6
CONTINUOUS
10
1.19671
20
-4.46336
11
1.19696
21
-4.46366
0
LINE
8
BLACK
6
CONTINUOUS
10
1.19696
20
-4.46366
11
1.19714
21
-4.464
0
LINE
8
BLACK
6
CONTINUOUS
10
1.19714
20
-4.464
11
1.19725
21
-4.46437
0
LINE
8
BLACK
6
CONTINUOUS
10
1.19725
20
-4.46437
11
1.19728
21
-4.46466
0
LINE
8
BLACK
6
CONTINUOUS
10
1.19728
20
-4.46466
11
1.19728
21
-4.48847
0
LINE
8
BLACK
6
CONTINUOUS
10
1.19728
20
-4.48847
11
1.19725
21
-4.48876
0
LINE
8
BLACK
6
CONTINUOUS
10
1.19725
20
-4.48876
11
1.19714
21
-4.48913
0
LINE
8
BLACK
6
CONTINUOUS
10
1.19714
20
-4.48913
11
1.19696
21
-4.48948
0
LINE
8
BLACK
6
CONTINUOUS
10
1.19696
20
-4.48948
11
1.19671
21
-4.48978
0
LINE
8
BLACK
6
CONTINUOUS
10
1.19671
20
-4.48978
11
1.19641
21
-4.49002
0
LINE
8
BLACK
6
CONTINUOUS
10
1.19641
20
-4.49002
11
1.19607
21
-4.4902
0
LINE
8
BLACK
6
CONTINUOUS
10
1.19607
20
-4.4902
11
1.1957
21
-4.49032
0
LINE
8
BLACK
6
CONTINUOUS
10
1.1957
20
-4.49032
11
1.19531
21
-4.49036
0
LINE
8
BLACK
6
CONTINUOUS
10
1.19531
20
-4.49036
11
1.19493
21
-4.49032
0
LINE
8
BLACK
6
CONTINUOUS
10
1.19493
20
-4.49032
11
1.19456
21
-4.4902
0
LINE
8
BLACK
6
CONTINUOUS
10
1.19456
20
-4.4902
11
1.19421
21
-4.49002
0
LINE
8
BLACK
6
CONTINUOUS
10
1.19421
20
-4.49002
11
1.19391
21
-4.48978
0
LINE
8
BLACK
6
CONTINUOUS
10
1.19391
20
-4.48978
11
1.19367
21
-4.48948
0
LINE
8
BLACK
6
CONTINUOUS
10
1.19367
20
-4.48948
11
1.19349
21
-4.48913
0
LINE
8
BLACK
6
CONTINUOUS
10
1.19349
20
-4.48913
11
1.19337
21
-4.48876
0
LINE
8
BLACK
6
CONTINUOUS
10
1.19337
20
-4.48876
11
1.19334
21
-4.48847
0
LINE
8
BLACK
6
CONTINUOUS
10
1.19334
20
-4.48847
11
1.19335
21
-4.46466
0
LINE
8
BLACK
6
CONTINUOUS
10
1.19335
20
-4.46466
11
1.19337
21
-4.46437
0
LINE
8
BLACK
6
CONTINUOUS
10
1.19337
20
-4.46437
11
1.19349
21
-4.464
0
LINE
8
BLACK
6
CONTINUOUS
10
1.19349
20
-4.464
11
1.19367
21
-4.46366
0
LINE
8
BLACK
6
CONTINUOUS
10
1.19367
20
-4.46366
11
1.19391
21
-4.46336
0
LINE
8
BLACK
6
CONTINUOUS
10
1.19391
20
-4.46336
11
1.19421
21
-4.46311
0
LINE
8
BLACK
6
CONTINUOUS
10
1.19421
20
-4.46311
11
1.19456
21
-4.46293
0
LINE
8
BLACK
6
CONTINUOUS
10
1.19456
20
-4.46293
11
1.19493
21
-4.46282
0
LINE
8
BLACK
6
CONTINUOUS
10
1.19493
20
-4.46282
11
1.19531
21
-4.46278
0
LINE
8
BLACK
6
CONTINUOUS
10
1.19531
20
-4.46278
11
1.1957
21
-4.46282
0
LINE
8
BLACK
6
CONTINUOUS
10
12.3051
20
-4.43469
11
12.3055
21
-4.4348
0
LINE
8
BLACK
6
CONTINUOUS
10
12.3055
20
-4.4348
11
12.3058
21
-4.43499
0
LINE
8
BLACK
6
CONTINUOUS
10
12.3058
20
-4.43499
11
12.3061
21
-4.43523
0
LINE
8
BLACK
6
CONTINUOUS
10
12.3061
20
-4.43523
11
12.3063
21
-4.43553
0
LINE
8
BLACK
6
CONTINUOUS
10
12.3063
20
-4.43553
11
12.3065
21
-4.43587
0
LINE
8
BLACK
6
CONTINUOUS
10
12.3065
20
-4.43587
11
12.3066
21
-4.43624
0
LINE
8
BLACK
6
CONTINUOUS
10
12.3066
20
-4.43624
11
12.3067
21
-4.43653
0
LINE
8
BLACK
6
CONTINUOUS
10
12.3067
20
-4.43653
11
12.3067
21
-4.46035
0
LINE
8
BLACK
6
CONTINUOUS
10
12.3067
20
-4.46035
11
12.3066
21
-4.46064
0
LINE
8
BLACK
6
CONTINUOUS
10
12.3066
20
-4.46064
11
12.3065
21
-4.46101
0
LINE
8
BLACK
6
CONTINUOUS
10
12.3065
20
-4.46101
11
12.3063
21
-4.46135
0
LINE
8
BLACK
6
CONTINUOUS
10
12.3063
20
-4.46135
11
12.3061
21
-4.46165
0
LINE
8
BLACK
6
CONTINUOUS
10
12.3061
20
-4.46165
11
12.3058
21
-4.4619
0
LINE
8
BLACK
6
CONTINUOUS
10
12.3058
20
-4.4619
11
12.3055
21
-4.46208
0
LINE
8
BLACK
6
CONTINUOUS
10
12.3055
20
-4.46208
11
12.3051
21
-4.46219
0
LINE
8
BLACK
6
CONTINUOUS
10
12.3051
20
-4.46219
11
12.3047
21
-4.46223
0
LINE
8
BLACK
6
CONTINUOUS
10
12.3047
20
-4.46223
11
12.3043
21
-4.46219
0
LINE
8
BLACK
6
CONTINUOUS
10
12.3043
20
-4.46219
11
12.3039
21
-4.46208
0
LINE
8
BLACK
6
CONTINUOUS
10
12.3039
20
-4.46208
11
12.3036
21
-4.4619
0
LINE
8
BLACK
6
CONTINUOUS
10
12.3036
20
-4.4619
11
12.3033
21
-4.46165
0
LINE
8
BLACK
6
CONTINUOUS
10
12.3033
20
-4.46165
11
12.3031
21
-4.46135
0
LINE
8
BLACK
6
CONTINUOUS
10
12.3031
20
-4.46135
11
12.3029
21
-4.46101
0
LINE
8
BLACK
6
CONTINUOUS
10
12.3029
20
-4.46101
11
12.3028
21
-4.46064
0
LINE
8
BLACK
6
CONTINUOUS
10
12.3028
20
-4.46064
11
12.3027
21
-4.46035
0
LINE
8
BLACK
6
CONTINUOUS
10
12.3027
20
-4.46035
11
12.3027
21
-4.43653
0
LINE
8
BLACK
6
CONTINUOUS
10
12.3027
20
-4.43653
11
12.3028
21
-4.43624
0
LINE
8
BLACK
6
CONTINUOUS
10
12.3028
20
-4.43624
11
12.3029
21
-4.43587
0
LINE
8
BLACK
6
CONTINUOUS
10
12.3029
20
-4.43587
11
12.3031
21
-4.43553
0
LINE
8
BLACK
6
CONTINUOUS
10
12.3031
20
-4.43553
11
12.3033
21
-4.43523
0
LINE
8
BLACK
6
CONTINUOUS
10
12.3033
20
-4.43523
11
12.3036
21
-4.43499
0
LINE
8
BLACK
6
CONTINUOUS
10
12.3036
20
-4.43499
11
12.3039
21
-4.4348
0
LINE
8
BLACK
6
CONTINUOUS
10
12.3039
20
-4.4348
11
12.3043
21
-4.43469
0
LINE
8
BLACK
6
CONTINUOUS
10
12.3043
20
-4.43469
11
12.3047
21
-4.43465
0
LINE
8
BLACK
6
CONTINUOUS
10
12.3047
20
-4.43465
11
12.3051
21
-4.43469
0
LINE
8
BLACK
6
CONTINUOUS
10
1.1957
20
-4.36282
11
1.19607
21
-4.36293
0
LINE
8
BLACK
6
CONTINUOUS
10
1.19607
20
-4.36293
11
1.19641
21
-4.36311
0
LINE
8
BLACK
6
CONTINUOUS
10
1.19641
20
-4.36311
11
1.19671
21
-4.36336
0
LINE
8
BLACK
6
CONTINUOUS
10
1.19671
20
-4.36336
11
1.19696
21
-4.36366
0
LINE
8
BLACK
6
CONTINUOUS
10
1.19696
20
-4.36366
11
1.19714
21
-4.364
0
LINE
8
BLACK
6
CONTINUOUS
10
1.19714
20
-4.364
11
1.19725
21
-4.36437
0
LINE
8
BLACK
6
CONTINUOUS
10
1.19725
20
-4.36437
11
1.19728
21
-4.36466
0
LINE
8
BLACK
6
CONTINUOUS
10
1.19728
20
-4.36466
11
1.19728
21
-4.38847
0
LINE
8
BLACK
6
CONTINUOUS
10
1.19728
20
-4.38847
11
1.19725
21
-4.38876
0
LINE
8
BLACK
6
CONTINUOUS
10
1.19725
20
-4.38876
11
1.19714
21
-4.38913
0
LINE
8
BLACK
6
CONTINUOUS
10
1.19714
20
-4.38913
11
1.19696
21
-4.38948
0
LINE
8
BLACK
6
CONTINUOUS
10
1.19696
20
-4.38948
11
1.19671
21
-4.38978
0
LINE
8
BLACK
6
CONTINUOUS
10
1.19671
20
-4.38978
11
1.19641
21
-4.39002
0
LINE
8
BLACK
6
CONTINUOUS
10
1.19641
20
-4.39002
11
1.19607
21
-4.3902
0
LINE
8
BLACK
6
CONTINUOUS
10
1.19607
20
-4.3902
11
1.1957
21
-4.39032
0
LINE
8
BLACK
6
CONTINUOUS
10
1.1957
20
-4.39032
11
1.19531
21
-4.39036
0
LINE
8
BLACK
6
CONTINUOUS
10
1.19531
20
-4.39036
11
1.19493
21
-4.39032
0
LINE
8
BLACK
6
CONTINUOUS
10
1.19493
20
-4.39032
11
1.19456
21
-4.3902
0
LINE
8
BLACK
6
CONTINUOUS
10
1.19456
20
-4.3902
11
1.19421
21
-4.39002
0
LINE
8
BLACK
6
CONTINUOUS
10
1.19421
20
-4.39002
11
1.19391
21
-4.38978
0
LINE
8
BLACK
6
CONTINUOUS
10
1.19391
20
-4.38978
11
1.19367
21
-4.38948
0
LINE
8
BLACK
6
CONTINUOUS
10
1.19367
20
-4.38948
11
1.19349
21
-4.38913
0
LINE
8
BLACK
6
CONTINUOUS
10
1.19349
20
-4.38913
11
1.19337
21
-4.38876
0
LINE
8
BLACK
6
CONTINUOUS
10
1.19337
20
-4.38876
11
1.19334
21
-4.38847
0
LINE
8
BLACK
6
CONTINUOUS
10
1.19334
20
-4.38847
11
1.19335
21
-4.36466
0
LINE
8
BLACK
6
CONTINUOUS
10
1.19335
20
-4.36466
11
1.19337
21
-4.36437
0
LINE
8
BLACK
6
CONTINUOUS
10
1.19337
20
-4.36437
11
1.19349
21
-4.364
0
LINE
8
BLACK
6
CONTINUOUS
10
1.19349
20
-4.364
11
1.19367
21
-4.36366
0
LINE
8
BLACK
6
CONTINUOUS
10
1.19367
20
-4.36366
11
1.19391
21
-4.36336
0
LINE
8
BLACK
6
CONTINUOUS
10
1.19391
20
-4.36336
11
1.19421
21
-4.36311
0
LINE
8
BLACK
6
CONTINUOUS
10
1.19421
20
-4.36311
11
1.19456
21
-4.36293
0
LINE
8
BLACK
6
CONTINUOUS
10
1.19456
20
-4.36293
11
1.19493
21
-4.36282
0
LINE
8
BLACK
6
CONTINUOUS
10
1.19493
20
-4.36282
11
1.19531
21
-4.36278
0
LINE
8
BLACK
6
CONTINUOUS
10
1.19531
20
-4.36278
11
1.1957
21
-4.36282
0
LINE
8
BLACK
6
CONTINUOUS
10
12.3051
20
-4.33469
11
12.3055
21
-4.3348
0
LINE
8
BLACK
6
CONTINUOUS
10
12.3055
20
-4.3348
11
12.3058
21
-4.33499
0
LINE
8
BLACK
6
CONTINUOUS
10
12.3058
20
-4.33499
11
12.3061
21
-4.33523
0
LINE
8
BLACK
6
CONTINUOUS
10
12.3061
20
-4.33523
11
12.3063
21
-4.33553
0
LINE
8
BLACK
6
CONTINUOUS
10
12.3063
20
-4.33553
11
12.3065
21
-4.33587
0
LINE
8
BLACK
6
CONTINUOUS
10
12.3065
20
-4.33587
11
12.3066
21
-4.33624
0
LINE
8
BLACK
6
CONTINUOUS
10
12.3066
20
-4.33624
11
12.3067
21
-4.33653
0
LINE
8
BLACK
6
CONTINUOUS
10
12.3067
20
-4.33653
11
12.3067
21
-4.36035
0
LINE
8
BLACK
6
CONTINUOUS
10
12.3067
20
-4.36035
11
12.3066
21
-4.36064
0
LINE
8
BLACK
6
CONTINUOUS
10
12.3066
20
-4.36064
11
12.3065
21
-4.36101
0
LINE
8
BLACK
6
CONTINUOUS
10
12.3065
20
-4.36101
11
12.3063
21
-4.36135
0
LINE
8
BLACK
6
CONTINUOUS
10
12.3063
20
-4.36135
11
12.3061
21
-4.36165
0
LINE
8
BLACK
6
CONTINUOUS
10
12.3061
20
-4.36165
11
12.3058
21
-4.3619
0
LINE
8
BLACK
6
CONTINUOUS
10
12.3058
20
-4.3619
11
12.3055
21
-4.36208
0
LINE
8
BLACK
6
CONTINUOUS
10
12.3055
20
-4.36208
11
12.3051
21
-4.36219
0
LINE
8
BLACK
6
CONTINUOUS
10
12.3051
20
-4.36219
11
12.3047
21
-4.36223
0
LINE
8
BLACK
6
CONTINUOUS
10
12.3047
20
-4.36223
11
12.3043
21
-4.36219
0
LINE
8
BLACK
6
CONTINUOUS
10
12.3043
20
-4.36219
11
12.3039
21
-4.36208
0
LINE
8
BLACK
6
CONTINUOUS
10
12.3039
20
-4.36208
11
12.3036
21
-4.3619
0
LINE
8
BLACK
6
CONTINUOUS
10
12.3036
20
-4.3619
11
12.3033
21
-4.36165
0
LINE
8
BLACK
6
CONTINUOUS
10
12.3033
20
-4.36165
11
12.3031
21
-4.36135
0
LINE
8
BLACK
6
CONTINUOUS
10
12.3031
20
-4.36135
11
12.3029
21
-4.36101
0
LINE
8
BLACK
6
CONTINUOUS
10
12.3029
20
-4.36101
11
12.3028
21
-4.36064
0
LINE
8
BLACK
6
CONTINUOUS
10
12.3028
20
-4.36064
11
12.3027
21
-4.36035
0
LINE
8
BLACK
6
CONTINUOUS
10
12.3027
20
-4.36035
11
12.3027
21
-4.33653
0
LINE
8
BLACK
6
CONTINUOUS
10
12.3027
20
-4.33653
11
12.3028
21
-4.33624
0
LINE
8
BLACK
6
CONTINUOUS
10
12.3028
20
-4.33624
11
12.3029
21
-4.33587
0
LINE
8
BLACK
6
CONTINUOUS
10
12.3029
20
-4.33587
11
12.3031
21
-4.33553
0
LINE
8
BLACK
6
CONTINUOUS
10
12.3031
20
-4.33553
11
12.3033
21
-4.33523
0
LINE
8
BLACK
6
CONTINUOUS
10
12.3033
20
-4.33523
11
12.3036
21
-4.33499
0
LINE
8
BLACK
6
CONTINUOUS
10
12.3036
20
-4.33499
11
12.3039
21
-4.3348
0
LINE
8
BLACK
6
CONTINUOUS
10
12.3039
20
-4.3348
11
12.3043
21
-4.33469
0
LINE
8
BLACK
6
CONTINUOUS
10
12.3043
20
-4.33469
11
12.3047
21
-4.33465
0
LINE
8
BLACK
6
CONTINUOUS
10
12.3047
20
-4.33465
11
12.3051
21
-4.33469
0
LINE
8
BLACK
6
CONTINUOUS
10
1.1957
20
-4.26282
11
1.19607
21
-4.26293
0
LINE
8
BLACK
6
CONTINUOUS
10
1.19607
20
-4.26293
11
1.19641
21
-4.26311
0
LINE
8
BLACK
6
CONTINUOUS
10
1.19641
20
-4.26311
11
1.19671
21
-4.26336
0
LINE
8
BLACK
6
CONTINUOUS
10
1.19671
20
-4.26336
11
1.19696
21
-4.26366
0
LINE
8
BLACK
6
CONTINUOUS
10
1.19696
20
-4.26366
11
1.19714
21
-4.264
0
LINE
8
BLACK
6
CONTINUOUS
10
1.19714
20
-4.264
11
1.19725
21
-4.26437
0
LINE
8
BLACK
6
CONTINUOUS
10
1.19725
20
-4.26437
11
1.19728
21
-4.26466
0
LINE
8
BLACK
6
CONTINUOUS
10
1.19728
20
-4.26466
11
1.19728
21
-4.28847
0
LINE
8
BLACK
6
CONTINUOUS
10
1.19728
20
-4.28847
11
1.19725
21
-4.28876
0
LINE
8
BLACK
6
CONTINUOUS
10
1.19725
20
-4.28876
11
1.19714
21
-4.28913
0
LINE
8
BLACK
6
CONTINUOUS
10
1.19714
20
-4.28913
11
1.19696
21
-4.28948
0
LINE
8
BLACK
6
CONTINUOUS
10
1.19696
20
-4.28948
11
1.19671
21
-4.28978
0
LINE
8
BLACK
6
CONTINUOUS
10
1.19671
20
-4.28978
11
1.19641
21
-4.29002
0
LINE
8
BLACK
6
CONTINUOUS
10
1.19641
20
-4.29002
11
1.19607
21
-4.2902
0
LINE
8
BLACK
6
CONTINUOUS
10
1.19607
20
-4.2902
11
1.1957
21
-4.29032
0
LINE
8
BLACK
6
CONTINUOUS
10
1.1957
20
-4.29032
11
1.19531
21
-4.29036
0
LINE
8
BLACK
6
CONTINUOUS
10
1.19531
20
-4.29036
11
1.19493
21
-4.29032
0
LINE
8
BLACK
6
CONTINUOUS
10
1.19493
20
-4.29032
11
1.19456
21
-4.2902
0
LINE
8
BLACK
6
CONTINUOUS
10
1.19456
20
-4.2902
11
1.19421
21
-4.29002
0
LINE
8
BLACK
6
CONTINUOUS
10
1.19421
20
-4.29002
11
1.19391
21
-4.28978
0
LINE
8
BLACK
6
CONTINUOUS
10
1.19391
20
-4.28978
11
1.19367
21
-4.28948
0
LINE
8
BLACK
6
CONTINUOUS
10
1.19367
20
-4.28948
11
1.19349
21
-4.28913
0
LINE
8
BLACK
6
CONTINUOUS
10
1.19349
20
-4.28913
11
1.19337
21
-4.28876
0
LINE
8
BLACK
6
CONTINUOUS
10
1.19337
20
-4.28876
11
1.19334
21
-4.28847
0
LINE
8
BLACK
6
CONTINUOUS
10
1.19334
20
-4.28847
11
1.19335
21
-4.26466
0
LINE
8
BLACK
6
CONTINUOUS
10
1.19335
20
-4.26466
11
1.19337
21
-4.26437
0
LINE
8
BLACK
6
CONTINUOUS
10
1.19337
20
-4.26437
11
1.19349
21
-4.264
0
LINE
8
BLACK
6
CONTINUOUS
10
1.19349
20
-4.264
11
1.19367
21
-4.26366
0
LINE
8
BLACK
6
CONTINUOUS
10
1.19367
20
-4.26366
11
1.19391
21
-4.26336
0
LINE
8
BLACK
6
CONTINUOUS
10
1.19391
20
-4.26336
11
1.19421
21
-4.26311
0
LINE
8
BLACK
6
CONTINUOUS
10
1.19421
20
-4.26311
11
1.19456
21
-4.26293
0
LINE
8
BLACK
6
CONTINUOUS
10
1.19456
20
-4.26293
11
1.19493
21
-4.26282
0
LINE
8
BLACK
6
CONTINUOUS
10
1.19493
20
-4.26282
11
1.19531
21
-4.26278
0
LINE
8
BLACK
6
CONTINUOUS
10
1.19531
20
-4.26278
11
1.1957
21
-4.26282
0
LINE
8
BLACK
6
CONTINUOUS
10
12.3051
20
-4.23469
11
12.3055
21
-4.2348
0
LINE
8
BLACK
6
CONTINUOUS
10
12.3055
20
-4.2348
11
12.3058
21
-4.23499
0
LINE
8
BLACK
6
CONTINUOUS
10
12.3058
20
-4.23499
11
12.3061
21
-4.23523
0
LINE
8
BLACK
6
CONTINUOUS
10
12.3061
20
-4.23523
11
12.3063
21
-4.23553
0
LINE
8
BLACK
6
CONTINUOUS
10
12.3063
20
-4.23553
11
12.3065
21
-4.23587
0
LINE
8
BLACK
6
CONTINUOUS
10
12.3065
20
-4.23587
11
12.3066
21
-4.23624
0
LINE
8
BLACK
6
CONTINUOUS
10
12.3066
20
-4.23624
11
12.3067
21
-4.23653
0
LINE
8
BLACK
6
CONTINUOUS
10
12.3067
20
-4.23653
11
12.3067
21
-4.26035
0
LINE
8
BLACK
6
CONTINUOUS
10
12.3067
20
-4.26035
11
12.3066
21
-4.26064
0
LINE
8
BLACK
6
CONTINUOUS
10
12.3066
20
-4.26064
11
12.3065
21
-4.26101
0
LINE
8
BLACK
6
CONTINUOUS
10
12.3065
20
-4.26101
11
12.3063
21
-4.26135
0
LINE
8
BLACK
6
CONTINUOUS
10
12.3063
20
-4.26135
11
12.3061
21
-4.26165
0
LINE
8
BLACK
6
CONTINUOUS
10
12.3061
20
-4.26165
11
12.3058
21
-4.2619
0
LINE
8
BLACK
6
CONTINUOUS
10
12.3058
20
-4.2619
11
12.3055
21
-4.26208
0
LINE
8
BLACK
6
CONTINUOUS
10
12.3055
20
-4.26208
11
12.3051
21
-4.26219
0
LINE
8
BLACK
6
CONTINUOUS
10
12.3051
20
-4.26219
11
12.3047
21
-4.26223
0
LINE
8
BLACK
6
CONTINUOUS
10
12.3047
20
-4.26223
11
12.3043
21
-4.26219
0
LINE
8
BLACK
6
CONTINUOUS
10
12.3043
20
-4.26219
11
12.3039
21
-4.26208
0
LINE
8
BLACK
6
CONTINUOUS
10
12.3039
20
-4.26208
11
12.3036
21
-4.2619
0
LINE
8
BLACK
6
CONTINUOUS
10
12.3036
20
-4.2619
11
12.3033
21
-4.26165
0
LINE
8
BLACK
6
CONTINUOUS
10
12.3033
20
-4.26165
11
12.3031
21
-4.26135
0
LINE
8
BLACK
6
CONTINUOUS
10
12.3031
20
-4.26135
11
12.3029
21
-4.26101
0
LINE
8
BLACK
6
CONTINUOUS
10
12.3029
20
-4.26101
11
12.3028
21
-4.26064
0
LINE
8
BLACK
6
CONTINUOUS
10
12.3028
20
-4.26064
11
12.3027
21
-4.26035
0
LINE
8
BLACK
6
CONTINUOUS
10
12.3027
20
-4.26035
11
12.3027
21
-4.23653
0
LINE
8
BLACK
6
CONTINUOUS
10
12.3027
20
-4.23653
11
12.3028
21
-4.23624
0
LINE
8
BLACK
6
CONTINUOUS
10
12.3028
20
-4.23624
11
12.3029
21
-4.23587
0
LINE
8
BLACK
6
CONTINUOUS
10
12.3029
20
-4.23587
11
12.3031
21
-4.23553
0
LINE
8
BLACK
6
CONTINUOUS
10
12.3031
20
-4.23553
11
12.3033
21
-4.23523
0
LINE
8
BLACK
6
CONTINUOUS
10
12.3033
20
-4.23523
11
12.3036
21
-4.23499
0
LINE
8
BLACK
6
CONTINUOUS
10
12.3036
20
-4.23499
11
12.3039
21
-4.2348
0
LINE
8
BLACK
6
CONTINUOUS
10
12.3039
20
-4.2348
11
12.3043
21
-4.23469
0
LINE
8
BLACK
6
CONTINUOUS
10
12.3043
20
-4.23469
11
12.3047
21
-4.23465
0
LINE
8
BLACK
6
CONTINUOUS
10
12.3047
20
-4.23465
11
12.3051
21
-4.23469
0
LINE
8
BLACK
6
CONTINUOUS
10
1.1957
20
-4.16282
11
1.19607
21
-4.16293
0
LINE
8
BLACK
6
CONTINUOUS
10
1.19607
20
-4.16293
11
1.19641
21
-4.16311
0
LINE
8
BLACK
6
CONTINUOUS
10
1.19641
20
-4.16311
11
1.19671
21
-4.16336
0
LINE
8
BLACK
6
CONTINUOUS
10
1.19671
20
-4.16336
11
1.19696
21
-4.16366
0
LINE
8
BLACK
6
CONTINUOUS
10
1.19696
20
-4.16366
11
1.19714
21
-4.164
0
LINE
8
BLACK
6
CONTINUOUS
10
1.19714
20
-4.164
11
1.19725
21
-4.16437
0
LINE
8
BLACK
6
CONTINUOUS
10
1.19725
20
-4.16437
11
1.19728
21
-4.16466
0
LINE
8
BLACK
6
CONTINUOUS
10
1.19728
20
-4.16466
11
1.19728
21
-4.18847
0
LINE
8
BLACK
6
CONTINUOUS
10
1.19728
20
-4.18847
11
1.19725
21
-4.18876
0
LINE
8
BLACK
6
CONTINUOUS
10
1.19725
20
-4.18876
11
1.19714
21
-4.18913
0
LINE
8
BLACK
6
CONTINUOUS
10
1.19714
20
-4.18913
11
1.19696
21
-4.18948
0
LINE
8
BLACK
6
CONTINUOUS
10
1.19696
20
-4.18948
11
1.19671
21
-4.18978
0
LINE
8
BLACK
6
CONTINUOUS
10
1.19671
20
-4.18978
11
1.19641
21
-4.19002
0
LINE
8
BLACK
6
CONTINUOUS
10
1.19641
20
-4.19002
11
1.19607
21
-4.1902
0
LINE
8
BLACK
6
CONTINUOUS
10
1.19607
20
-4.1902
11
1.1957
21
-4.19032
0
LINE
8
BLACK
6
CONTINUOUS
10
1.1957
20
-4.19032
11
1.19531
21
-4.19036
0
LINE
8
BLACK
6
CONTINUOUS
10
1.19531
20
-4.19036
11
1.19493
21
-4.19032
0
LINE
8
BLACK
6
CONTINUOUS
10
1.19493
20
-4.19032
11
1.19456
21
-4.1902
0
LINE
8
BLACK
6
CONTINUOUS
10
1.19456
20
-4.1902
11
1.19421
21
-4.19002
0
LINE
8
BLACK
6
CONTINUOUS
10
1.19421
20
-4.19002
11
1.19391
21
-4.18978
0
LINE
8
BLACK
6
CONTINUOUS
10
1.19391
20
-4.18978
11
1.19367
21
-4.18948
0
LINE
8
BLACK
6
CONTINUOUS
10
1.19367
20
-4.18948
11
1.19349
21
-4.18913
0
LINE
8
BLACK
6
CONTINUOUS
10
1.19349
20
-4.18913
11
1.19337
21
-4.18876
0
LINE
8
BLACK
6
CONTINUOUS
10
1.19337
20
-4.18876
11
1.19334
21
-4.18847
0
LINE
8
BLACK
6
CONTINUOUS
10
1.19334
20
-4.18847
11
1.19335
21
-4.16466
0
LINE
8
BLACK
6
CONTINUOUS
10
1.19335
20
-4.16466
11
1.19337
21
-4.16437
0
LINE
8
BLACK
6
CONTINUOUS
10
1.19337
20
-4.16437
11
1.19349
21
-4.164
0
LINE
8
BLACK
6
CONTINUOUS
10
1.19349
20
-4.164
11
1.19367
21
-4.16366
0
LINE
8
BLACK
6
CONTINUOUS
10
1.19367
20
-4.16366
11
1.19391
21
-4.16336
0
LINE
8
BLACK
6
CONTINUOUS
10
1.19391
20
-4.16336
11
1.19421
21
-4.16311
0
LINE
8
BLACK
6
CONTINUOUS
10
1.19421
20
-4.16311
11
1.19456
21
-4.16293
0
LINE
8
BLACK
6
CONTINUOUS
10
1.19456
20
-4.16293
11
1.19493
21
-4.16282
0
LINE
8
BLACK
6
CONTINUOUS
10
1.19493
20
-4.16282
11
1.19531
21
-4.16278
0
LINE
8
BLACK
6
CONTINUOUS
10
1.19531
20
-4.16278
11
1.1957
21
-4.16282
0
LINE
8
BLACK
6
CONTINUOUS
10
12.3051
20
-4.13469
11
12.3055
21
-4.1348
0
LINE
8
BLACK
6
CONTINUOUS
10
12.3055
20
-4.1348
11
12.3058
21
-4.13499
0
LINE
8
BLACK
6
CONTINUOUS
10
12.3058
20
-4.13499
11
12.3061
21
-4.13523
0
LINE
8
BLACK
6
CONTINUOUS
10
12.3061
20
-4.13523
11
12.3063
21
-4.13553
0
LINE
8
BLACK
6
CONTINUOUS
10
12.3063
20
-4.13553
11
12.3065
21
-4.13587
0
LINE
8
BLACK
6
CONTINUOUS
10
12.3065
20
-4.13587
11
12.3066
21
-4.13624
0
LINE
8
BLACK
6
CONTINUOUS
10
12.3066
20
-4.13624
11
12.3067
21
-4.13653
0
LINE
8
BLACK
6
CONTINUOUS
10
12.3067
20
-4.13653
11
12.3067
21
-4.16035
0
LINE
8
BLACK
6
CONTINUOUS
10
12.3067
20
-4.16035
11
12.3066
21
-4.16064
0
LINE
8
BLACK
6
CONTINUOUS
10
12.3066
20
-4.16064
11
12.3065
21
-4.16101
0
LINE
8
BLACK
6
CONTINUOUS
10
12.3065
20
-4.16101
11
12.3063
21
-4.16135
0
LINE
8
BLACK
6
CONTINUOUS
10
12.3063
20
-4.16135
11
12.3061
21
-4.16165
0
LINE
8
BLACK
6
CONTINUOUS
10
12.3061
20
-4.16165
11
12.3058
21
-4.1619
0
LINE
8
BLACK
6
CONTINUOUS
10
12.3058
20
-4.1619
11
12.3055
21
-4.16208
0
LINE
8
BLACK
6
CONTINUOUS
10
12.3055
20
-4.16208
11
12.3051
21
-4.16219
0
LINE
8
BLACK
6
CONTINUOUS
10
12.3051
20
-4.16219
11
12.3047
21
-4.16223
0
LINE
8
BLACK
6
CONTINUOUS
10
12.3047
20
-4.16223
11
12.3043
21
-4.16219
0
LINE
8
BLACK
6
CONTINUOUS
10
12.3043
20
-4.16219
11
12.3039
21
-4.16208
0
LINE
8
BLACK
6
CONTINUOUS
10
12.3039
20
-4.16208
11
12.3036
21
-4.1619
0
LINE
8
BLACK
6
CONTINUOUS
10
12.3036
20
-4.1619
11
12.3033
21
-4.16165
0
LINE
8
BLACK
6
CONTINUOUS
10
12.3033
20
-4.16165
11
12.3031
21
-4.16135
0
LINE
8
BLACK
6
CONTINUOUS
10
12.3031
20
-4.16135
11
12.3029
21
-4.16101
0
LINE
8
BLACK
6
CONTINUOUS
10
12.3029
20
-4.16101
11
12.3028
21
-4.16064
0
LINE
8
BLACK
6
CONTINUOUS
10
12.3028
20
-4.16064
11
12.3027
21
-4.16035
0
LINE
8
BLACK
6
CONTINUOUS
10
12.3027
20
-4.16035
11
12.3027
21
-4.13653
0
LINE
8
BLACK
6
CONTINUOUS
10
12.3027
20
-4.13653
11
12.3028
21
-4.13624
0
LINE
8
BLACK
6
CONTINUOUS
10
12.3028
20
-4.13624
11
12.3029
21
-4.13587
0
LINE
8
BLACK
6
CONTINUOUS
10
12.3029
20
-4.13587
11
12.3031
21
-4.13553
0
LINE
8
BLACK
6
CONTINUOUS
10
12.3031
20
-4.13553
11
12.3033
21
-4.13523
0
LINE
8
BLACK
6
CONTINUOUS
10
12.3033
20
-4.13523
11
12.3036
21
-4.13499
0
LINE
8
BLACK
6
CONTINUOUS
10
12.3036
20
-4.13499
11
12.3039
21
-4.1348
0
LINE
8
BLACK
6
CONTINUOUS
10
12.3039
20
-4.1348
11
12.3043
21
-4.13469
0
LINE
8
BLACK
6
CONTINUOUS
10
12.3043
20
-4.13469
11
12.3047
21
-4.13465
0
LINE
8
BLACK
6
CONTINUOUS
10
12.3047
20
-4.13465
11
12.3051
21
-4.13469
0
LINE
8
BLACK
6
CONTINUOUS
10
11.4778
20
-2.50587
11
11.4782
21
-2.50599
0
LINE
8
BLACK
6
CONTINUOUS
10
11.4782
20
-2.50599
11
11.4785
21
-2.50617
0
LINE
8
BLACK
6
CONTINUOUS
10
11.4785
20
-2.50617
11
11.4788
21
-2.50642
0
LINE
8
BLACK
6
CONTINUOUS
10
11.4788
20
-2.50642
11
11.4791
21
-2.50672
0
LINE
8
BLACK
6
CONTINUOUS
10
11.4791
20
-2.50672
11
11.4793
21
-2.50706
0
LINE
8
BLACK
6
CONTINUOUS
10
11.4793
20
-2.50706
11
11.4794
21
-2.50743
0
LINE
8
BLACK
6
CONTINUOUS
10
11.4794
20
-2.50743
11
11.4794
21
-2.50781
0
LINE
8
BLACK
6
CONTINUOUS
10
11.4794
20
-2.50781
11
11.4794
21
-2.5082
0
LINE
8
BLACK
6
CONTINUOUS
10
11.4794
20
-2.5082
11
11.4793
21
-2.50857
0
LINE
8
BLACK
6
CONTINUOUS
10
11.4793
20
-2.50857
11
11.4791
21
-2.50891
0
LINE
8
BLACK
6
CONTINUOUS
10
11.4791
20
-2.50891
11
11.4788
21
-2.50921
0
LINE
8
BLACK
6
CONTINUOUS
10
11.4788
20
-2.50921
11
11.4785
21
-2.50946
0
LINE
8
BLACK
6
CONTINUOUS
10
11.4785
20
-2.50946
11
11.4782
21
-2.50964
0
LINE
8
BLACK
6
CONTINUOUS
10
11.4782
20
-2.50964
11
11.4778
21
-2.50975
0
LINE
8
BLACK
6
CONTINUOUS
10
11.4778
20
-2.50975
11
11.4775
21
-2.50978
0
LINE
8
BLACK
6
CONTINUOUS
10
11.4775
20
-2.50978
11
11.4537
21
-2.50978
0
LINE
8
BLACK
6
CONTINUOUS
10
11.4537
20
-2.50978
11
11.4534
21
-2.50975
0
LINE
8
BLACK
6
CONTINUOUS
10
11.4534
20
-2.50975
11
11.4531
21
-2.50964
0
LINE
8
BLACK
6
CONTINUOUS
10
11.4531
20
-2.50964
11
11.4527
21
-2.50946
0
LINE
8
BLACK
6
CONTINUOUS
10
11.4527
20
-2.50946
11
11.4524
21
-2.50921
0
LINE
8
BLACK
6
CONTINUOUS
10
11.4524
20
-2.50921
11
11.4522
21
-2.50891
0
LINE
8
BLACK
6
CONTINUOUS
10
11.4522
20
-2.50891
11
11.452
21
-2.50857
0
LINE
8
BLACK
6
CONTINUOUS
10
11.452
20
-2.50857
11
11.4519
21
-2.5082
0
LINE
8
BLACK
6
CONTINUOUS
10
11.4519
20
-2.5082
11
11.4518
21
-2.50781
0
LINE
8
BLACK
6
CONTINUOUS
10
11.4518
20
-2.50781
11
11.4519
21
-2.50743
0
LINE
8
BLACK
6
CONTINUOUS
10
11.4519
20
-2.50743
11
11.452
21
-2.50706
0
LINE
8
BLACK
6
CONTINUOUS
10
11.452
20
-2.50706
11
11.4522
21
-2.50672
0
LINE
8
BLACK
6
CONTINUOUS
10
11.4522
20
-2.50672
11
11.4524
21
-2.50642
0
LINE
8
BLACK
6
CONTINUOUS
10
11.4524
20
-2.50642
11
11.4527
21
-2.50617
0
LINE
8
BLACK
6
CONTINUOUS
10
11.4527
20
-2.50617
11
11.4531
21
-2.50599
0
LINE
8
BLACK
6
CONTINUOUS
10
11.4531
20
-2.50599
11
11.4534
21
-2.50587
0
LINE
8
BLACK
6
CONTINUOUS
10
11.4534
20
-2.50587
11
11.4537
21
-2.50585
0
LINE
8
BLACK
6
CONTINUOUS
10
11.4537
20
-2.50585
11
11.4775
21
-2.50585
0
LINE
8
BLACK
6
CONTINUOUS
10
11.4775
20
-2.50585
11
11.4778
21
-2.50587
0
LINE
8
BLACK
6
CONTINUOUS
10
11.5778
20
-2.50587
11
11.5782
21
-2.50599
0
LINE
8
BLACK
6
CONTINUOUS
10
11.5782
20
-2.50599
11
11.5785
21
-2.50617
0
LINE
8
BLACK
6
CONTINUOUS
10
11.5785
20
-2.50617
11
11.5788
21
-2.50642
0
LINE
8
BLACK
6
CONTINUOUS
10
11.5788
20
-2.50642
11
11.5791
21
-2.50672
0
LINE
8
BLACK
6
CONTINUOUS
10
11.5791
20
-2.50672
11
11.5793
21
-2.50706
0
LINE
8
BLACK
6
CONTINUOUS
10
11.5793
20
-2.50706
11
11.5794
21
-2.50743
0
LINE
8
BLACK
6
CONTINUOUS
10
11.5794
20
-2.50743
11
11.5794
21
-2.50781
0
LINE
8
BLACK
6
CONTINUOUS
10
11.5794
20
-2.50781
11
11.5794
21
-2.5082
0
LINE
8
BLACK
6
CONTINUOUS
10
11.5794
20
-2.5082
11
11.5793
21
-2.50857
0
LINE
8
BLACK
6
CONTINUOUS
10
11.5793
20
-2.50857
11
11.5791
21
-2.50891
0
LINE
8
BLACK
6
CONTINUOUS
10
11.5791
20
-2.50891
11
11.5788
21
-2.50921
0
LINE
8
BLACK
6
CONTINUOUS
10
11.5788
20
-2.50921
11
11.5785
21
-2.50946
0
LINE
8
BLACK
6
CONTINUOUS
10
11.5785
20
-2.50946
11
11.5782
21
-2.50964
0
LINE
8
BLACK
6
CONTINUOUS
10
11.5782
20
-2.50964
11
11.5778
21
-2.50975
0
LINE
8
BLACK
6
CONTINUOUS
10
11.5778
20
-2.50975
11
11.5775
21
-2.50978
0
LINE
8
BLACK
6
CONTINUOUS
10
11.5775
20
-2.50978
11
11.5537
21
-2.50978
0
LINE
8
BLACK
6
CONTINUOUS
10
11.5537
20
-2.50978
11
11.5534
21
-2.50975
0
LINE
8
BLACK
6
CONTINUOUS
10
11.5534
20
-2.50975
11
11.5531
21
-2.50964
0
LINE
8
BLACK
6
CONTINUOUS
10
11.5531
20
-2.50964
11
11.5527
21
-2.50946
0
LINE
8
BLACK
6
CONTINUOUS
10
11.5527
20
-2.50946
11
11.5524
21
-2.50921
0
LINE
8
BLACK
6
CONTINUOUS
10
11.5524
20
-2.50921
11
11.5522
21
-2.50891
0
LINE
8
BLACK
6
CONTINUOUS
10
11.5522
20
-2.50891
11
11.552
21
-2.50857
0
LINE
8
BLACK
6
CONTINUOUS
10
11.552
20
-2.50857
11
11.5519
21
-2.5082
0
LINE
8
BLACK
6
CONTINUOUS
10
11.5519
20
-2.5082
11
11.5518
21
-2.50781
0
LINE
8
BLACK
6
CONTINUOUS
10
11.5518
20
-2.50781
11
11.5519
21
-2.50743
0
LINE
8
BLACK
6
CONTINUOUS
10
11.5519
20
-2.50743
11
11.552
21
-2.50706
0
LINE
8
BLACK
6
CONTINUOUS
10
11.552
20
-2.50706
11
11.5522
21
-2.50672
0
LINE
8
BLACK
6
CONTINUOUS
10
11.5522
20
-2.50672
11
11.5524
21
-2.50642
0
LINE
8
BLACK
6
CONTINUOUS
10
11.5524
20
-2.50642
11
11.5527
21
-2.50617
0
LINE
8
BLACK
6
CONTINUOUS
10
11.5527
20
-2.50617
11
11.5531
21
-2.50599
0
LINE
8
BLACK
6
CONTINUOUS
10
11.5531
20
-2.50599
11
11.5534
21
-2.50587
0
LINE
8
BLACK
6
CONTINUOUS
10
11.5534
20
-2.50587
11
11.5537
21
-2.50585
0
LINE
8
BLACK
6
CONTINUOUS
10
11.5537
20
-2.50585
11
11.5775
21
-2.50585
0
LINE
8
BLACK
6
CONTINUOUS
10
11.5775
20
-2.50585
11
11.5778
21
-2.50587
0
LINE
8
BLACK
6
CONTINUOUS
10
11.6778
20
-2.50587
11
11.6782
21
-2.50599
0
LINE
8
BLACK
6
CONTINUOUS
10
11.6782
20
-2.50599
11
11.6785
21
-2.50617
0
LINE
8
BLACK
6
CONTINUOUS
10
11.6785
20
-2.50617
11
11.6788
21
-2.50642
0
LINE
8
BLACK
6
CONTINUOUS
10
11.6788
20
-2.50642
11
11.6791
21
-2.50672
0
LINE
8
BLACK
6
CONTINUOUS
10
11.6791
20
-2.50672
11
11.6793
21
-2.50706
0
LINE
8
BLACK
6
CONTINUOUS
10
11.6793
20
-2.50706
11
11.6794
21
-2.50743
0
LINE
8
BLACK
6
CONTINUOUS
10
11.6794
20
-2.50743
11
11.6794
21
-2.50781
0
LINE
8
BLACK
6
CONTINUOUS
10
11.6794
20
-2.50781
11
11.6794
21
-2.5082
0
LINE
8
BLACK
6
CONTINUOUS
10
11.6794
20
-2.5082
11
11.6793
21
-2.50857
0
LINE
8
BLACK
6
CONTINUOUS
10
11.6793
20
-2.50857
11
11.6791
21
-2.50891
0
LINE
8
BLACK
6
CONTINUOUS
10
11.6791
20
-2.50891
11
11.6788
21
-2.50921
0
LINE
8
BLACK
6
CONTINUOUS
10
11.6788
20
-2.50921
11
11.6785
21
-2.50946
0
LINE
8
BLACK
6
CONTINUOUS
10
11.6785
20
-2.50946
11
11.6782
21
-2.50964
0
LINE
8
BLACK
6
CONTINUOUS
10
11.6782
20
-2.50964
11
11.6778
21
-2.50975
0
LINE
8
BLACK
6
CONTINUOUS
10
11.6778
20
-2.50975
11
11.6775
21
-2.50978
0
LINE
8
BLACK
6
CONTINUOUS
10
11.6775
20
-2.50978
11
11.6537
21
-2.50978
0
LINE
8
BLACK
6
CONTINUOUS
10
11.6537
20
-2.50978
11
11.6534
21
-2.50975
0
LINE
8
BLACK
6
CONTINUOUS
10
11.6534
20
-2.50975
11
11.6531
21
-2.50964
0
LINE
8
BLACK
6
CONTINUOUS
10
11.6531
20
-2.50964
11
11.6527
21
-2.50946
0
LINE
8
BLACK
6
CONTINUOUS
10
11.6527
20
-2.50946
11
11.6524
21
-2.50921
0
LINE
8
BLACK
6
CONTINUOUS
10
11.6524
20
-2.50921
11
11.6522
21
-2.50891
0
LINE
8
BLACK
6
CONTINUOUS
10
11.6522
20
-2.50891
11
11.652
21
-2.50857
0
LINE
8
BLACK
6
CONTINUOUS
10
11.652
20
-2.50857
11
11.6519
21
-2.5082
0
LINE
8
BLACK
6
CONTINUOUS
10
11.6519
20
-2.5082
11
11.6518
21
-2.50781
0
LINE
8
BLACK
6
CONTINUOUS
10
11.6518
20
-2.50781
11
11.6519
21
-2.50743
0
LINE
8
BLACK
6
CONTINUOUS
10
11.6519
20
-2.50743
11
11.652
21
-2.50706
0
LINE
8
BLACK
6
CONTINUOUS
10
11.652
20
-2.50706
11
11.6522
21
-2.50672
0
LINE
8
BLACK
6
CONTINUOUS
10
11.6522
20
-2.50672
11
11.6524
21
-2.50642
0
LINE
8
BLACK
6
CONTINUOUS
10
11.6524
20
-2.50642
11
11.6527
21
-2.50617
0
LINE
8
BLACK
6
CONTINUOUS
10
11.6527
20
-2.50617
11
11.6531
21
-2.50599
0
LINE
8
BLACK
6
CONTINUOUS
10
11.6531
20
-2.50599
11
11.6534
21
-2.50587
0
LINE
8
BLACK
6
CONTINUOUS
10
11.6534
20
-2.50587
11
11.6537
21
-2.50585
0
LINE
8
BLACK
6
CONTINUOUS
10
11.6537
20
-2.50585
11
11.6775
21
-2.50585
0
LINE
8
BLACK
6
CONTINUOUS
10
11.6775
20
-2.50585
11
11.6778
21
-2.50587
0
LINE
8
BLACK
6
CONTINUOUS
10
11.7778
20
-2.50587
11
11.7782
21
-2.50599
0
LINE
8
BLACK
6
CONTINUOUS
10
11.7782
20
-2.50599
11
11.7785
21
-2.50617
0
LINE
8
BLACK
6
CONTINUOUS
10
11.7785
20
-2.50617
11
11.7788
21
-2.50642
0
LINE
8
BLACK
6
CONTINUOUS
10
11.7788
20
-2.50642
11
11.7791
21
-2.50672
0
LINE
8
BLACK
6
CONTINUOUS
10
11.7791
20
-2.50672
11
11.7793
21
-2.50706
0
LINE
8
BLACK
6
CONTINUOUS
10
11.7793
20
-2.50706
11
11.7794
21
-2.50743
0
LINE
8
BLACK
6
CONTINUOUS
10
11.7794
20
-2.50743
11
11.7794
21
-2.50781
0
LINE
8
BLACK
6
CONTINUOUS
10
11.7794
20
-2.50781
11
11.7794
21
-2.5082
0
LINE
8
BLACK
6
CONTINUOUS
10
11.7794
20
-2.5082
11
11.7793
21
-2.50857
0
LINE
8
BLACK
6
CONTINUOUS
10
11.7793
20
-2.50857
11
11.7791
21
-2.50891
0
LINE
8
BLACK
6
CONTINUOUS
10
11.7791
20
-2.50891
11
11.7788
21
-2.50921
0
LINE
8
BLACK
6
CONTINUOUS
10
11.7788
20
-2.50921
11
11.7785
21
-2.50946
0
LINE
8
BLACK
6
CONTINUOUS
10
11.7785
20
-2.50946
11
11.7782
21
-2.50964
0
LINE
8
BLACK
6
CONTINUOUS
10
11.7782
20
-2.50964
11
11.7778
21
-2.50975
0
LINE
8
BLACK
6
CONTINUOUS
10
11.7778
20
-2.50975
11
11.7775
21
-2.50978
0
LINE
8
BLACK
6
CONTINUOUS
10
11.7775
20
-2.50978
11
11.7537
21
-2.50978
0
LINE
8
BLACK
6
CONTINUOUS
10
11.7537
20
-2.50978
11
11.7534
21
-2.50975
0
LINE
8
BLACK
6
CONTINUOUS
10
11.7534
20
-2.50975
11
11.7531
21
-2.50964
0
LINE
8
BLACK
6
CONTINUOUS
10
11.7531
20
-2.50964
11
11.7527
21
-2.50946
0
LINE
8
BLACK
6
CONTINUOUS
10
11.7527
20
-2.50946
11
11.7524
21
-2.50921
0
LINE
8
BLACK
6
CONTINUOUS
10
11.7524
20
-2.50921
11
11.7522
21
-2.50891
0
LINE
8
BLACK
6
CONTINUOUS
10
11.7522
20
-2.50891
11
11.752
21
-2.50857
0
LINE
8
BLACK
6
CONTINUOUS
10
11.752
20
-2.50857
11
11.7519
21
-2.5082
0
LINE
8
BLACK
6
CONTINUOUS
10
11.7519
20
-2.5082
11
11.7518
21
-2.50781
0
LINE
8
BLACK
6
CONTINUOUS
10
11.7518
20
-2.50781
11
11.7519
21
-2.50743
0
LINE
8
BLACK
6
CONTINUOUS
10
11.7519
20
-2.50743
11
11.752
21
-2.50706
0
LINE
8
BLACK
6
CONTINUOUS
10
11.752
20
-2.50706
11
11.7522
21
-2.50672
0
LINE
8
BLACK
6
CONTINUOUS
10
11.7522
20
-2.50672
11
11.7524
21
-2.50642
0
LINE
8
BLACK
6
CONTINUOUS
10
11.7524
20
-2.50642
11
11.7527
21
-2.50617
0
LINE
8
BLACK
6
CONTINUOUS
10
11.7527
20
-2.50617
11
11.7531
21
-2.50599
0
LINE
8
BLACK
6
CONTINUOUS
10
11.7531
20
-2.50599
11
11.7534
21
-2.50587
0
LINE
8
BLACK
6
CONTINUOUS
10
11.7534
20
-2.50587
11
11.7537
21
-2.50585
0
LINE
8
BLACK
6
CONTINUOUS
10
11.7537
20
-2.50585
11
11.7775
21
-2.50585
0
LINE
8
BLACK
6
CONTINUOUS
10
11.7775
20
-2.50585
11
11.7778
21
-2.50587
  0
ENDSEC
  0
EOF
