<?xml version="1.0" standalone="no"?>
 <!DOCTYPE svg PUBLIC "-//W3C//DTD SVG 1.1//EN" 
 "http://www.w3.org/Graphics/SVG/1.1/DTD/svg11.dtd"> 
<svg
  xmlns:svg="http://www.w3.org/2000/svg"
  xmlns="http://www.w3.org/2000/svg"
  xmlns:xlink="http://www.w3.org/1999/xlink"
  version="1.1"
  width="29.535120cm" height="10.807700cm" viewBox="0 0 116280 42550">
<title>SVG Picture created as 61key-B_Paste.svg date 2020/05/25 18:21:39 </title>
  <desc>Picture generated by PCBNEW </desc>
<g style="fill:#000000; fill-opacity:1;stroke:#000000; stroke-opacity:1;
stroke-linecap:round; stroke-linejoin:round;"
 transform="translate(0 0) scale(1 1)">
</g>
<g style="fill:#000000; fill-opacity:0.0; 
stroke:#000000; stroke-width:-0.000393701; stroke-opacity:1; 
stroke-linecap:round; stroke-linejoin:round;">
<g >
</g>
<g >
</g>
<g style="fill:#000000; fill-opacity:0.0; 
stroke:#000000; stroke-width:-0.000393701; stroke-opacity:1; 
stroke-linecap:round; stroke-linejoin:round;">
</g>
<g style="fill:#000000; fill-opacity:0.0; 
stroke:#000000; stroke-width:0; stroke-opacity:1; 
stroke-linecap:round; stroke-linejoin:round;">
</g>
<g style="fill:#000000; fill-opacity:1.0; 
stroke:#000000; stroke-width:0; stroke-opacity:1; 
stroke-linecap:round; stroke-linejoin:round;">
<path style="fill:#000000; fill-opacity:1.0; 
stroke:#000000; stroke-width:0; stroke-opacity:1; 
stroke-linecap:round; stroke-linejoin:round;fill-rule:evenodd;"
d="M 63700.3,30802
63708.6,30803.3
63716.7,30805.3
63724.6,30808.1
63732.2,30811.7
63739.4,30816
63746.1,30821
63752.4,30826.7
63758,30832.9
63763,30839.6
63767.3,30846.8
63770.9,30854.4
63773.7,30862.3
63775.8,30870.5
63777,30878.8
63777.4,30887.1
63777.4,31087.7
63777,31096.1
63775.8,31104.4
63773.7,31112.6
63770.9,31120.5
63767.3,31128.1
63763,31135.3
63758,31142
63752.4,31148.2
63746.1,31153.9
63739.4,31158.9
63732.2,31163.2
63724.6,31166.8
63716.7,31169.6
63708.6,31171.6
63700.3,31172.9
63691.9,31173.3
63520.8,31173.3
63512.4,31172.9
63504.1,31171.6
63496,31169.6
63488.1,31166.8
63480.5,31163.2
63473.3,31158.9
63466.6,31153.9
63460.3,31148.2
63454.7,31142
63449.7,31135.3
63445.4,31128.1
63441.8,31120.5
63439,31112.6
63436.9,31104.4
63435.7,31096.1
63435.3,31087.7
63435.3,30887.1
63435.7,30878.8
63436.9,30870.5
63439,30862.3
63441.8,30854.4
63445.4,30846.8
63449.7,30839.6
63454.7,30832.9
63460.3,30826.7
63466.6,30821
63473.3,30816
63480.5,30811.7
63488.1,30808.1
63496,30805.3
63504.1,30803.3
63512.4,30802
63520.8,30801.6
63691.9,30801.6
Z" /> 
<path style="fill:#000000; fill-opacity:1.0; 
stroke:#000000; stroke-width:0; stroke-opacity:1; 
stroke-linecap:round; stroke-linejoin:round;fill-rule:evenodd;"
d="M 64320.3,30802
64328.7,30803.3
64336.8,30805.3
64344.7,30808.1
64352.3,30811.7
64359.5,30816
64366.2,30821
64372.4,30826.7
64378.1,30832.9
64383.1,30839.6
64387.4,30846.8
64391,30854.4
64393.8,30862.3
64395.9,30870.5
64397.1,30878.8
64397.5,30887.1
64397.5,31087.7
64397.1,31096.1
64395.9,31104.4
64393.8,31112.6
64391,31120.5
64387.4,31128.1
64383.1,31135.3
64378.1,31142
64372.4,31148.2
64366.2,31153.9
64359.5,31158.9
64352.3,31163.2
64344.7,31166.8
64336.8,31169.6
64328.7,31171.6
64320.3,31172.9
64312,31173.3
64140.9,31173.3
64132.5,31172.9
64124.2,31171.6
64116.1,31169.6
64108.2,31166.8
64100.6,31163.2
64093.4,31158.9
64086.6,31153.9
64080.4,31148.2
64074.8,31142
64069.8,31135.3
64065.5,31128.1
64061.9,31120.5
64059.1,31112.6
64057,31104.4
64055.8,31096.1
64055.4,31087.7
64055.4,30887.1
64055.8,30878.8
64057,30870.5
64059.1,30862.3
64061.9,30854.4
64065.5,30846.8
64069.8,30839.6
64074.8,30832.9
64080.4,30826.7
64086.6,30821
64093.4,30816
64100.6,30811.7
64108.2,30808.1
64116.1,30805.3
64124.2,30803.3
64132.5,30802
64140.9,30801.6
64312,30801.6
Z" /> 
</g>
<g >
</g>
<g style="fill:#000000; fill-opacity:1.0; 
stroke:#000000; stroke-width:0; stroke-opacity:1; 
stroke-linecap:round; stroke-linejoin:round;">
<path style="fill:#000000; fill-opacity:1.0; 
stroke:#000000; stroke-width:0; stroke-opacity:1; 
stroke-linecap:round; stroke-linejoin:round;fill-rule:evenodd;"
d="M 56347.8,4026.18
56347.8,3457.68
56463.6,3457.68
56463.6,4026.18
Z" /> 
<path style="fill:#000000; fill-opacity:1.0; 
stroke:#000000; stroke-width:0; stroke-opacity:1; 
stroke-linecap:round; stroke-linejoin:round;fill-rule:evenodd;"
d="M 56544.7,4026.18
56544.7,3457.68
56660.4,3457.68
56660.4,4026.18
Z" /> 
<path style="fill:#000000; fill-opacity:1.0; 
stroke:#000000; stroke-width:0; stroke-opacity:1; 
stroke-linecap:round; stroke-linejoin:round;fill-rule:evenodd;"
d="M 56741.5,4026.18
56741.5,3457.68
56857.3,3457.68
56857.3,4026.18
Z" /> 
<path style="fill:#000000; fill-opacity:1.0; 
stroke:#000000; stroke-width:0; stroke-opacity:1; 
stroke-linecap:round; stroke-linejoin:round;fill-rule:evenodd;"
d="M 56151,4026.18
56151,3457.68
56266.7,3457.68
56266.7,4026.18
Z" /> 
<path style="fill:#000000; fill-opacity:1.0; 
stroke:#000000; stroke-width:0; stroke-opacity:1; 
stroke-linecap:round; stroke-linejoin:round;fill-rule:evenodd;"
d="M 56938.4,4026.18
56938.4,3457.68
57054.1,3457.68
57054.1,4026.18
Z" /> 
<path style="fill:#000000; fill-opacity:1.0; 
stroke:#000000; stroke-width:0; stroke-opacity:1; 
stroke-linecap:round; stroke-linejoin:round;fill-rule:evenodd;"
d="M 55954.1,4026.18
55954.1,3457.68
56069.9,3457.68
56069.9,4026.18
Z" /> 
<path style="fill:#000000; fill-opacity:1.0; 
stroke:#000000; stroke-width:0; stroke-opacity:1; 
stroke-linecap:round; stroke-linejoin:round;fill-rule:evenodd;"
d="M 57135.2,4026.18
57135.2,3457.68
57251,3457.68
57251,4026.18
Z" /> 
<path style="fill:#000000; fill-opacity:1.0; 
stroke:#000000; stroke-width:0; stroke-opacity:1; 
stroke-linecap:round; stroke-linejoin:round;fill-rule:evenodd;"
d="M 55757.3,4026.18
55757.3,3457.68
55873,3457.68
55873,4026.18
Z" /> 
<path style="fill:#000000; fill-opacity:1.0; 
stroke:#000000; stroke-width:0; stroke-opacity:1; 
stroke-linecap:round; stroke-linejoin:round;fill-rule:evenodd;"
d="M 55422.6,4026.18
55422.6,3457.68
55656.5,3457.68
55656.5,4026.18
Z" /> 
<path style="fill:#000000; fill-opacity:1.0; 
stroke:#000000; stroke-width:0; stroke-opacity:1; 
stroke-linecap:round; stroke-linejoin:round;fill-rule:evenodd;"
d="M 57351.8,4026.18
57351.8,3457.68
57585.6,3457.68
57585.6,4026.18
Z" /> 
<path style="fill:#000000; fill-opacity:1.0; 
stroke:#000000; stroke-width:0; stroke-opacity:1; 
stroke-linecap:round; stroke-linejoin:round;fill-rule:evenodd;"
d="M 55117.5,4026.18
55117.5,3457.68
55351.4,3457.68
55351.4,4026.18
Z" /> 
<path style="fill:#000000; fill-opacity:1.0; 
stroke:#000000; stroke-width:0; stroke-opacity:1; 
stroke-linecap:round; stroke-linejoin:round;fill-rule:evenodd;"
d="M 57656.9,4026.18
57656.9,3457.68
57890.7,3457.68
57890.7,4026.18
Z" /> 
</g>
<g >
</g>
<g >
</g>
<g >
</g>
<g >
</g>
<g style="fill:#000000; fill-opacity:1.0; 
stroke:#000000; stroke-width:0; stroke-opacity:1; 
stroke-linecap:round; stroke-linejoin:round;">
<path style="fill:#000000; fill-opacity:1.0; 
stroke:#000000; stroke-width:0; stroke-opacity:1; 
stroke-linecap:round; stroke-linejoin:round;fill-rule:evenodd;"
d="M 112691,26630.4
112691,26199.7
113121,26199.7
113121,26630.4
Z" /> 
<path style="fill:#000000; fill-opacity:1.0; 
stroke:#000000; stroke-width:0; stroke-opacity:1; 
stroke-linecap:round; stroke-linejoin:round;fill-rule:evenodd;"
d="M 113793,26630.4
113793,26199.7
114224,26199.7
114224,26630.4
Z" /> 
</g>
<g >
</g>
<g style="fill:#000000; fill-opacity:1.0; 
stroke:#000000; stroke-width:0; stroke-opacity:1; 
stroke-linecap:round; stroke-linejoin:round;">
<path style="fill:#000000; fill-opacity:1.0; 
stroke:#000000; stroke-width:0; stroke-opacity:1; 
stroke-linecap:round; stroke-linejoin:round;fill-rule:evenodd;"
d="M 106128,26630.4
106128,26199.7
106559,26199.7
106559,26630.4
Z" /> 
<path style="fill:#000000; fill-opacity:1.0; 
stroke:#000000; stroke-width:0; stroke-opacity:1; 
stroke-linecap:round; stroke-linejoin:round;fill-rule:evenodd;"
d="M 107231,26630.4
107231,26199.7
107661,26199.7
107661,26630.4
Z" /> 
</g>
<g >
</g>
<g style="fill:#000000; fill-opacity:1.0; 
stroke:#000000; stroke-width:0; stroke-opacity:1; 
stroke-linecap:round; stroke-linejoin:round;">
<path style="fill:#000000; fill-opacity:1.0; 
stroke:#000000; stroke-width:0; stroke-opacity:1; 
stroke-linecap:round; stroke-linejoin:round;fill-rule:evenodd;"
d="M 17065.7,26630.4
17065.7,26199.7
17496.4,26199.7
17496.4,26630.4
Z" /> 
<path style="fill:#000000; fill-opacity:1.0; 
stroke:#000000; stroke-width:0; stroke-opacity:1; 
stroke-linecap:round; stroke-linejoin:round;fill-rule:evenodd;"
d="M 18168,26630.4
18168,26199.7
18598.7,26199.7
18598.7,26630.4
Z" /> 
</g>
<g >
</g>
<g style="fill:#000000; fill-opacity:1.0; 
stroke:#000000; stroke-width:0; stroke-opacity:1; 
stroke-linecap:round; stroke-linejoin:round;">
<path style="fill:#000000; fill-opacity:1.0; 
stroke:#000000; stroke-width:0; stroke-opacity:1; 
stroke-linecap:round; stroke-linejoin:round;fill-rule:evenodd;"
d="M 112691,4950.71
112691,4520
113121,4520
113121,4950.71
Z" /> 
<path style="fill:#000000; fill-opacity:1.0; 
stroke:#000000; stroke-width:0; stroke-opacity:1; 
stroke-linecap:round; stroke-linejoin:round;fill-rule:evenodd;"
d="M 113793,4950.71
113793,4520
114224,4520
114224,4950.71
Z" /> 
</g>
<g >
</g>
<g style="fill:#000000; fill-opacity:1.0; 
stroke:#000000; stroke-width:0; stroke-opacity:1; 
stroke-linecap:round; stroke-linejoin:round;">
<path style="fill:#000000; fill-opacity:1.0; 
stroke:#000000; stroke-width:0; stroke-opacity:1; 
stroke-linecap:round; stroke-linejoin:round;fill-rule:evenodd;"
d="M 109167,11199.7
109167,11630.4
108736,11630.4
108736,11199.7
Z" /> 
<path style="fill:#000000; fill-opacity:1.0; 
stroke:#000000; stroke-width:0; stroke-opacity:1; 
stroke-linecap:round; stroke-linejoin:round;fill-rule:evenodd;"
d="M 108065,11199.7
108065,11630.4
107634,11630.4
107634,11199.7
Z" /> 
</g>
<g >
</g>
<g style="fill:#000000; fill-opacity:1.0; 
stroke:#000000; stroke-width:0; stroke-opacity:1; 
stroke-linecap:round; stroke-linejoin:round;">
<path style="fill:#000000; fill-opacity:1.0; 
stroke:#000000; stroke-width:0; stroke-opacity:1; 
stroke-linecap:round; stroke-linejoin:round;fill-rule:evenodd;"
d="M 107827,7516.18
108258,7516.18
108258,7946.89
107827,7946.89
Z" /> 
<path style="fill:#000000; fill-opacity:1.0; 
stroke:#000000; stroke-width:0; stroke-opacity:1; 
stroke-linecap:round; stroke-linejoin:round;fill-rule:evenodd;"
d="M 107827,8618.54
108258,8618.54
108258,9049.25
107827,9049.25
Z" /> 
</g>
<g >
</g>
<g style="fill:#000000; fill-opacity:1.0; 
stroke:#000000; stroke-width:0; stroke-opacity:1; 
stroke-linecap:round; stroke-linejoin:round;">
<path style="fill:#000000; fill-opacity:1.0; 
stroke:#000000; stroke-width:0; stroke-opacity:1; 
stroke-linecap:round; stroke-linejoin:round;fill-rule:evenodd;"
d="M 108003,20067.9
108003,19637.2
108434,19637.2
108434,20067.9
Z" /> 
<path style="fill:#000000; fill-opacity:1.0; 
stroke:#000000; stroke-width:0; stroke-opacity:1; 
stroke-linecap:round; stroke-linejoin:round;fill-rule:evenodd;"
d="M 109106,20067.9
109106,19637.2
109536,19637.2
109536,20067.9
Z" /> 
</g>
<g >
</g>
<g style="fill:#000000; fill-opacity:1.0; 
stroke:#000000; stroke-width:0; stroke-opacity:1; 
stroke-linecap:round; stroke-linejoin:round;">
<path style="fill:#000000; fill-opacity:1.0; 
stroke:#000000; stroke-width:0; stroke-opacity:1; 
stroke-linecap:round; stroke-linejoin:round;fill-rule:evenodd;"
d="M 99692.5,11199.7
99692.5,11630.4
99261.8,11630.4
99261.8,11199.7
Z" /> 
<path style="fill:#000000; fill-opacity:1.0; 
stroke:#000000; stroke-width:0; stroke-opacity:1; 
stroke-linecap:round; stroke-linejoin:round;fill-rule:evenodd;"
d="M 98590.1,11199.7
98590.1,11630.4
98159.4,11630.4
98159.4,11199.7
Z" /> 
</g>
<g >
</g>
<g style="fill:#000000; fill-opacity:1.0; 
stroke:#000000; stroke-width:0; stroke-opacity:1; 
stroke-linecap:round; stroke-linejoin:round;">
<path style="fill:#000000; fill-opacity:1.0; 
stroke:#000000; stroke-width:0; stroke-opacity:1; 
stroke-linecap:round; stroke-linejoin:round;fill-rule:evenodd;"
d="M 97690.7,4013.3
97690.7,3582.59
98121.4,3582.59
98121.4,4013.3
Z" /> 
<path style="fill:#000000; fill-opacity:1.0; 
stroke:#000000; stroke-width:0; stroke-opacity:1; 
stroke-linecap:round; stroke-linejoin:round;fill-rule:evenodd;"
d="M 98793.1,4013.3
98793.1,3582.59
99223.8,3582.59
99223.8,4013.3
Z" /> 
</g>
<g >
</g>
<g style="fill:#000000; fill-opacity:1.0; 
stroke:#000000; stroke-width:0; stroke-opacity:1; 
stroke-linecap:round; stroke-linejoin:round;">
<path style="fill:#000000; fill-opacity:1.0; 
stroke:#000000; stroke-width:0; stroke-opacity:1; 
stroke-linecap:round; stroke-linejoin:round;fill-rule:evenodd;"
d="M 112691,34130.4
112691,33699.7
113121,33699.7
113121,34130.4
Z" /> 
<path style="fill:#000000; fill-opacity:1.0; 
stroke:#000000; stroke-width:0; stroke-opacity:1; 
stroke-linecap:round; stroke-linejoin:round;fill-rule:evenodd;"
d="M 113793,34130.4
113793,33699.7
114224,33699.7
114224,34130.4
Z" /> 
</g>
<g >
</g>
<g style="fill:#000000; fill-opacity:1.0; 
stroke:#000000; stroke-width:0; stroke-opacity:1; 
stroke-linecap:round; stroke-linejoin:round;">
<path style="fill:#000000; fill-opacity:1.0; 
stroke:#000000; stroke-width:0; stroke-opacity:1; 
stroke-linecap:round; stroke-linejoin:round;fill-rule:evenodd;"
d="M 91723.7,18699.7
91723.7,19130.4
91293,19130.4
91293,18699.7
Z" /> 
<path style="fill:#000000; fill-opacity:1.0; 
stroke:#000000; stroke-width:0; stroke-opacity:1; 
stroke-linecap:round; stroke-linejoin:round;fill-rule:evenodd;"
d="M 90621.4,18699.7
90621.4,19130.4
90190.6,19130.4
90190.6,18699.7
Z" /> 
</g>
<g >
</g>
<g style="fill:#000000; fill-opacity:1.0; 
stroke:#000000; stroke-width:0; stroke-opacity:1; 
stroke-linecap:round; stroke-linejoin:round;">
<path style="fill:#000000; fill-opacity:1.0; 
stroke:#000000; stroke-width:0; stroke-opacity:1; 
stroke-linecap:round; stroke-linejoin:round;fill-rule:evenodd;"
d="M 89848.7,11199.7
89848.7,11630.4
89418,11630.4
89418,11199.7
Z" /> 
<path style="fill:#000000; fill-opacity:1.0; 
stroke:#000000; stroke-width:0; stroke-opacity:1; 
stroke-linecap:round; stroke-linejoin:round;fill-rule:evenodd;"
d="M 88746.4,11199.7
88746.4,11630.4
88315.6,11630.4
88315.6,11199.7
Z" /> 
</g>
<g >
</g>
<g style="fill:#000000; fill-opacity:1.0; 
stroke:#000000; stroke-width:0; stroke-opacity:1; 
stroke-linecap:round; stroke-linejoin:round;">
<path style="fill:#000000; fill-opacity:1.0; 
stroke:#000000; stroke-width:0; stroke-opacity:1; 
stroke-linecap:round; stroke-linejoin:round;fill-rule:evenodd;"
d="M 90190.7,4013.3
90190.7,3582.59
90621.4,3582.59
90621.4,4013.3
Z" /> 
<path style="fill:#000000; fill-opacity:1.0; 
stroke:#000000; stroke-width:0; stroke-opacity:1; 
stroke-linecap:round; stroke-linejoin:round;fill-rule:evenodd;"
d="M 91293.1,4013.3
91293.1,3582.59
91723.8,3582.59
91723.8,4013.3
Z" /> 
</g>
<g >
</g>
<g style="fill:#000000; fill-opacity:1.0; 
stroke:#000000; stroke-width:0; stroke-opacity:1; 
stroke-linecap:round; stroke-linejoin:round;">
<path style="fill:#000000; fill-opacity:1.0; 
stroke:#000000; stroke-width:0; stroke-opacity:1; 
stroke-linecap:round; stroke-linejoin:round;fill-rule:evenodd;"
d="M 94878.1,26630.4
94878.1,26199.7
95308.9,26199.7
95308.9,26630.4
Z" /> 
<path style="fill:#000000; fill-opacity:1.0; 
stroke:#000000; stroke-width:0; stroke-opacity:1; 
stroke-linecap:round; stroke-linejoin:round;fill-rule:evenodd;"
d="M 95980.5,26630.4
95980.5,26199.7
96411.2,26199.7
96411.2,26630.4
Z" /> 
</g>
<g >
</g>
<g style="fill:#000000; fill-opacity:1.0; 
stroke:#000000; stroke-width:0; stroke-opacity:1; 
stroke-linecap:round; stroke-linejoin:round;">
<path style="fill:#000000; fill-opacity:1.0; 
stroke:#000000; stroke-width:0; stroke-opacity:1; 
stroke-linecap:round; stroke-linejoin:round;fill-rule:evenodd;"
d="M 84223.7,18699.7
84223.7,19130.4
83793,19130.4
83793,18699.7
Z" /> 
<path style="fill:#000000; fill-opacity:1.0; 
stroke:#000000; stroke-width:0; stroke-opacity:1; 
stroke-linecap:round; stroke-linejoin:round;fill-rule:evenodd;"
d="M 83121.4,18699.7
83121.4,19130.4
82690.6,19130.4
82690.6,18699.7
Z" /> 
</g>
<g >
</g>
<g style="fill:#000000; fill-opacity:1.0; 
stroke:#000000; stroke-width:0; stroke-opacity:1; 
stroke-linecap:round; stroke-linejoin:round;">
<path style="fill:#000000; fill-opacity:1.0; 
stroke:#000000; stroke-width:0; stroke-opacity:1; 
stroke-linecap:round; stroke-linejoin:round;fill-rule:evenodd;"
d="M 82348.7,11199.7
82348.7,11630.4
81918,11630.4
81918,11199.7
Z" /> 
<path style="fill:#000000; fill-opacity:1.0; 
stroke:#000000; stroke-width:0; stroke-opacity:1; 
stroke-linecap:round; stroke-linejoin:round;fill-rule:evenodd;"
d="M 81246.4,11199.7
81246.4,11630.4
80815.6,11630.4
80815.6,11199.7
Z" /> 
</g>
<g >
</g>
<g style="fill:#000000; fill-opacity:1.0; 
stroke:#000000; stroke-width:0; stroke-opacity:1; 
stroke-linecap:round; stroke-linejoin:round;">
<path style="fill:#000000; fill-opacity:1.0; 
stroke:#000000; stroke-width:0; stroke-opacity:1; 
stroke-linecap:round; stroke-linejoin:round;fill-rule:evenodd;"
d="M 82690.7,4013.3
82690.7,3582.59
83121.4,3582.59
83121.4,4013.3
Z" /> 
<path style="fill:#000000; fill-opacity:1.0; 
stroke:#000000; stroke-width:0; stroke-opacity:1; 
stroke-linecap:round; stroke-linejoin:round;fill-rule:evenodd;"
d="M 83793.1,4013.3
83793.1,3582.59
84223.8,3582.59
84223.8,4013.3
Z" /> 
</g>
<g >
</g>
<g style="fill:#000000; fill-opacity:1.0; 
stroke:#000000; stroke-width:0; stroke-opacity:1; 
stroke-linecap:round; stroke-linejoin:round;">
<path style="fill:#000000; fill-opacity:1.0; 
stroke:#000000; stroke-width:0; stroke-opacity:1; 
stroke-linecap:round; stroke-linejoin:round;fill-rule:evenodd;"
d="M 84565.6,26630.4
84565.6,26199.7
84996.4,26199.7
84996.4,26630.4
Z" /> 
<path style="fill:#000000; fill-opacity:1.0; 
stroke:#000000; stroke-width:0; stroke-opacity:1; 
stroke-linecap:round; stroke-linejoin:round;fill-rule:evenodd;"
d="M 85668,26630.4
85668,26199.7
86098.7,26199.7
86098.7,26630.4
Z" /> 
</g>
<g >
</g>
<g style="fill:#000000; fill-opacity:1.0; 
stroke:#000000; stroke-width:0; stroke-opacity:1; 
stroke-linecap:round; stroke-linejoin:round;">
<path style="fill:#000000; fill-opacity:1.0; 
stroke:#000000; stroke-width:0; stroke-opacity:1; 
stroke-linecap:round; stroke-linejoin:round;fill-rule:evenodd;"
d="M 76723.7,18699.7
76723.7,19130.4
76293,19130.4
76293,18699.7
Z" /> 
<path style="fill:#000000; fill-opacity:1.0; 
stroke:#000000; stroke-width:0; stroke-opacity:1; 
stroke-linecap:round; stroke-linejoin:round;fill-rule:evenodd;"
d="M 75621.4,18699.7
75621.4,19130.4
75190.6,19130.4
75190.6,18699.7
Z" /> 
</g>
<g >
</g>
<g style="fill:#000000; fill-opacity:1.0; 
stroke:#000000; stroke-width:0; stroke-opacity:1; 
stroke-linecap:round; stroke-linejoin:round;">
<path style="fill:#000000; fill-opacity:1.0; 
stroke:#000000; stroke-width:0; stroke-opacity:1; 
stroke-linecap:round; stroke-linejoin:round;fill-rule:evenodd;"
d="M 74848.7,11199.7
74848.7,11630.4
74418,11630.4
74418,11199.7
Z" /> 
<path style="fill:#000000; fill-opacity:1.0; 
stroke:#000000; stroke-width:0; stroke-opacity:1; 
stroke-linecap:round; stroke-linejoin:round;fill-rule:evenodd;"
d="M 73746.4,11199.7
73746.4,11630.4
73315.6,11630.4
73315.6,11199.7
Z" /> 
</g>
<g >
</g>
<g style="fill:#000000; fill-opacity:1.0; 
stroke:#000000; stroke-width:0; stroke-opacity:1; 
stroke-linecap:round; stroke-linejoin:round;">
<path style="fill:#000000; fill-opacity:1.0; 
stroke:#000000; stroke-width:0; stroke-opacity:1; 
stroke-linecap:round; stroke-linejoin:round;fill-rule:evenodd;"
d="M 75190.6,4130.42
75190.6,3699.71
75621.4,3699.71
75621.4,4130.42
Z" /> 
<path style="fill:#000000; fill-opacity:1.0; 
stroke:#000000; stroke-width:0; stroke-opacity:1; 
stroke-linecap:round; stroke-linejoin:round;fill-rule:evenodd;"
d="M 76293,4130.42
76293,3699.71
76723.7,3699.71
76723.7,4130.42
Z" /> 
</g>
<g >
</g>
<g style="fill:#000000; fill-opacity:1.0; 
stroke:#000000; stroke-width:0; stroke-opacity:1; 
stroke-linecap:round; stroke-linejoin:round;">
<path style="fill:#000000; fill-opacity:1.0; 
stroke:#000000; stroke-width:0; stroke-opacity:1; 
stroke-linecap:round; stroke-linejoin:round;fill-rule:evenodd;"
d="M 77065.6,26630.4
77065.6,26199.7
77496.4,26199.7
77496.4,26630.4
Z" /> 
<path style="fill:#000000; fill-opacity:1.0; 
stroke:#000000; stroke-width:0; stroke-opacity:1; 
stroke-linecap:round; stroke-linejoin:round;fill-rule:evenodd;"
d="M 78168,26630.4
78168,26199.7
78598.7,26199.7
78598.7,26630.4
Z" /> 
</g>
<g >
</g>
<g style="fill:#000000; fill-opacity:1.0; 
stroke:#000000; stroke-width:0; stroke-opacity:1; 
stroke-linecap:round; stroke-linejoin:round;">
<path style="fill:#000000; fill-opacity:1.0; 
stroke:#000000; stroke-width:0; stroke-opacity:1; 
stroke-linecap:round; stroke-linejoin:round;fill-rule:evenodd;"
d="M 69223.7,18699.7
69223.7,19130.4
68793,19130.4
68793,18699.7
Z" /> 
<path style="fill:#000000; fill-opacity:1.0; 
stroke:#000000; stroke-width:0; stroke-opacity:1; 
stroke-linecap:round; stroke-linejoin:round;fill-rule:evenodd;"
d="M 68121.4,18699.7
68121.4,19130.4
67690.6,19130.4
67690.6,18699.7
Z" /> 
</g>
<g >
</g>
<g style="fill:#000000; fill-opacity:1.0; 
stroke:#000000; stroke-width:0; stroke-opacity:1; 
stroke-linecap:round; stroke-linejoin:round;">
<path style="fill:#000000; fill-opacity:1.0; 
stroke:#000000; stroke-width:0; stroke-opacity:1; 
stroke-linecap:round; stroke-linejoin:round;fill-rule:evenodd;"
d="M 67348.7,11199.7
67348.7,11630.4
66918,11630.4
66918,11199.7
Z" /> 
<path style="fill:#000000; fill-opacity:1.0; 
stroke:#000000; stroke-width:0; stroke-opacity:1; 
stroke-linecap:round; stroke-linejoin:round;fill-rule:evenodd;"
d="M 66246.4,11199.7
66246.4,11630.4
65815.6,11630.4
65815.6,11199.7
Z" /> 
</g>
<g >
</g>
<g style="fill:#000000; fill-opacity:1.0; 
stroke:#000000; stroke-width:0; stroke-opacity:1; 
stroke-linecap:round; stroke-linejoin:round;">
<path style="fill:#000000; fill-opacity:1.0; 
stroke:#000000; stroke-width:0; stroke-opacity:1; 
stroke-linecap:round; stroke-linejoin:round;fill-rule:evenodd;"
d="M 67690.6,4130.42
67690.6,3699.71
68121.4,3699.71
68121.4,4130.42
Z" /> 
<path style="fill:#000000; fill-opacity:1.0; 
stroke:#000000; stroke-width:0; stroke-opacity:1; 
stroke-linecap:round; stroke-linejoin:round;fill-rule:evenodd;"
d="M 68793,4130.42
68793,3699.71
69223.7,3699.71
69223.7,4130.42
Z" /> 
</g>
<g >
</g>
<g style="fill:#000000; fill-opacity:1.0; 
stroke:#000000; stroke-width:0; stroke-opacity:1; 
stroke-linecap:round; stroke-linejoin:round;">
<path style="fill:#000000; fill-opacity:1.0; 
stroke:#000000; stroke-width:0; stroke-opacity:1; 
stroke-linecap:round; stroke-linejoin:round;fill-rule:evenodd;"
d="M 105191,34130.4
105191,33699.7
105621,33699.7
105621,34130.4
Z" /> 
<path style="fill:#000000; fill-opacity:1.0; 
stroke:#000000; stroke-width:0; stroke-opacity:1; 
stroke-linecap:round; stroke-linejoin:round;fill-rule:evenodd;"
d="M 106293,34130.4
106293,33699.7
106724,33699.7
106724,34130.4
Z" /> 
</g>
<g >
</g>
<g style="fill:#000000; fill-opacity:1.0; 
stroke:#000000; stroke-width:0; stroke-opacity:1; 
stroke-linecap:round; stroke-linejoin:round;">
<path style="fill:#000000; fill-opacity:1.0; 
stroke:#000000; stroke-width:0; stroke-opacity:1; 
stroke-linecap:round; stroke-linejoin:round;fill-rule:evenodd;"
d="M 67817.5,26199.7
67817.5,26630.4
67386.8,26630.4
67386.8,26199.7
Z" /> 
<path style="fill:#000000; fill-opacity:1.0; 
stroke:#000000; stroke-width:0; stroke-opacity:1; 
stroke-linecap:round; stroke-linejoin:round;fill-rule:evenodd;"
d="M 66715.1,26199.7
66715.1,26630.4
66284.4,26630.4
66284.4,26199.7
Z" /> 
</g>
<g >
</g>
<g style="fill:#000000; fill-opacity:1.0; 
stroke:#000000; stroke-width:0; stroke-opacity:1; 
stroke-linecap:round; stroke-linejoin:round;">
<path style="fill:#000000; fill-opacity:1.0; 
stroke:#000000; stroke-width:0; stroke-opacity:1; 
stroke-linecap:round; stroke-linejoin:round;fill-rule:evenodd;"
d="M 61723.7,18699.7
61723.7,19130.4
61293,19130.4
61293,18699.7
Z" /> 
<path style="fill:#000000; fill-opacity:1.0; 
stroke:#000000; stroke-width:0; stroke-opacity:1; 
stroke-linecap:round; stroke-linejoin:round;fill-rule:evenodd;"
d="M 60621.4,18699.7
60621.4,19130.4
60190.7,19130.4
60190.7,18699.7
Z" /> 
</g>
<g >
</g>
<g style="fill:#000000; fill-opacity:1.0; 
stroke:#000000; stroke-width:0; stroke-opacity:1; 
stroke-linecap:round; stroke-linejoin:round;">
<path style="fill:#000000; fill-opacity:1.0; 
stroke:#000000; stroke-width:0; stroke-opacity:1; 
stroke-linecap:round; stroke-linejoin:round;fill-rule:evenodd;"
d="M 59848.7,11199.7
59848.7,11630.4
59418,11630.4
59418,11199.7
Z" /> 
<path style="fill:#000000; fill-opacity:1.0; 
stroke:#000000; stroke-width:0; stroke-opacity:1; 
stroke-linecap:round; stroke-linejoin:round;fill-rule:evenodd;"
d="M 58746.4,11199.7
58746.4,11630.4
58315.7,11630.4
58315.7,11199.7
Z" /> 
</g>
<g >
</g>
<g style="fill:#000000; fill-opacity:1.0; 
stroke:#000000; stroke-width:0; stroke-opacity:1; 
stroke-linecap:round; stroke-linejoin:round;">
<path style="fill:#000000; fill-opacity:1.0; 
stroke:#000000; stroke-width:0; stroke-opacity:1; 
stroke-linecap:round; stroke-linejoin:round;fill-rule:evenodd;"
d="M 60190.7,4130.42
60190.7,3699.71
60621.4,3699.71
60621.4,4130.42
Z" /> 
<path style="fill:#000000; fill-opacity:1.0; 
stroke:#000000; stroke-width:0; stroke-opacity:1; 
stroke-linecap:round; stroke-linejoin:round;fill-rule:evenodd;"
d="M 61293,4130.42
61293,3699.71
61723.7,3699.71
61723.7,4130.42
Z" /> 
</g>
<g >
</g>
<g style="fill:#000000; fill-opacity:1.0; 
stroke:#000000; stroke-width:0; stroke-opacity:1; 
stroke-linecap:round; stroke-linejoin:round;">
<path style="fill:#000000; fill-opacity:1.0; 
stroke:#000000; stroke-width:0; stroke-opacity:1; 
stroke-linecap:round; stroke-linejoin:round;fill-rule:evenodd;"
d="M 96042.1,33699.7
96042.1,34130.4
95611.4,34130.4
95611.4,33699.7
Z" /> 
<path style="fill:#000000; fill-opacity:1.0; 
stroke:#000000; stroke-width:0; stroke-opacity:1; 
stroke-linecap:round; stroke-linejoin:round;fill-rule:evenodd;"
d="M 94939.8,33699.7
94939.8,34130.4
94509.1,34130.4
94509.1,33699.7
Z" /> 
</g>
<g >
</g>
<g style="fill:#000000; fill-opacity:1.0; 
stroke:#000000; stroke-width:0; stroke-opacity:1; 
stroke-linecap:round; stroke-linejoin:round;">
<path style="fill:#000000; fill-opacity:1.0; 
stroke:#000000; stroke-width:0; stroke-opacity:1; 
stroke-linecap:round; stroke-linejoin:round;fill-rule:evenodd;"
d="M 60417.1,26199.7
60417.1,26630.4
59986.4,26630.4
59986.4,26199.7
Z" /> 
<path style="fill:#000000; fill-opacity:1.0; 
stroke:#000000; stroke-width:0; stroke-opacity:1; 
stroke-linecap:round; stroke-linejoin:round;fill-rule:evenodd;"
d="M 59314.8,26199.7
59314.8,26630.4
58884.1,26630.4
58884.1,26199.7
Z" /> 
</g>
<g >
</g>
<g style="fill:#000000; fill-opacity:1.0; 
stroke:#000000; stroke-width:0; stroke-opacity:1; 
stroke-linecap:round; stroke-linejoin:round;">
<path style="fill:#000000; fill-opacity:1.0; 
stroke:#000000; stroke-width:0; stroke-opacity:1; 
stroke-linecap:round; stroke-linejoin:round;fill-rule:evenodd;"
d="M 54223.7,18699.7
54223.7,19130.4
53793,19130.4
53793,18699.7
Z" /> 
<path style="fill:#000000; fill-opacity:1.0; 
stroke:#000000; stroke-width:0; stroke-opacity:1; 
stroke-linecap:round; stroke-linejoin:round;fill-rule:evenodd;"
d="M 53121.4,18699.7
53121.4,19130.4
52690.7,19130.4
52690.7,18699.7
Z" /> 
</g>
<g >
</g>
<g style="fill:#000000; fill-opacity:1.0; 
stroke:#000000; stroke-width:0; stroke-opacity:1; 
stroke-linecap:round; stroke-linejoin:round;">
<path style="fill:#000000; fill-opacity:1.0; 
stroke:#000000; stroke-width:0; stroke-opacity:1; 
stroke-linecap:round; stroke-linejoin:round;fill-rule:evenodd;"
d="M 52348.7,11199.7
52348.7,11630.4
51918,11630.4
51918,11199.7
Z" /> 
<path style="fill:#000000; fill-opacity:1.0; 
stroke:#000000; stroke-width:0; stroke-opacity:1; 
stroke-linecap:round; stroke-linejoin:round;fill-rule:evenodd;"
d="M 51246.4,11199.7
51246.4,11630.4
50815.7,11630.4
50815.7,11199.7
Z" /> 
</g>
<g >
</g>
<g style="fill:#000000; fill-opacity:1.0; 
stroke:#000000; stroke-width:0; stroke-opacity:1; 
stroke-linecap:round; stroke-linejoin:round;">
<path style="fill:#000000; fill-opacity:1.0; 
stroke:#000000; stroke-width:0; stroke-opacity:1; 
stroke-linecap:round; stroke-linejoin:round;fill-rule:evenodd;"
d="M 52690.7,4130.42
52690.7,3699.71
53121.4,3699.71
53121.4,4130.42
Z" /> 
<path style="fill:#000000; fill-opacity:1.0; 
stroke:#000000; stroke-width:0; stroke-opacity:1; 
stroke-linecap:round; stroke-linejoin:round;fill-rule:evenodd;"
d="M 53793,4130.42
53793,3699.71
54223.7,3699.71
54223.7,4130.42
Z" /> 
</g>
<g >
</g>
<g style="fill:#000000; fill-opacity:1.0; 
stroke:#000000; stroke-width:0; stroke-opacity:1; 
stroke-linecap:round; stroke-linejoin:round;">
<path style="fill:#000000; fill-opacity:1.0; 
stroke:#000000; stroke-width:0; stroke-opacity:1; 
stroke-linecap:round; stroke-linejoin:round;fill-rule:evenodd;"
d="M 86098.7,33699.7
86098.7,34130.4
85668,34130.4
85668,33699.7
Z" /> 
<path style="fill:#000000; fill-opacity:1.0; 
stroke:#000000; stroke-width:0; stroke-opacity:1; 
stroke-linecap:round; stroke-linejoin:round;fill-rule:evenodd;"
d="M 84996.4,33699.7
84996.4,34130.4
84565.6,34130.4
84565.6,33699.7
Z" /> 
</g>
<g >
</g>
<g style="fill:#000000; fill-opacity:1.0; 
stroke:#000000; stroke-width:0; stroke-opacity:1; 
stroke-linecap:round; stroke-linejoin:round;">
<path style="fill:#000000; fill-opacity:1.0; 
stroke:#000000; stroke-width:0; stroke-opacity:1; 
stroke-linecap:round; stroke-linejoin:round;fill-rule:evenodd;"
d="M 52917.1,26199.7
52917.1,26630.4
52486.4,26630.4
52486.4,26199.7
Z" /> 
<path style="fill:#000000; fill-opacity:1.0; 
stroke:#000000; stroke-width:0; stroke-opacity:1; 
stroke-linecap:round; stroke-linejoin:round;fill-rule:evenodd;"
d="M 51814.8,26199.7
51814.8,26630.4
51384.1,26630.4
51384.1,26199.7
Z" /> 
</g>
<g >
</g>
<g style="fill:#000000; fill-opacity:1.0; 
stroke:#000000; stroke-width:0; stroke-opacity:1; 
stroke-linecap:round; stroke-linejoin:round;">
<path style="fill:#000000; fill-opacity:1.0; 
stroke:#000000; stroke-width:0; stroke-opacity:1; 
stroke-linecap:round; stroke-linejoin:round;fill-rule:evenodd;"
d="M 46723.7,18699.7
46723.7,19130.4
46293,19130.4
46293,18699.7
Z" /> 
<path style="fill:#000000; fill-opacity:1.0; 
stroke:#000000; stroke-width:0; stroke-opacity:1; 
stroke-linecap:round; stroke-linejoin:round;fill-rule:evenodd;"
d="M 45621.4,18699.7
45621.4,19130.4
45190.7,19130.4
45190.7,18699.7
Z" /> 
</g>
<g >
</g>
<g style="fill:#000000; fill-opacity:1.0; 
stroke:#000000; stroke-width:0; stroke-opacity:1; 
stroke-linecap:round; stroke-linejoin:round;">
<path style="fill:#000000; fill-opacity:1.0; 
stroke:#000000; stroke-width:0; stroke-opacity:1; 
stroke-linecap:round; stroke-linejoin:round;fill-rule:evenodd;"
d="M 44848.7,11199.7
44848.7,11630.4
44418,11630.4
44418,11199.7
Z" /> 
<path style="fill:#000000; fill-opacity:1.0; 
stroke:#000000; stroke-width:0; stroke-opacity:1; 
stroke-linecap:round; stroke-linejoin:round;fill-rule:evenodd;"
d="M 43746.4,11199.7
43746.4,11630.4
43315.7,11630.4
43315.7,11199.7
Z" /> 
</g>
<g >
</g>
<g style="fill:#000000; fill-opacity:1.0; 
stroke:#000000; stroke-width:0; stroke-opacity:1; 
stroke-linecap:round; stroke-linejoin:round;">
<path style="fill:#000000; fill-opacity:1.0; 
stroke:#000000; stroke-width:0; stroke-opacity:1; 
stroke-linecap:round; stroke-linejoin:round;fill-rule:evenodd;"
d="M 45190.7,4130.42
45190.7,3699.71
45621.4,3699.71
45621.4,4130.42
Z" /> 
<path style="fill:#000000; fill-opacity:1.0; 
stroke:#000000; stroke-width:0; stroke-opacity:1; 
stroke-linecap:round; stroke-linejoin:round;fill-rule:evenodd;"
d="M 46293,4130.42
46293,3699.71
46723.7,3699.71
46723.7,4130.42
Z" /> 
</g>
<g >
</g>
<g style="fill:#000000; fill-opacity:1.0; 
stroke:#000000; stroke-width:0; stroke-opacity:1; 
stroke-linecap:round; stroke-linejoin:round;">
<path style="fill:#000000; fill-opacity:1.0; 
stroke:#000000; stroke-width:0; stroke-opacity:1; 
stroke-linecap:round; stroke-linejoin:round;fill-rule:evenodd;"
d="M 79694.7,33682.5
79694.7,34113.2
79264,34113.2
79264,33682.5
Z" /> 
<path style="fill:#000000; fill-opacity:1.0; 
stroke:#000000; stroke-width:0; stroke-opacity:1; 
stroke-linecap:round; stroke-linejoin:round;fill-rule:evenodd;"
d="M 78592.3,33682.5
78592.3,34113.2
78161.6,34113.2
78161.6,33682.5
Z" /> 
</g>
<g >
</g>
<g style="fill:#000000; fill-opacity:1.0; 
stroke:#000000; stroke-width:0; stroke-opacity:1; 
stroke-linecap:round; stroke-linejoin:round;">
<path style="fill:#000000; fill-opacity:1.0; 
stroke:#000000; stroke-width:0; stroke-opacity:1; 
stroke-linecap:round; stroke-linejoin:round;fill-rule:evenodd;"
d="M 45217.8,26199.7
45217.8,26630.4
44787.1,26630.4
44787.1,26199.7
Z" /> 
<path style="fill:#000000; fill-opacity:1.0; 
stroke:#000000; stroke-width:0; stroke-opacity:1; 
stroke-linecap:round; stroke-linejoin:round;fill-rule:evenodd;"
d="M 44115.5,26199.7
44115.5,26630.4
43684.7,26630.4
43684.7,26199.7
Z" /> 
</g>
<g >
</g>
<g style="fill:#000000; fill-opacity:1.0; 
stroke:#000000; stroke-width:0; stroke-opacity:1; 
stroke-linecap:round; stroke-linejoin:round;">
<path style="fill:#000000; fill-opacity:1.0; 
stroke:#000000; stroke-width:0; stroke-opacity:1; 
stroke-linecap:round; stroke-linejoin:round;fill-rule:evenodd;"
d="M 39223.7,18699.7
39223.7,19130.4
38793,19130.4
38793,18699.7
Z" /> 
<path style="fill:#000000; fill-opacity:1.0; 
stroke:#000000; stroke-width:0; stroke-opacity:1; 
stroke-linecap:round; stroke-linejoin:round;fill-rule:evenodd;"
d="M 38121.4,18699.7
38121.4,19130.4
37690.7,19130.4
37690.7,18699.7
Z" /> 
</g>
<g >
</g>
<g style="fill:#000000; fill-opacity:1.0; 
stroke:#000000; stroke-width:0; stroke-opacity:1; 
stroke-linecap:round; stroke-linejoin:round;">
<path style="fill:#000000; fill-opacity:1.0; 
stroke:#000000; stroke-width:0; stroke-opacity:1; 
stroke-linecap:round; stroke-linejoin:round;fill-rule:evenodd;"
d="M 37348.7,11199.7
37348.7,11630.4
36918,11630.4
36918,11199.7
Z" /> 
<path style="fill:#000000; fill-opacity:1.0; 
stroke:#000000; stroke-width:0; stroke-opacity:1; 
stroke-linecap:round; stroke-linejoin:round;fill-rule:evenodd;"
d="M 36246.4,11199.7
36246.4,11630.4
35815.7,11630.4
35815.7,11199.7
Z" /> 
</g>
<g >
</g>
<g style="fill:#000000; fill-opacity:1.0; 
stroke:#000000; stroke-width:0; stroke-opacity:1; 
stroke-linecap:round; stroke-linejoin:round;">
<path style="fill:#000000; fill-opacity:1.0; 
stroke:#000000; stroke-width:0; stroke-opacity:1; 
stroke-linecap:round; stroke-linejoin:round;fill-rule:evenodd;"
d="M 37690.7,4130.42
37690.7,3699.71
38121.4,3699.71
38121.4,4130.42
Z" /> 
<path style="fill:#000000; fill-opacity:1.0; 
stroke:#000000; stroke-width:0; stroke-opacity:1; 
stroke-linecap:round; stroke-linejoin:round;fill-rule:evenodd;"
d="M 38793,4130.42
38793,3699.71
39223.7,3699.71
39223.7,4130.42
Z" /> 
</g>
<g >
</g>
<g style="fill:#000000; fill-opacity:1.0; 
stroke:#000000; stroke-width:0; stroke-opacity:1; 
stroke-linecap:round; stroke-linejoin:round;">
<path style="fill:#000000; fill-opacity:1.0; 
stroke:#000000; stroke-width:0; stroke-opacity:1; 
stroke-linecap:round; stroke-linejoin:round;fill-rule:evenodd;"
d="M 53637.9,33817
53637.9,34247.7
53207.2,34247.7
53207.2,33817
Z" /> 
<path style="fill:#000000; fill-opacity:1.0; 
stroke:#000000; stroke-width:0; stroke-opacity:1; 
stroke-linecap:round; stroke-linejoin:round;fill-rule:evenodd;"
d="M 52535.6,33817
52535.6,34247.7
52104.9,34247.7
52104.9,33817
Z" /> 
</g>
<g >
</g>
<g style="fill:#000000; fill-opacity:1.0; 
stroke:#000000; stroke-width:0; stroke-opacity:1; 
stroke-linecap:round; stroke-linejoin:round;">
<path style="fill:#000000; fill-opacity:1.0; 
stroke:#000000; stroke-width:0; stroke-opacity:1; 
stroke-linecap:round; stroke-linejoin:round;fill-rule:evenodd;"
d="M 37717.8,26199.7
37717.8,26630.4
37287.1,26630.4
37287.1,26199.7
Z" /> 
<path style="fill:#000000; fill-opacity:1.0; 
stroke:#000000; stroke-width:0; stroke-opacity:1; 
stroke-linecap:round; stroke-linejoin:round;fill-rule:evenodd;"
d="M 36615.5,26199.7
36615.5,26630.4
36184.7,26630.4
36184.7,26199.7
Z" /> 
</g>
<g >
</g>
<g style="fill:#000000; fill-opacity:1.0; 
stroke:#000000; stroke-width:0; stroke-opacity:1; 
stroke-linecap:round; stroke-linejoin:round;">
<path style="fill:#000000; fill-opacity:1.0; 
stroke:#000000; stroke-width:0; stroke-opacity:1; 
stroke-linecap:round; stroke-linejoin:round;fill-rule:evenodd;"
d="M 31723.7,18699.7
31723.7,19130.4
31293,19130.4
31293,18699.7
Z" /> 
<path style="fill:#000000; fill-opacity:1.0; 
stroke:#000000; stroke-width:0; stroke-opacity:1; 
stroke-linecap:round; stroke-linejoin:round;fill-rule:evenodd;"
d="M 30621.4,18699.7
30621.4,19130.4
30190.6,19130.4
30190.6,18699.7
Z" /> 
</g>
<g >
</g>
<g style="fill:#000000; fill-opacity:1.0; 
stroke:#000000; stroke-width:0; stroke-opacity:1; 
stroke-linecap:round; stroke-linejoin:round;">
<path style="fill:#000000; fill-opacity:1.0; 
stroke:#000000; stroke-width:0; stroke-opacity:1; 
stroke-linecap:round; stroke-linejoin:round;fill-rule:evenodd;"
d="M 29848.7,11199.7
29848.7,11630.4
29418,11630.4
29418,11199.7
Z" /> 
<path style="fill:#000000; fill-opacity:1.0; 
stroke:#000000; stroke-width:0; stroke-opacity:1; 
stroke-linecap:round; stroke-linejoin:round;fill-rule:evenodd;"
d="M 28746.4,11199.7
28746.4,11630.4
28315.6,11630.4
28315.6,11199.7
Z" /> 
</g>
<g >
</g>
<g style="fill:#000000; fill-opacity:1.0; 
stroke:#000000; stroke-width:0; stroke-opacity:1; 
stroke-linecap:round; stroke-linejoin:round;">
<path style="fill:#000000; fill-opacity:1.0; 
stroke:#000000; stroke-width:0; stroke-opacity:1; 
stroke-linecap:round; stroke-linejoin:round;fill-rule:evenodd;"
d="M 30190.6,4130.42
30190.6,3699.71
30621.4,3699.71
30621.4,4130.42
Z" /> 
<path style="fill:#000000; fill-opacity:1.0; 
stroke:#000000; stroke-width:0; stroke-opacity:1; 
stroke-linecap:round; stroke-linejoin:round;fill-rule:evenodd;"
d="M 31293,4130.42
31293,3699.71
31723.7,3699.71
31723.7,4130.42
Z" /> 
</g>
<g >
</g>
<g style="fill:#000000; fill-opacity:1.0; 
stroke:#000000; stroke-width:0; stroke-opacity:1; 
stroke-linecap:round; stroke-linejoin:round;">
<path style="fill:#000000; fill-opacity:1.0; 
stroke:#000000; stroke-width:0; stroke-opacity:1; 
stroke-linecap:round; stroke-linejoin:round;fill-rule:evenodd;"
d="M 25630,33699.7
25630,34130.4
25199.3,34130.4
25199.3,33699.7
Z" /> 
<path style="fill:#000000; fill-opacity:1.0; 
stroke:#000000; stroke-width:0; stroke-opacity:1; 
stroke-linecap:round; stroke-linejoin:round;fill-rule:evenodd;"
d="M 24527.6,33699.7
24527.6,34130.4
24096.9,34130.4
24096.9,33699.7
Z" /> 
</g>
<g >
</g>
<g style="fill:#000000; fill-opacity:1.0; 
stroke:#000000; stroke-width:0; stroke-opacity:1; 
stroke-linecap:round; stroke-linejoin:round;">
<path style="fill:#000000; fill-opacity:1.0; 
stroke:#000000; stroke-width:0; stroke-opacity:1; 
stroke-linecap:round; stroke-linejoin:round;fill-rule:evenodd;"
d="M 30317.5,26199.7
30317.5,26630.4
29886.8,26630.4
29886.8,26199.7
Z" /> 
<path style="fill:#000000; fill-opacity:1.0; 
stroke:#000000; stroke-width:0; stroke-opacity:1; 
stroke-linecap:round; stroke-linejoin:round;fill-rule:evenodd;"
d="M 29215.1,26199.7
29215.1,26630.4
28784.4,26630.4
28784.4,26199.7
Z" /> 
</g>
<g >
</g>
<g style="fill:#000000; fill-opacity:1.0; 
stroke:#000000; stroke-width:0; stroke-opacity:1; 
stroke-linecap:round; stroke-linejoin:round;">
<path style="fill:#000000; fill-opacity:1.0; 
stroke:#000000; stroke-width:0; stroke-opacity:1; 
stroke-linecap:round; stroke-linejoin:round;fill-rule:evenodd;"
d="M 24223.7,18699.7
24223.7,19130.4
23793,19130.4
23793,18699.7
Z" /> 
<path style="fill:#000000; fill-opacity:1.0; 
stroke:#000000; stroke-width:0; stroke-opacity:1; 
stroke-linecap:round; stroke-linejoin:round;fill-rule:evenodd;"
d="M 23121.4,18699.7
23121.4,19130.4
22690.7,19130.4
22690.7,18699.7
Z" /> 
</g>
<g >
</g>
<g style="fill:#000000; fill-opacity:1.0; 
stroke:#000000; stroke-width:0; stroke-opacity:1; 
stroke-linecap:round; stroke-linejoin:round;">
<path style="fill:#000000; fill-opacity:1.0; 
stroke:#000000; stroke-width:0; stroke-opacity:1; 
stroke-linecap:round; stroke-linejoin:round;fill-rule:evenodd;"
d="M 23686.8,12009.3
23686.8,12440
23256.1,12440
23256.1,12009.3
Z" /> 
<path style="fill:#000000; fill-opacity:1.0; 
stroke:#000000; stroke-width:0; stroke-opacity:1; 
stroke-linecap:round; stroke-linejoin:round;fill-rule:evenodd;"
d="M 22584.4,12009.3
22584.4,12440
22153.7,12440
22153.7,12009.3
Z" /> 
</g>
<g >
</g>
<g style="fill:#000000; fill-opacity:1.0; 
stroke:#000000; stroke-width:0; stroke-opacity:1; 
stroke-linecap:round; stroke-linejoin:round;">
<path style="fill:#000000; fill-opacity:1.0; 
stroke:#000000; stroke-width:0; stroke-opacity:1; 
stroke-linecap:round; stroke-linejoin:round;fill-rule:evenodd;"
d="M 22690.7,4130.42
22690.7,3699.71
23121.4,3699.71
23121.4,4130.42
Z" /> 
<path style="fill:#000000; fill-opacity:1.0; 
stroke:#000000; stroke-width:0; stroke-opacity:1; 
stroke-linecap:round; stroke-linejoin:round;fill-rule:evenodd;"
d="M 23793,4130.42
23793,3699.71
24223.7,3699.71
24223.7,4130.42
Z" /> 
</g>
<g >
</g>
<g style="fill:#000000; fill-opacity:1.0; 
stroke:#000000; stroke-width:0; stroke-opacity:1; 
stroke-linecap:round; stroke-linejoin:round;">
<path style="fill:#000000; fill-opacity:1.0; 
stroke:#000000; stroke-width:0; stroke-opacity:1; 
stroke-linecap:round; stroke-linejoin:round;fill-rule:evenodd;"
d="M 18003.2,34130.4
18003.2,33699.7
18433.9,33699.7
18433.9,34130.4
Z" /> 
<path style="fill:#000000; fill-opacity:1.0; 
stroke:#000000; stroke-width:0; stroke-opacity:1; 
stroke-linecap:round; stroke-linejoin:round;fill-rule:evenodd;"
d="M 19105.5,34130.4
19105.5,33699.7
19536.2,33699.7
19536.2,34130.4
Z" /> 
</g>
<g >
</g>
<g style="fill:#000000; fill-opacity:1.0; 
stroke:#000000; stroke-width:0; stroke-opacity:1; 
stroke-linecap:round; stroke-linejoin:round;">
<path style="fill:#000000; fill-opacity:1.0; 
stroke:#000000; stroke-width:0; stroke-opacity:1; 
stroke-linecap:round; stroke-linejoin:round;fill-rule:evenodd;"
d="M 24565.7,26630.4
24565.7,26199.7
24996.4,26199.7
24996.4,26630.4
Z" /> 
<path style="fill:#000000; fill-opacity:1.0; 
stroke:#000000; stroke-width:0; stroke-opacity:1; 
stroke-linecap:round; stroke-linejoin:round;fill-rule:evenodd;"
d="M 25668,26630.4
25668,26199.7
26098.7,26199.7
26098.7,26630.4
Z" /> 
</g>
<g >
</g>
<g style="fill:#000000; fill-opacity:1.0; 
stroke:#000000; stroke-width:0; stroke-opacity:1; 
stroke-linecap:round; stroke-linejoin:round;">
<path style="fill:#000000; fill-opacity:1.0; 
stroke:#000000; stroke-width:0; stroke-opacity:1; 
stroke-linecap:round; stroke-linejoin:round;fill-rule:evenodd;"
d="M 16723.7,18699.7
16723.7,19130.4
16293,19130.4
16293,18699.7
Z" /> 
<path style="fill:#000000; fill-opacity:1.0; 
stroke:#000000; stroke-width:0; stroke-opacity:1; 
stroke-linecap:round; stroke-linejoin:round;fill-rule:evenodd;"
d="M 15621.4,18699.7
15621.4,19130.4
15190.6,19130.4
15190.6,18699.7
Z" /> 
</g>
<g >
</g>
<g style="fill:#000000; fill-opacity:1.0; 
stroke:#000000; stroke-width:0; stroke-opacity:1; 
stroke-linecap:round; stroke-linejoin:round;">
<path style="fill:#000000; fill-opacity:1.0; 
stroke:#000000; stroke-width:0; stroke-opacity:1; 
stroke-linecap:round; stroke-linejoin:round;fill-rule:evenodd;"
d="M 14848.7,11199.7
14848.7,11630.4
14418,11630.4
14418,11199.7
Z" /> 
<path style="fill:#000000; fill-opacity:1.0; 
stroke:#000000; stroke-width:0; stroke-opacity:1; 
stroke-linecap:round; stroke-linejoin:round;fill-rule:evenodd;"
d="M 13746.4,11199.7
13746.4,11630.4
13315.6,11630.4
13315.6,11199.7
Z" /> 
</g>
<g >
</g>
<g style="fill:#000000; fill-opacity:1.0; 
stroke:#000000; stroke-width:0; stroke-opacity:1; 
stroke-linecap:round; stroke-linejoin:round;">
<path style="fill:#000000; fill-opacity:1.0; 
stroke:#000000; stroke-width:0; stroke-opacity:1; 
stroke-linecap:round; stroke-linejoin:round;fill-rule:evenodd;"
d="M 15190.6,4130.42
15190.6,3699.71
15621.4,3699.71
15621.4,4130.42
Z" /> 
<path style="fill:#000000; fill-opacity:1.0; 
stroke:#000000; stroke-width:0; stroke-opacity:1; 
stroke-linecap:round; stroke-linejoin:round;fill-rule:evenodd;"
d="M 16293,4130.42
16293,3699.71
16723.7,3699.71
16723.7,4130.42
Z" /> 
</g>
<g >
</g>
<g style="fill:#000000; fill-opacity:1.0; 
stroke:#000000; stroke-width:0; stroke-opacity:1; 
stroke-linecap:round; stroke-linejoin:round;">
<path style="fill:#000000; fill-opacity:1.0; 
stroke:#000000; stroke-width:0; stroke-opacity:1; 
stroke-linecap:round; stroke-linejoin:round;fill-rule:evenodd;"
d="M 8628.15,34130.4
8628.15,33699.7
9058.86,33699.7
9058.86,34130.4
Z" /> 
<path style="fill:#000000; fill-opacity:1.0; 
stroke:#000000; stroke-width:0; stroke-opacity:1; 
stroke-linecap:round; stroke-linejoin:round;fill-rule:evenodd;"
d="M 9730.51,34130.4
9730.51,33699.7
10161.2,33699.7
10161.2,34130.4
Z" /> 
</g>
<g >
</g>
<g style="fill:#000000; fill-opacity:1.0; 
stroke:#000000; stroke-width:0; stroke-opacity:1; 
stroke-linecap:round; stroke-linejoin:round;">
<path style="fill:#000000; fill-opacity:1.0; 
stroke:#000000; stroke-width:0; stroke-opacity:1; 
stroke-linecap:round; stroke-linejoin:round;fill-rule:evenodd;"
d="M 12378.1,26630.4
12378.1,26199.7
12808.9,26199.7
12808.9,26630.4
Z" /> 
<path style="fill:#000000; fill-opacity:1.0; 
stroke:#000000; stroke-width:0; stroke-opacity:1; 
stroke-linecap:round; stroke-linejoin:round;fill-rule:evenodd;"
d="M 13480.5,26630.4
13480.5,26199.7
13911.2,26199.7
13911.2,26630.4
Z" /> 
</g>
<g >
</g>
<g style="fill:#000000; fill-opacity:1.0; 
stroke:#000000; stroke-width:0; stroke-opacity:1; 
stroke-linecap:round; stroke-linejoin:round;">
<path style="fill:#000000; fill-opacity:1.0; 
stroke:#000000; stroke-width:0; stroke-opacity:1; 
stroke-linecap:round; stroke-linejoin:round;fill-rule:evenodd;"
d="M 10503.1,19130.4
10503.1,18699.7
10933.9,18699.7
10933.9,19130.4
Z" /> 
<path style="fill:#000000; fill-opacity:1.0; 
stroke:#000000; stroke-width:0; stroke-opacity:1; 
stroke-linecap:round; stroke-linejoin:round;fill-rule:evenodd;"
d="M 11605.5,19130.4
11605.5,18699.7
12036.2,18699.7
12036.2,19130.4
Z" /> 
</g>
<g >
</g>
<g style="fill:#000000; fill-opacity:1.0; 
stroke:#000000; stroke-width:0; stroke-opacity:1; 
stroke-linecap:round; stroke-linejoin:round;">
<path style="fill:#000000; fill-opacity:1.0; 
stroke:#000000; stroke-width:0; stroke-opacity:1; 
stroke-linecap:round; stroke-linejoin:round;fill-rule:evenodd;"
d="M 9565.65,11630.4
9565.65,11199.7
9996.36,11199.7
9996.36,11630.4
Z" /> 
<path style="fill:#000000; fill-opacity:1.0; 
stroke:#000000; stroke-width:0; stroke-opacity:1; 
stroke-linecap:round; stroke-linejoin:round;fill-rule:evenodd;"
d="M 10668,11630.4
10668,11199.7
11098.7,11199.7
11098.7,11630.4
Z" /> 
</g>
<g >
</g>
<g style="fill:#000000; fill-opacity:1.0; 
stroke:#000000; stroke-width:0; stroke-opacity:1; 
stroke-linecap:round; stroke-linejoin:round;">
<path style="fill:#000000; fill-opacity:1.0; 
stroke:#000000; stroke-width:0; stroke-opacity:1; 
stroke-linecap:round; stroke-linejoin:round;fill-rule:evenodd;"
d="M 7690.65,4130.42
7690.65,3699.71
8121.36,3699.71
8121.36,4130.42
Z" /> 
<path style="fill:#000000; fill-opacity:1.0; 
stroke:#000000; stroke-width:0; stroke-opacity:1; 
stroke-linecap:round; stroke-linejoin:round;fill-rule:evenodd;"
d="M 8793.01,4130.42
8793.01,3699.71
9223.72,3699.71
9223.72,4130.42
Z" /> 
</g>
<g >
</g>
<g >
</g>
<g >
</g>
<g >
</g>
<g style="fill:#000000; fill-opacity:1.0; 
stroke:#000000; stroke-width:0; stroke-opacity:1; 
stroke-linecap:round; stroke-linejoin:round;">
<path style="fill:#000000; fill-opacity:1.0; 
stroke:#000000; stroke-width:0; stroke-opacity:1; 
stroke-linecap:round; stroke-linejoin:round;fill-rule:evenodd;"
d="M 57810.8,33932.1
57636,33932.1
57636,33501.4
57810.8,33501.4
Z" /> 
<path style="fill:#000000; fill-opacity:1.0; 
stroke:#000000; stroke-width:0; stroke-opacity:1; 
stroke-linecap:round; stroke-linejoin:round;fill-rule:evenodd;"
d="M 57495.9,33932.1
57321.1,33932.1
57321.1,33501.4
57495.9,33501.4
Z" /> 
<path style="fill:#000000; fill-opacity:1.0; 
stroke:#000000; stroke-width:0; stroke-opacity:1; 
stroke-linecap:round; stroke-linejoin:round;fill-rule:evenodd;"
d="M 57180.9,33932.1
57006.1,33932.1
57006.1,33501.4
57180.9,33501.4
Z" /> 
<path style="fill:#000000; fill-opacity:1.0; 
stroke:#000000; stroke-width:0; stroke-opacity:1; 
stroke-linecap:round; stroke-linejoin:round;fill-rule:evenodd;"
d="M 56865.9,33932.1
56691.1,33932.1
56691.1,33501.4
56865.9,33501.4
Z" /> 
<path style="fill:#000000; fill-opacity:1.0; 
stroke:#000000; stroke-width:0; stroke-opacity:1; 
stroke-linecap:round; stroke-linejoin:round;fill-rule:evenodd;"
d="M 56551,33932.1
56376.2,33932.1
56376.2,33501.4
56551,33501.4
Z" /> 
<path style="fill:#000000; fill-opacity:1.0; 
stroke:#000000; stroke-width:0; stroke-opacity:1; 
stroke-linecap:round; stroke-linejoin:round;fill-rule:evenodd;"
d="M 56236,33932.1
56061.2,33932.1
56061.2,33501.4
56236,33501.4
Z" /> 
<path style="fill:#000000; fill-opacity:1.0; 
stroke:#000000; stroke-width:0; stroke-opacity:1; 
stroke-linecap:round; stroke-linejoin:round;fill-rule:evenodd;"
d="M 55921.1,33932.1
55746.3,33932.1
55746.3,33501.4
55921.1,33501.4
Z" /> 
<path style="fill:#000000; fill-opacity:1.0; 
stroke:#000000; stroke-width:0; stroke-opacity:1; 
stroke-linecap:round; stroke-linejoin:round;fill-rule:evenodd;"
d="M 55606.1,33932.1
55431.3,33932.1
55431.3,33501.4
55606.1,33501.4
Z" /> 
<path style="fill:#000000; fill-opacity:1.0; 
stroke:#000000; stroke-width:0; stroke-opacity:1; 
stroke-linecap:round; stroke-linejoin:round;fill-rule:evenodd;"
d="M 55163.2,33233.3
54732.5,33233.3
54732.5,33058.5
55163.2,33058.5
Z" /> 
<path style="fill:#000000; fill-opacity:1.0; 
stroke:#000000; stroke-width:0; stroke-opacity:1; 
stroke-linecap:round; stroke-linejoin:round;fill-rule:evenodd;"
d="M 55163.2,32918.3
54732.5,32918.3
54732.5,32743.5
55163.2,32743.5
Z" /> 
<path style="fill:#000000; fill-opacity:1.0; 
stroke:#000000; stroke-width:0; stroke-opacity:1; 
stroke-linecap:round; stroke-linejoin:round;fill-rule:evenodd;"
d="M 55163.2,32603.4
54732.5,32603.4
54732.5,32428.5
55163.2,32428.5
Z" /> 
<path style="fill:#000000; fill-opacity:1.0; 
stroke:#000000; stroke-width:0; stroke-opacity:1; 
stroke-linecap:round; stroke-linejoin:round;fill-rule:evenodd;"
d="M 55163.2,32288.4
54732.5,32288.4
54732.5,32113.6
55163.2,32113.6
Z" /> 
<path style="fill:#000000; fill-opacity:1.0; 
stroke:#000000; stroke-width:0; stroke-opacity:1; 
stroke-linecap:round; stroke-linejoin:round;fill-rule:evenodd;"
d="M 55163.2,31973.4
54732.5,31973.4
54732.5,31798.6
55163.2,31798.6
Z" /> 
<path style="fill:#000000; fill-opacity:1.0; 
stroke:#000000; stroke-width:0; stroke-opacity:1; 
stroke-linecap:round; stroke-linejoin:round;fill-rule:evenodd;"
d="M 55163.2,31658.5
54732.5,31658.5
54732.5,31483.7
55163.2,31483.7
Z" /> 
<path style="fill:#000000; fill-opacity:1.0; 
stroke:#000000; stroke-width:0; stroke-opacity:1; 
stroke-linecap:round; stroke-linejoin:round;fill-rule:evenodd;"
d="M 55163.2,31343.5
54732.5,31343.5
54732.5,31168.7
55163.2,31168.7
Z" /> 
<path style="fill:#000000; fill-opacity:1.0; 
stroke:#000000; stroke-width:0; stroke-opacity:1; 
stroke-linecap:round; stroke-linejoin:round;fill-rule:evenodd;"
d="M 55163.2,31028.5
54732.5,31028.5
54732.5,30853.7
55163.2,30853.7
Z" /> 
<path style="fill:#000000; fill-opacity:1.0; 
stroke:#000000; stroke-width:0; stroke-opacity:1; 
stroke-linecap:round; stroke-linejoin:round;fill-rule:evenodd;"
d="M 55606.1,30585.6
55431.3,30585.6
55431.3,30154.9
55606.1,30154.9
Z" /> 
<path style="fill:#000000; fill-opacity:1.0; 
stroke:#000000; stroke-width:0; stroke-opacity:1; 
stroke-linecap:round; stroke-linejoin:round;fill-rule:evenodd;"
d="M 55921.1,30585.6
55746.3,30585.6
55746.3,30154.9
55921.1,30154.9
Z" /> 
<path style="fill:#000000; fill-opacity:1.0; 
stroke:#000000; stroke-width:0; stroke-opacity:1; 
stroke-linecap:round; stroke-linejoin:round;fill-rule:evenodd;"
d="M 56236,30585.6
56061.2,30585.6
56061.2,30154.9
56236,30154.9
Z" /> 
<path style="fill:#000000; fill-opacity:1.0; 
stroke:#000000; stroke-width:0; stroke-opacity:1; 
stroke-linecap:round; stroke-linejoin:round;fill-rule:evenodd;"
d="M 56551,30585.6
56376.2,30585.6
56376.2,30154.9
56551,30154.9
Z" /> 
<path style="fill:#000000; fill-opacity:1.0; 
stroke:#000000; stroke-width:0; stroke-opacity:1; 
stroke-linecap:round; stroke-linejoin:round;fill-rule:evenodd;"
d="M 56865.9,30585.6
56691.1,30585.6
56691.1,30154.9
56865.9,30154.9
Z" /> 
<path style="fill:#000000; fill-opacity:1.0; 
stroke:#000000; stroke-width:0; stroke-opacity:1; 
stroke-linecap:round; stroke-linejoin:round;fill-rule:evenodd;"
d="M 57180.9,30585.6
57006.1,30585.6
57006.1,30154.9
57180.9,30154.9
Z" /> 
<path style="fill:#000000; fill-opacity:1.0; 
stroke:#000000; stroke-width:0; stroke-opacity:1; 
stroke-linecap:round; stroke-linejoin:round;fill-rule:evenodd;"
d="M 57495.9,30585.6
57321.1,30585.6
57321.1,30154.9
57495.9,30154.9
Z" /> 
<path style="fill:#000000; fill-opacity:1.0; 
stroke:#000000; stroke-width:0; stroke-opacity:1; 
stroke-linecap:round; stroke-linejoin:round;fill-rule:evenodd;"
d="M 57810.8,30585.6
57636,30585.6
57636,30154.9
57810.8,30154.9
Z" /> 
<path style="fill:#000000; fill-opacity:1.0; 
stroke:#000000; stroke-width:0; stroke-opacity:1; 
stroke-linecap:round; stroke-linejoin:round;fill-rule:evenodd;"
d="M 58509.6,31028.5
58078.9,31028.5
58078.9,30853.7
58509.6,30853.7
Z" /> 
<path style="fill:#000000; fill-opacity:1.0; 
stroke:#000000; stroke-width:0; stroke-opacity:1; 
stroke-linecap:round; stroke-linejoin:round;fill-rule:evenodd;"
d="M 58509.6,31343.5
58078.9,31343.5
58078.9,31168.7
58509.6,31168.7
Z" /> 
<path style="fill:#000000; fill-opacity:1.0; 
stroke:#000000; stroke-width:0; stroke-opacity:1; 
stroke-linecap:round; stroke-linejoin:round;fill-rule:evenodd;"
d="M 58509.6,31658.5
58078.9,31658.5
58078.9,31483.7
58509.6,31483.7
Z" /> 
<path style="fill:#000000; fill-opacity:1.0; 
stroke:#000000; stroke-width:0; stroke-opacity:1; 
stroke-linecap:round; stroke-linejoin:round;fill-rule:evenodd;"
d="M 58509.6,31973.4
58078.9,31973.4
58078.9,31798.6
58509.6,31798.6
Z" /> 
<path style="fill:#000000; fill-opacity:1.0; 
stroke:#000000; stroke-width:0; stroke-opacity:1; 
stroke-linecap:round; stroke-linejoin:round;fill-rule:evenodd;"
d="M 58509.6,32288.4
58078.9,32288.4
58078.9,32113.6
58509.6,32113.6
Z" /> 
<path style="fill:#000000; fill-opacity:1.0; 
stroke:#000000; stroke-width:0; stroke-opacity:1; 
stroke-linecap:round; stroke-linejoin:round;fill-rule:evenodd;"
d="M 58509.6,32603.4
58078.9,32603.4
58078.9,32428.5
58509.6,32428.5
Z" /> 
<path style="fill:#000000; fill-opacity:1.0; 
stroke:#000000; stroke-width:0; stroke-opacity:1; 
stroke-linecap:round; stroke-linejoin:round;fill-rule:evenodd;"
d="M 58509.6,32918.3
58078.9,32918.3
58078.9,32743.5
58509.6,32743.5
Z" /> 
<path style="fill:#000000; fill-opacity:1.0; 
stroke:#000000; stroke-width:0; stroke-opacity:1; 
stroke-linecap:round; stroke-linejoin:round;fill-rule:evenodd;"
d="M 58509.6,33233.3
58078.9,33233.3
58078.9,33058.5
58509.6,33058.5
Z" /> 
</g>
<g >
</g>
<g >
</g>
<g >
</g>
<g >
</g>
<g >
</g>
<g >
</g>
<g >
</g>
<g >
</g>
<g >
</g>
<g >
</g>
<g >
</g>
<g >
</g>
<g >
</g>
<g >
</g>
<g >
</g>
<g >
</g>
<g >
</g>
<g >
</g>
<g >
</g>
<g >
</g>
<g >
</g>
<g >
</g>
<g >
</g>
<g >
</g>
<g >
</g>
<g >
</g>
<g >
</g>
<g >
</g>
<g >
</g>
<g >
</g>
<g >
</g>
<g >
</g>
<g >
</g>
<g >
</g>
<g >
</g>
<g >
</g>
<g >
</g>
<g >
</g>
<g >
</g>
<g >
</g>
<g >
</g>
<g >
</g>
<g >
</g>
<g >
</g>
<g >
</g>
<g >
</g>
<g >
</g>
<g >
</g>
<g >
</g>
<g >
</g>
<g >
</g>
<g >
</g>
<g >
</g>
<g >
</g>
<g >
</g>
<g >
</g>
<g >
</g>
<g >
</g>
<g >
</g>
<g >
</g>
<g >
</g>
<g >
</g>
<g >
</g>
<g >
</g>
<g >
</g>
<g >
</g>
<g >
</g>
<g >
</g>
<g >
</g>
<g >
</g>
<g >
</g>
<g >
</g>
<g >
</g>
<g >
</g>
<g >
</g>
<g >
</g>
<g >
</g>
<g >
</g>
<g >
</g>
<g >
</g>
<g >
</g>
<g >
</g>
<g >
</g>
<g >
</g>
<g >
</g>
<g style="fill:#000000; fill-opacity:1.0; 
stroke:#000000; stroke-width:0; stroke-opacity:1; 
stroke-linecap:round; stroke-linejoin:round;">
<path style="fill:#000000; fill-opacity:1.0; 
stroke:#000000; stroke-width:0; stroke-opacity:1; 
stroke-linecap:round; stroke-linejoin:round;fill-rule:evenodd;"
d="M 63409.7,34288.9
63418,34290.1
63426.1,34292.2
63434,34295
63441.6,34298.6
63448.8,34302.9
63455.6,34307.9
63461.8,34313.5
63467.4,34319.8
63472.4,34326.5
63476.7,34333.7
63480.3,34341.3
63483.1,34349.2
63485.2,34357.3
63486.4,34365.6
63486.8,34374
63486.8,34545.1
63486.4,34553.5
63485.2,34561.8
63483.1,34569.9
63480.3,34577.8
63476.7,34585.4
63472.4,34592.6
63467.4,34599.3
63461.8,34605.6
63455.6,34611.2
63448.8,34616.2
63441.6,34620.5
63434,34624.1
63426.1,34626.9
63418,34629
63409.7,34630.2
63401.3,34630.6
63200.7,34630.6
63192.3,34630.2
63184,34629
63175.9,34626.9
63168,34624.1
63160.4,34620.5
63153.2,34616.2
63146.4,34611.2
63140.2,34605.6
63134.6,34599.3
63129.6,34592.6
63125.3,34585.4
63121.7,34577.8
63118.9,34569.9
63116.8,34561.8
63115.6,34553.5
63115.2,34545.1
63115.2,34374
63115.6,34365.6
63116.8,34357.3
63118.9,34349.2
63121.7,34341.3
63125.3,34333.7
63129.6,34326.5
63134.6,34319.8
63140.2,34313.5
63146.4,34307.9
63153.2,34302.9
63160.4,34298.6
63168,34295
63175.9,34292.2
63184,34290.1
63192.3,34288.9
63200.7,34288.5
63401.3,34288.5
Z" /> 
<path style="fill:#000000; fill-opacity:1.0; 
stroke:#000000; stroke-width:0; stroke-opacity:1; 
stroke-linecap:round; stroke-linejoin:round;fill-rule:evenodd;"
d="M 63409.7,33668.8
63418,33670
63426.1,33672.1
63434,33674.9
63441.6,33678.5
63448.8,33682.8
63455.6,33687.8
63461.8,33693.5
63467.4,33699.7
63472.4,33706.4
63476.7,33713.6
63480.3,33721.2
63483.1,33729.1
63485.2,33737.2
63486.4,33745.6
63486.8,33753.9
63486.8,33925
63486.4,33933.4
63485.2,33941.7
63483.1,33949.8
63480.3,33957.7
63476.7,33965.3
63472.4,33972.5
63467.4,33979.3
63461.8,33985.5
63455.6,33991.1
63448.8,33996.1
63441.6,34000.4
63434,34004
63426.1,34006.8
63418,34008.9
63409.7,34010.1
63401.3,34010.5
63200.7,34010.5
63192.3,34010.1
63184,34008.9
63175.9,34006.8
63168,34004
63160.4,34000.4
63153.2,33996.1
63146.4,33991.1
63140.2,33985.5
63134.6,33979.3
63129.6,33972.5
63125.3,33965.3
63121.7,33957.7
63118.9,33949.8
63116.8,33941.7
63115.6,33933.4
63115.2,33925
63115.2,33753.9
63115.6,33745.6
63116.8,33737.2
63118.9,33729.1
63121.7,33721.2
63125.3,33713.6
63129.6,33706.4
63134.6,33699.7
63140.2,33693.5
63146.4,33687.8
63153.2,33682.8
63160.4,33678.5
63168,33674.9
63175.9,33672.1
63184,33670
63192.3,33668.8
63200.7,33668.4
63401.3,33668.4
Z" /> 
</g>
<g >
</g>
<g style="fill:#000000; fill-opacity:1.0; 
stroke:#000000; stroke-width:0; stroke-opacity:1; 
stroke-linecap:round; stroke-linejoin:round;">
<path style="fill:#000000; fill-opacity:1.0; 
stroke:#000000; stroke-width:0; stroke-opacity:1; 
stroke-linecap:round; stroke-linejoin:round;fill-rule:evenodd;"
d="M 64112.8,34288.9
64121.1,34290.1
64129.3,34292.2
64137.2,34295
64144.7,34298.6
64151.9,34302.9
64158.7,34307.9
64164.9,34313.5
64170.5,34319.8
64175.5,34326.5
64179.9,34333.7
64183.4,34341.3
64186.3,34349.2
64188.3,34357.3
64189.5,34365.6
64190,34374
64190,34545.1
64189.5,34553.5
64188.3,34561.8
64186.3,34569.9
64183.4,34577.8
64179.9,34585.4
64175.5,34592.6
64170.5,34599.3
64164.9,34605.6
64158.7,34611.2
64151.9,34616.2
64144.7,34620.5
64137.2,34624.1
64129.3,34626.9
64121.1,34629
64112.8,34630.2
64104.4,34630.6
63903.8,34630.6
63895.5,34630.2
63887.2,34629
63879,34626.9
63871.1,34624.1
63863.5,34620.5
63856.3,34616.2
63849.6,34611.2
63843.4,34605.6
63837.7,34599.3
63832.7,34592.6
63828.4,34585.4
63824.8,34577.8
63822,34569.9
63819.9,34561.8
63818.7,34553.5
63818.3,34545.1
63818.3,34374
63818.7,34365.6
63819.9,34357.3
63822,34349.2
63824.8,34341.3
63828.4,34333.7
63832.7,34326.5
63837.7,34319.8
63843.4,34313.5
63849.6,34307.9
63856.3,34302.9
63863.5,34298.6
63871.1,34295
63879,34292.2
63887.2,34290.1
63895.5,34288.9
63903.8,34288.5
64104.4,34288.5
Z" /> 
<path style="fill:#000000; fill-opacity:1.0; 
stroke:#000000; stroke-width:0; stroke-opacity:1; 
stroke-linecap:round; stroke-linejoin:round;fill-rule:evenodd;"
d="M 64112.8,33668.8
64121.1,33670
64129.3,33672.1
64137.2,33674.9
64144.7,33678.5
64151.9,33682.8
64158.7,33687.8
64164.9,33693.5
64170.5,33699.7
64175.5,33706.4
64179.9,33713.6
64183.4,33721.2
64186.3,33729.1
64188.3,33737.2
64189.5,33745.6
64190,33753.9
64190,33925
64189.5,33933.4
64188.3,33941.7
64186.3,33949.8
64183.4,33957.7
64179.9,33965.3
64175.5,33972.5
64170.5,33979.3
64164.9,33985.5
64158.7,33991.1
64151.9,33996.1
64144.7,34000.4
64137.2,34004
64129.3,34006.8
64121.1,34008.9
64112.8,34010.1
64104.4,34010.5
63903.8,34010.5
63895.5,34010.1
63887.2,34008.9
63879,34006.8
63871.1,34004
63863.5,34000.4
63856.3,33996.1
63849.6,33991.1
63843.4,33985.5
63837.7,33979.3
63832.7,33972.5
63828.4,33965.3
63824.8,33957.7
63822,33949.8
63819.9,33941.7
63818.7,33933.4
63818.3,33925
63818.3,33753.9
63818.7,33745.6
63819.9,33737.2
63822,33729.1
63824.8,33721.2
63828.4,33713.6
63832.7,33706.4
63837.7,33699.7
63843.4,33693.5
63849.6,33687.8
63856.3,33682.8
63863.5,33678.5
63871.1,33674.9
63879,33672.1
63887.2,33670
63895.5,33668.8
63903.8,33668.4
64104.4,33668.4
Z" /> 
</g>
<g >
</g>
<g >
</g>
<g style="fill:#000000; fill-opacity:1.0; 
stroke:#000000; stroke-width:0; stroke-opacity:1; 
stroke-linecap:round; stroke-linejoin:round;">
<path style="fill:#000000; fill-opacity:1.0; 
stroke:#000000; stroke-width:0; stroke-opacity:1; 
stroke-linecap:round; stroke-linejoin:round;fill-rule:evenodd;"
d="M 56261.3,35504.8
56269.6,35506
56277.7,35508.1
56285.6,35510.9
56293.2,35514.5
56300.4,35518.8
56307.2,35523.8
56313.4,35529.4
56319,35535.6
56324,35542.4
56328.3,35549.6
56331.9,35557.2
56334.8,35565.1
56336.8,35573.2
56338,35581.5
56338.4,35589.9
56338.4,35761
56338,35769.3
56336.8,35777.7
56334.8,35785.8
56331.9,35793.7
56328.3,35801.3
56324,35808.5
56319,35815.2
56313.4,35821.4
56307.2,35827.1
56300.4,35832.1
56293.2,35836.4
56285.6,35840
56277.7,35842.8
56269.6,35844.9
56261.3,35846.1
56252.9,35846.5
56052.3,35846.5
56043.9,35846.1
56035.6,35844.9
56027.5,35842.8
56019.6,35840
56012,35836.4
56004.8,35832.1
55998.1,35827.1
55991.8,35821.4
55986.2,35815.2
55981.2,35808.5
55976.9,35801.3
55973.3,35793.7
55970.5,35785.8
55968.4,35777.7
55967.2,35769.3
55966.8,35761
55966.8,35589.9
55967.2,35581.5
55968.4,35573.2
55970.5,35565.1
55973.3,35557.2
55976.9,35549.6
55981.2,35542.4
55986.2,35535.6
55991.8,35529.4
55998.1,35523.8
56004.8,35518.8
56012,35514.5
56019.6,35510.9
56027.5,35508.1
56035.6,35506
56043.9,35504.8
56052.3,35504.4
56252.9,35504.4
Z" /> 
<path style="fill:#000000; fill-opacity:1.0; 
stroke:#000000; stroke-width:0; stroke-opacity:1; 
stroke-linecap:round; stroke-linejoin:round;fill-rule:evenodd;"
d="M 56261.3,34884.7
56269.6,34885.9
56277.7,34888
56285.6,34890.8
56293.2,34894.4
56300.4,34898.7
56307.2,34903.7
56313.4,34909.3
56319,34915.6
56324,34922.3
56328.3,34929.5
56331.9,34937.1
56334.8,34945
56336.8,34953.1
56338,34961.4
56338.4,34969.8
56338.4,35140.9
56338,35149.3
56336.8,35157.6
56334.8,35165.7
56331.9,35173.6
56328.3,35181.2
56324,35188.4
56319,35195.1
56313.4,35201.4
56307.2,35207
56300.4,35212
56293.2,35216.3
56285.6,35219.9
56277.7,35222.7
56269.6,35224.8
56261.3,35226
56252.9,35226.4
56052.3,35226.4
56043.9,35226
56035.6,35224.8
56027.5,35222.7
56019.6,35219.9
56012,35216.3
56004.8,35212
55998.1,35207
55991.8,35201.4
55986.2,35195.1
55981.2,35188.4
55976.9,35181.2
55973.3,35173.6
55970.5,35165.7
55968.4,35157.6
55967.2,35149.3
55966.8,35140.9
55966.8,34969.8
55967.2,34961.4
55968.4,34953.1
55970.5,34945
55973.3,34937.1
55976.9,34929.5
55981.2,34922.3
55986.2,34915.6
55991.8,34909.3
55998.1,34903.7
56004.8,34898.7
56012,34894.4
56019.6,34890.8
56027.5,34888
56035.6,34885.9
56043.9,34884.7
56052.3,34884.3
56252.9,34884.3
Z" /> 
</g>
<g >
</g>
<g style="fill:#000000; fill-opacity:1.0; 
stroke:#000000; stroke-width:0; stroke-opacity:1; 
stroke-linecap:round; stroke-linejoin:round;">
<path style="fill:#000000; fill-opacity:1.0; 
stroke:#000000; stroke-width:0; stroke-opacity:1; 
stroke-linecap:round; stroke-linejoin:round;fill-rule:evenodd;"
d="M 55446.3,29601.5
55454.6,29602.7
55462.7,29604.7
55470.6,29607.6
55478.2,29611.1
55485.4,29615.5
55492.2,29620.5
55498.4,29626.1
55504,29632.3
55509,29639.1
55513.3,29646.3
55516.9,29653.8
55519.7,29661.7
55521.8,29669.9
55523,29678.2
55523.4,29686.6
55523.4,29857.6
55523,29866
55521.8,29874.3
55519.7,29882.5
55516.9,29890.4
55513.3,29898
55509,29905.2
55504,29911.9
55498.4,29918.1
55492.2,29923.8
55485.4,29928.8
55478.2,29933.1
55470.6,29936.7
55462.7,29939.5
55454.6,29941.5
55446.3,29942.8
55437.9,29943.2
55237.3,29943.2
55228.9,29942.8
55220.6,29941.5
55212.5,29939.5
55204.6,29936.7
55197,29933.1
55189.8,29928.8
55183,29923.8
55176.8,29918.1
55171.2,29911.9
55166.2,29905.2
55161.9,29898
55158.3,29890.4
55155.5,29882.5
55153.4,29874.3
55152.2,29866
55151.8,29857.6
55151.8,29686.6
55152.2,29678.2
55153.4,29669.9
55155.5,29661.7
55158.3,29653.8
55161.9,29646.3
55166.2,29639.1
55171.2,29632.3
55176.8,29626.1
55183,29620.5
55189.8,29615.5
55197,29611.1
55204.6,29607.6
55212.5,29604.7
55220.6,29602.7
55228.9,29601.5
55237.3,29601
55437.9,29601
Z" /> 
<path style="fill:#000000; fill-opacity:1.0; 
stroke:#000000; stroke-width:0; stroke-opacity:1; 
stroke-linecap:round; stroke-linejoin:round;fill-rule:evenodd;"
d="M 55446.3,28981.4
55454.6,28982.6
55462.7,28984.6
55470.6,28987.5
55478.2,28991.1
55485.4,28995.4
55492.2,29000.4
55498.4,29006
55504,29012.2
55509,29019
55513.3,29026.2
55516.9,29033.8
55519.7,29041.7
55521.8,29049.8
55523,29058.1
55523.4,29066.5
55523.4,29237.6
55523,29245.9
55521.8,29254.2
55519.7,29262.4
55516.9,29270.3
55513.3,29277.9
55509,29285.1
55504,29291.8
55498.4,29298
55492.2,29303.7
55485.4,29308.7
55478.2,29313
55470.6,29316.6
55462.7,29319.4
55454.6,29321.4
55446.3,29322.7
55437.9,29323.1
55237.3,29323.1
55228.9,29322.7
55220.6,29321.4
55212.5,29319.4
55204.6,29316.6
55197,29313
55189.8,29308.7
55183,29303.7
55176.8,29298
55171.2,29291.8
55166.2,29285.1
55161.9,29277.9
55158.3,29270.3
55155.5,29262.4
55153.4,29254.2
55152.2,29245.9
55151.8,29237.6
55151.8,29066.5
55152.2,29058.1
55153.4,29049.8
55155.5,29041.7
55158.3,29033.8
55161.9,29026.2
55166.2,29019
55171.2,29012.2
55176.8,29006
55183,29000.4
55189.8,28995.4
55197,28991.1
55204.6,28987.5
55212.5,28984.6
55220.6,28982.6
55228.9,28981.4
55237.3,28981
55437.9,28981
Z" /> 
</g>
<g >
</g>
<g style="fill:#000000; fill-opacity:1.0; 
stroke:#000000; stroke-width:0; stroke-opacity:1; 
stroke-linecap:round; stroke-linejoin:round;">
<path style="fill:#000000; fill-opacity:1.0; 
stroke:#000000; stroke-width:0; stroke-opacity:1; 
stroke-linecap:round; stroke-linejoin:round;fill-rule:evenodd;"
d="M 56147.1,28981.4
56155.4,28982.6
56163.5,28984.6
56171.4,28987.5
56179,28991.1
56186.2,28995.4
56192.9,29000.4
56199.2,29006
56204.8,29012.2
56209.8,29019
56214.1,29026.2
56217.7,29033.8
56220.5,29041.7
56222.6,29049.8
56223.8,29058.1
56224.2,29066.5
56224.2,29237.6
56223.8,29245.9
56222.6,29254.2
56220.5,29262.4
56217.7,29270.3
56214.1,29277.9
56209.8,29285.1
56204.8,29291.8
56199.2,29298
56192.9,29303.7
56186.2,29308.7
56179,29313
56171.4,29316.6
56163.5,29319.4
56155.4,29321.4
56147.1,29322.7
56138.7,29323.1
55938.1,29323.1
55929.7,29322.7
55921.4,29321.4
55913.3,29319.4
55905.4,29316.6
55897.8,29313
55890.6,29308.7
55883.8,29303.7
55877.6,29298
55872,29291.8
55867,29285.1
55862.7,29277.9
55859.1,29270.3
55856.2,29262.4
55854.2,29254.2
55853,29245.9
55852.6,29237.6
55852.6,29066.5
55853,29058.1
55854.2,29049.8
55856.2,29041.7
55859.1,29033.8
55862.7,29026.2
55867,29019
55872,29012.2
55877.6,29006
55883.8,29000.4
55890.6,28995.4
55897.8,28991.1
55905.4,28987.5
55913.3,28984.6
55921.4,28982.6
55929.7,28981.4
55938.1,28981
56138.7,28981
Z" /> 
<path style="fill:#000000; fill-opacity:1.0; 
stroke:#000000; stroke-width:0; stroke-opacity:1; 
stroke-linecap:round; stroke-linejoin:round;fill-rule:evenodd;"
d="M 56147.1,29601.5
56155.4,29602.7
56163.5,29604.7
56171.4,29607.6
56179,29611.1
56186.2,29615.5
56192.9,29620.5
56199.2,29626.1
56204.8,29632.3
56209.8,29639.1
56214.1,29646.3
56217.7,29653.8
56220.5,29661.7
56222.6,29669.9
56223.8,29678.2
56224.2,29686.6
56224.2,29857.6
56223.8,29866
56222.6,29874.3
56220.5,29882.5
56217.7,29890.4
56214.1,29898
56209.8,29905.2
56204.8,29911.9
56199.2,29918.1
56192.9,29923.8
56186.2,29928.8
56179,29933.1
56171.4,29936.7
56163.5,29939.5
56155.4,29941.5
56147.1,29942.8
56138.7,29943.2
55938.1,29943.2
55929.7,29942.8
55921.4,29941.5
55913.3,29939.5
55905.4,29936.7
55897.8,29933.1
55890.6,29928.8
55883.8,29923.8
55877.6,29918.1
55872,29911.9
55867,29905.2
55862.7,29898
55859.1,29890.4
55856.2,29882.5
55854.2,29874.3
55853,29866
55852.6,29857.6
55852.6,29686.6
55853,29678.2
55854.2,29669.9
55856.2,29661.7
55859.1,29653.8
55862.7,29646.3
55867,29639.1
55872,29632.3
55877.6,29626.1
55883.8,29620.5
55890.6,29615.5
55897.8,29611.1
55905.4,29607.6
55913.3,29604.7
55921.4,29602.7
55929.7,29601.5
55938.1,29601
56138.7,29601
Z" /> 
</g>
<g >
</g>
<g style="fill:#000000; fill-opacity:1.0; 
stroke:#000000; stroke-width:0; stroke-opacity:1; 
stroke-linecap:round; stroke-linejoin:round;">
<path style="fill:#000000; fill-opacity:1.0; 
stroke:#000000; stroke-width:0; stroke-opacity:1; 
stroke-linecap:round; stroke-linejoin:round;fill-rule:evenodd;"
d="M 53861.3,30917.3
53869.6,30918.5
53877.7,30920.6
53885.6,30923.4
53893.2,30927
53900.4,30931.3
53907.2,30936.3
53913.4,30941.9
53919,30948.1
53924,30954.9
53928.3,30962.1
53931.9,30969.7
53934.8,30977.6
53936.8,30985.7
53938,30994
53938.4,31002.4
53938.4,31203
53938,31211.4
53936.8,31219.7
53934.8,31227.8
53931.9,31235.7
53928.3,31243.3
53924,31250.5
53919,31257.3
53913.4,31263.5
53907.2,31269.1
53900.4,31274.1
53893.2,31278.4
53885.6,31282
53877.7,31284.8
53869.6,31286.9
53861.3,31288.1
53852.9,31288.5
53681.9,31288.5
53673.5,31288.1
53665.2,31286.9
53657,31284.8
53649.1,31282
53641.5,31278.4
53634.3,31274.1
53627.6,31269.1
53621.4,31263.5
53615.7,31257.3
53610.7,31250.5
53606.4,31243.3
53602.8,31235.7
53600,31227.8
53598,31219.7
53596.7,31211.4
53596.3,31203
53596.3,31002.4
53596.7,30994
53598,30985.7
53600,30977.6
53602.8,30969.7
53606.4,30962.1
53610.7,30954.9
53615.7,30948.1
53621.4,30941.9
53627.6,30936.3
53634.3,30931.3
53641.5,30927
53649.1,30923.4
53657,30920.6
53665.2,30918.5
53673.5,30917.3
53681.9,30916.9
53852.9,30916.9
Z" /> 
<path style="fill:#000000; fill-opacity:1.0; 
stroke:#000000; stroke-width:0; stroke-opacity:1; 
stroke-linecap:round; stroke-linejoin:round;fill-rule:evenodd;"
d="M 53241.2,30917.3
53249.5,30918.5
53257.7,30920.6
53265.6,30923.4
53273.2,30927
53280.4,30931.3
53287.1,30936.3
53293.3,30941.9
53299,30948.1
53304,30954.9
53308.3,30962.1
53311.9,30969.7
53314.7,30977.6
53316.7,30985.7
53318,30994
53318.4,31002.4
53318.4,31203
53318,31211.4
53316.7,31219.7
53314.7,31227.8
53311.9,31235.7
53308.3,31243.3
53304,31250.5
53299,31257.3
53293.3,31263.5
53287.1,31269.1
53280.4,31274.1
53273.2,31278.4
53265.6,31282
53257.7,31284.8
53249.5,31286.9
53241.2,31288.1
53232.8,31288.5
53061.8,31288.5
53053.4,31288.1
53045.1,31286.9
53036.9,31284.8
53029,31282
53021.5,31278.4
53014.3,31274.1
53007.5,31269.1
53001.3,31263.5
52995.7,31257.3
52990.7,31250.5
52986.3,31243.3
52982.8,31235.7
52979.9,31227.8
52977.9,31219.7
52976.7,31211.4
52976.2,31203
52976.2,31002.4
52976.7,30994
52977.9,30985.7
52979.9,30977.6
52982.8,30969.7
52986.3,30962.1
52990.7,30954.9
52995.7,30948.1
53001.3,30941.9
53007.5,30936.3
53014.3,30931.3
53021.5,30927
53029,30923.4
53036.9,30920.6
53045.1,30918.5
53053.4,30917.3
53061.8,30916.9
53232.8,30916.9
Z" /> 
</g>
<g >
</g>
<g style="fill:#000000; fill-opacity:1.0; 
stroke:#000000; stroke-width:0; stroke-opacity:1; 
stroke-linecap:round; stroke-linejoin:round;">
<path style="fill:#000000; fill-opacity:1.0; 
stroke:#000000; stroke-width:0; stroke-opacity:1; 
stroke-linecap:round; stroke-linejoin:round;fill-rule:evenodd;"
d="M 53861.3,30331.3
53869.6,30332.6
53877.7,30334.6
53885.6,30337.4
53893.2,30341
53900.4,30345.3
53907.2,30350.3
53913.4,30356
53919,30362.2
53924,30368.9
53928.3,30376.1
53931.9,30383.7
53934.8,30391.6
53936.8,30399.8
53938,30408.1
53938.4,30416.5
53938.4,30617.1
53938,30625.4
53936.8,30633.7
53934.8,30641.9
53931.9,30649.8
53928.3,30657.4
53924,30664.6
53919,30671.3
53913.4,30677.5
53907.2,30683.2
53900.4,30688.2
53893.2,30692.5
53885.6,30696.1
53877.7,30698.9
53869.6,30700.9
53861.3,30702.2
53852.9,30702.6
53681.9,30702.6
53673.5,30702.2
53665.2,30700.9
53657,30698.9
53649.1,30696.1
53641.5,30692.5
53634.3,30688.2
53627.6,30683.2
53621.4,30677.5
53615.7,30671.3
53610.7,30664.6
53606.4,30657.4
53602.8,30649.8
53600,30641.9
53598,30633.7
53596.7,30625.4
53596.3,30617.1
53596.3,30416.5
53596.7,30408.1
53598,30399.8
53600,30391.6
53602.8,30383.7
53606.4,30376.1
53610.7,30368.9
53615.7,30362.2
53621.4,30356
53627.6,30350.3
53634.3,30345.3
53641.5,30341
53649.1,30337.4
53657,30334.6
53665.2,30332.6
53673.5,30331.3
53681.9,30330.9
53852.9,30330.9
Z" /> 
<path style="fill:#000000; fill-opacity:1.0; 
stroke:#000000; stroke-width:0; stroke-opacity:1; 
stroke-linecap:round; stroke-linejoin:round;fill-rule:evenodd;"
d="M 53241.2,30331.3
53249.5,30332.6
53257.7,30334.6
53265.6,30337.4
53273.2,30341
53280.4,30345.3
53287.1,30350.3
53293.3,30356
53299,30362.2
53304,30368.9
53308.3,30376.1
53311.9,30383.7
53314.7,30391.6
53316.7,30399.8
53318,30408.1
53318.4,30416.5
53318.4,30617.1
53318,30625.4
53316.7,30633.7
53314.7,30641.9
53311.9,30649.8
53308.3,30657.4
53304,30664.6
53299,30671.3
53293.3,30677.5
53287.1,30683.2
53280.4,30688.2
53273.2,30692.5
53265.6,30696.1
53257.7,30698.9
53249.5,30700.9
53241.2,30702.2
53232.8,30702.6
53061.8,30702.6
53053.4,30702.2
53045.1,30700.9
53036.9,30698.9
53029,30696.1
53021.5,30692.5
53014.3,30688.2
53007.5,30683.2
53001.3,30677.5
52995.7,30671.3
52990.7,30664.6
52986.3,30657.4
52982.8,30649.8
52979.9,30641.9
52977.9,30633.7
52976.7,30625.4
52976.2,30617.1
52976.2,30416.5
52976.7,30408.1
52977.9,30399.8
52979.9,30391.6
52982.8,30383.7
52986.3,30376.1
52990.7,30368.9
52995.7,30362.2
53001.3,30356
53007.5,30350.3
53014.3,30345.3
53021.5,30341
53029,30337.4
53036.9,30334.6
53045.1,30332.6
53053.4,30331.3
53061.8,30330.9
53232.8,30330.9
Z" /> 
</g>
<g >
</g>
<g style="fill:#000000; fill-opacity:1.0; 
stroke:#000000; stroke-width:0; stroke-opacity:1; 
stroke-linecap:round; stroke-linejoin:round;">
<path style="fill:#000000; fill-opacity:1.0; 
stroke:#000000; stroke-width:0; stroke-opacity:1; 
stroke-linecap:round; stroke-linejoin:round;fill-rule:evenodd;"
d="M 60831.7,32262.6
60840,32263.9
60848.1,32265.9
60856,32268.7
60863.6,32272.3
60870.8,32276.6
60877.5,32281.6
60883.8,32287.3
60889.4,32293.5
60894.4,32300.2
60898.7,32307.4
60902.3,32315
60905.1,32322.9
60907.2,32331.1
60908.4,32339.4
60908.8,32347.8
60908.8,32518.8
60908.4,32527.2
60907.2,32535.5
60905.1,32543.6
60902.3,32551.5
60898.7,32559.1
60894.4,32566.3
60889.4,32573.1
60883.8,32579.3
60877.5,32584.9
60870.8,32589.9
60863.6,32594.2
60856,32597.8
60848.1,32600.7
60840,32602.7
60831.7,32603.9
60823.3,32604.3
60622.7,32604.3
60614.3,32603.9
60606,32602.7
60597.9,32600.7
60590,32597.8
60582.4,32594.2
60575.2,32589.9
60568.4,32584.9
60562.2,32579.3
60556.6,32573.1
60551.6,32566.3
60547.3,32559.1
60543.7,32551.5
60540.8,32543.6
60538.8,32535.5
60537.6,32527.2
60537.2,32518.8
60537.2,32347.8
60537.6,32339.4
60538.8,32331.1
60540.8,32322.9
60543.7,32315
60547.3,32307.4
60551.6,32300.2
60556.6,32293.5
60562.2,32287.3
60568.4,32281.6
60575.2,32276.6
60582.4,32272.3
60590,32268.7
60597.9,32265.9
60606,32263.9
60614.3,32262.6
60622.7,32262.2
60823.3,32262.2
Z" /> 
<path style="fill:#000000; fill-opacity:1.0; 
stroke:#000000; stroke-width:0; stroke-opacity:1; 
stroke-linecap:round; stroke-linejoin:round;fill-rule:evenodd;"
d="M 60831.7,32882.7
60840,32883.9
60848.1,32886
60856,32888.8
60863.6,32892.4
60870.8,32896.7
60877.5,32901.7
60883.8,32907.4
60889.4,32913.6
60894.4,32920.3
60898.7,32927.5
60902.3,32935.1
60905.1,32943
60907.2,32951.1
60908.4,32959.4
60908.8,32967.8
60908.8,33138.9
60908.4,33147.3
60907.2,33155.6
60905.1,33163.7
60902.3,33171.6
60898.7,33179.2
60894.4,33186.4
60889.4,33193.2
60883.8,33199.4
60877.5,33205
60870.8,33210
60863.6,33214.3
60856,33217.9
60848.1,33220.7
60840,33222.8
60831.7,33224
60823.3,33224.4
60622.7,33224.4
60614.3,33224
60606,33222.8
60597.9,33220.7
60590,33217.9
60582.4,33214.3
60575.2,33210
60568.4,33205
60562.2,33199.4
60556.6,33193.2
60551.6,33186.4
60547.3,33179.2
60543.7,33171.6
60540.8,33163.7
60538.8,33155.6
60537.6,33147.3
60537.2,33138.9
60537.2,32967.8
60537.6,32959.4
60538.8,32951.1
60540.8,32943
60543.7,32935.1
60547.3,32927.5
60551.6,32920.3
60556.6,32913.6
60562.2,32907.4
60568.4,32901.7
60575.2,32896.7
60582.4,32892.4
60590,32888.8
60597.9,32886
60606,32883.9
60614.3,32882.7
60622.7,32882.3
60823.3,32882.3
Z" /> 
</g>
<g >
</g>
<g style="fill:#000000; fill-opacity:1.0; 
stroke:#000000; stroke-width:0; stroke-opacity:1; 
stroke-linecap:round; stroke-linejoin:round;">
<path style="fill:#000000; fill-opacity:1.0; 
stroke:#000000; stroke-width:0; stroke-opacity:1; 
stroke-linecap:round; stroke-linejoin:round;fill-rule:evenodd;"
d="M 60128.5,32262.6
60136.8,32263.9
60145,32265.9
60152.9,32268.7
60160.5,32272.3
60167.7,32276.6
60174.4,32281.6
60180.6,32287.3
60186.3,32293.5
60191.3,32300.2
60195.6,32307.4
60199.2,32315
60202,32322.9
60204,32331.1
60205.3,32339.4
60205.7,32347.8
60205.7,32518.8
60205.3,32527.2
60204,32535.5
60202,32543.6
60199.2,32551.5
60195.6,32559.1
60191.3,32566.3
60186.3,32573.1
60180.6,32579.3
60174.4,32584.9
60167.7,32589.9
60160.5,32594.2
60152.9,32597.8
60145,32600.7
60136.8,32602.7
60128.5,32603.9
60120.2,32604.3
59919.6,32604.3
59911.2,32603.9
59902.9,32602.7
59894.7,32600.7
59886.8,32597.8
59879.2,32594.2
59872,32589.9
59865.3,32584.9
59859.1,32579.3
59853.4,32573.1
59848.4,32566.3
59844.1,32559.1
59840.5,32551.5
59837.7,32543.6
59835.7,32535.5
59834.4,32527.2
59834,32518.8
59834,32347.8
59834.4,32339.4
59835.7,32331.1
59837.7,32322.9
59840.5,32315
59844.1,32307.4
59848.4,32300.2
59853.4,32293.5
59859.1,32287.3
59865.3,32281.6
59872,32276.6
59879.2,32272.3
59886.8,32268.7
59894.7,32265.9
59902.9,32263.9
59911.2,32262.6
59919.6,32262.2
60120.2,32262.2
Z" /> 
<path style="fill:#000000; fill-opacity:1.0; 
stroke:#000000; stroke-width:0; stroke-opacity:1; 
stroke-linecap:round; stroke-linejoin:round;fill-rule:evenodd;"
d="M 60128.5,32882.7
60136.8,32883.9
60145,32886
60152.9,32888.8
60160.5,32892.4
60167.7,32896.7
60174.4,32901.7
60180.6,32907.4
60186.3,32913.6
60191.3,32920.3
60195.6,32927.5
60199.2,32935.1
60202,32943
60204,32951.1
60205.3,32959.4
60205.7,32967.8
60205.7,33138.9
60205.3,33147.3
60204,33155.6
60202,33163.7
60199.2,33171.6
60195.6,33179.2
60191.3,33186.4
60186.3,33193.2
60180.6,33199.4
60174.4,33205
60167.7,33210
60160.5,33214.3
60152.9,33217.9
60145,33220.7
60136.8,33222.8
60128.5,33224
60120.2,33224.4
59919.6,33224.4
59911.2,33224
59902.9,33222.8
59894.7,33220.7
59886.8,33217.9
59879.2,33214.3
59872,33210
59865.3,33205
59859.1,33199.4
59853.4,33193.2
59848.4,33186.4
59844.1,33179.2
59840.5,33171.6
59837.7,33163.7
59835.7,33155.6
59834.4,33147.3
59834,33138.9
59834,32967.8
59834.4,32959.4
59835.7,32951.1
59837.7,32943
59840.5,32935.1
59844.1,32927.5
59848.4,32920.3
59853.4,32913.6
59859.1,32907.4
59865.3,32901.7
59872,32896.7
59879.2,32892.4
59886.8,32888.8
59894.7,32886
59902.9,32883.9
59911.2,32882.7
59919.6,32882.3
60120.2,32882.3
Z" /> 
</g>
<g >
</g>
<g style="fill:#000000; fill-opacity:1.0; 
stroke:#000000; stroke-width:0; stroke-opacity:1; 
stroke-linecap:round; stroke-linejoin:round;">
<path style="fill:#000000; fill-opacity:1.0; 
stroke:#000000; stroke-width:0; stroke-opacity:1; 
stroke-linecap:round; stroke-linejoin:round;fill-rule:evenodd;"
d="M 61534.8,32262.6
61543.1,32263.9
61551.2,32265.9
61559.1,32268.7
61566.7,32272.3
61573.9,32276.6
61580.7,32281.6
61586.9,32287.3
61592.5,32293.5
61597.5,32300.2
61601.8,32307.4
61605.4,32315
61608.3,32322.9
61610.3,32331.1
61611.5,32339.4
61611.9,32347.8
61611.9,32518.8
61611.5,32527.2
61610.3,32535.5
61608.3,32543.6
61605.4,32551.5
61601.8,32559.1
61597.5,32566.3
61592.5,32573.1
61586.9,32579.3
61580.7,32584.9
61573.9,32589.9
61566.7,32594.2
61559.1,32597.8
61551.2,32600.7
61543.1,32602.7
61534.8,32603.9
61526.4,32604.3
61325.8,32604.3
61317.4,32603.9
61309.1,32602.7
61301,32600.7
61293.1,32597.8
61285.5,32594.2
61278.3,32589.9
61271.6,32584.9
61265.3,32579.3
61259.7,32573.1
61254.7,32566.3
61250.4,32559.1
61246.8,32551.5
61244,32543.6
61241.9,32535.5
61240.7,32527.2
61240.3,32518.8
61240.3,32347.8
61240.7,32339.4
61241.9,32331.1
61244,32322.9
61246.8,32315
61250.4,32307.4
61254.7,32300.2
61259.7,32293.5
61265.3,32287.3
61271.6,32281.6
61278.3,32276.6
61285.5,32272.3
61293.1,32268.7
61301,32265.9
61309.1,32263.9
61317.4,32262.6
61325.8,32262.2
61526.4,32262.2
Z" /> 
<path style="fill:#000000; fill-opacity:1.0; 
stroke:#000000; stroke-width:0; stroke-opacity:1; 
stroke-linecap:round; stroke-linejoin:round;fill-rule:evenodd;"
d="M 61534.8,32882.7
61543.1,32883.9
61551.2,32886
61559.1,32888.8
61566.7,32892.4
61573.9,32896.7
61580.7,32901.7
61586.9,32907.4
61592.5,32913.6
61597.5,32920.3
61601.8,32927.5
61605.4,32935.1
61608.3,32943
61610.3,32951.1
61611.5,32959.4
61611.9,32967.8
61611.9,33138.9
61611.5,33147.3
61610.3,33155.6
61608.3,33163.7
61605.4,33171.6
61601.8,33179.2
61597.5,33186.4
61592.5,33193.2
61586.9,33199.4
61580.7,33205
61573.9,33210
61566.7,33214.3
61559.1,33217.9
61551.2,33220.7
61543.1,33222.8
61534.8,33224
61526.4,33224.4
61325.8,33224.4
61317.4,33224
61309.1,33222.8
61301,33220.7
61293.1,33217.9
61285.5,33214.3
61278.3,33210
61271.6,33205
61265.3,33199.4
61259.7,33193.2
61254.7,33186.4
61250.4,33179.2
61246.8,33171.6
61244,33163.7
61241.9,33155.6
61240.7,33147.3
61240.3,33138.9
61240.3,32967.8
61240.7,32959.4
61241.9,32951.1
61244,32943
61246.8,32935.1
61250.4,32927.5
61254.7,32920.3
61259.7,32913.6
61265.3,32907.4
61271.6,32901.7
61278.3,32896.7
61285.5,32892.4
61293.1,32888.8
61301,32886
61309.1,32883.9
61317.4,32882.7
61325.8,32882.3
61526.4,32882.3
Z" /> 
</g>
<g >
</g>
<g style="fill:#000000; fill-opacity:1.0; 
stroke:#000000; stroke-width:0; stroke-opacity:1; 
stroke-linecap:round; stroke-linejoin:round;">
<path style="fill:#000000; fill-opacity:1.0; 
stroke:#000000; stroke-width:0; stroke-opacity:1; 
stroke-linecap:round; stroke-linejoin:round;fill-rule:evenodd;"
d="M 62237.9,32262.6
62246.2,32263.9
62254.4,32265.9
62262.3,32268.7
62269.9,32272.3
62277.1,32276.6
62283.8,32281.6
62290,32287.3
62295.7,32293.5
62300.7,32300.2
62305,32307.4
62308.6,32315
62311.4,32322.9
62313.4,32331.1
62314.7,32339.4
62315.1,32347.8
62315.1,32518.8
62314.7,32527.2
62313.4,32535.5
62311.4,32543.6
62308.6,32551.5
62305,32559.1
62300.7,32566.3
62295.7,32573.1
62290,32579.3
62283.8,32584.9
62277.1,32589.9
62269.9,32594.2
62262.3,32597.8
62254.4,32600.7
62246.2,32602.7
62237.9,32603.9
62229.5,32604.3
62028.9,32604.3
62020.6,32603.9
62012.3,32602.7
62004.1,32600.7
61996.2,32597.8
61988.6,32594.2
61981.4,32589.9
61974.7,32584.9
61968.5,32579.3
61962.8,32573.1
61957.8,32566.3
61953.5,32559.1
61949.9,32551.5
61947.1,32543.6
61945.1,32535.5
61943.8,32527.2
61943.4,32518.8
61943.4,32347.8
61943.8,32339.4
61945.1,32331.1
61947.1,32322.9
61949.9,32315
61953.5,32307.4
61957.8,32300.2
61962.8,32293.5
61968.5,32287.3
61974.7,32281.6
61981.4,32276.6
61988.6,32272.3
61996.2,32268.7
62004.1,32265.9
62012.3,32263.9
62020.6,32262.6
62028.9,32262.2
62229.5,32262.2
Z" /> 
<path style="fill:#000000; fill-opacity:1.0; 
stroke:#000000; stroke-width:0; stroke-opacity:1; 
stroke-linecap:round; stroke-linejoin:round;fill-rule:evenodd;"
d="M 62237.9,32882.7
62246.2,32883.9
62254.4,32886
62262.3,32888.8
62269.9,32892.4
62277.1,32896.7
62283.8,32901.7
62290,32907.4
62295.7,32913.6
62300.7,32920.3
62305,32927.5
62308.6,32935.1
62311.4,32943
62313.4,32951.1
62314.7,32959.4
62315.1,32967.8
62315.1,33138.9
62314.7,33147.3
62313.4,33155.6
62311.4,33163.7
62308.6,33171.6
62305,33179.2
62300.7,33186.4
62295.7,33193.2
62290,33199.4
62283.8,33205
62277.1,33210
62269.9,33214.3
62262.3,33217.9
62254.4,33220.7
62246.2,33222.8
62237.9,33224
62229.5,33224.4
62028.9,33224.4
62020.6,33224
62012.3,33222.8
62004.1,33220.7
61996.2,33217.9
61988.6,33214.3
61981.4,33210
61974.7,33205
61968.5,33199.4
61962.8,33193.2
61957.8,33186.4
61953.5,33179.2
61949.9,33171.6
61947.1,33163.7
61945.1,33155.6
61943.8,33147.3
61943.4,33138.9
61943.4,32967.8
61943.8,32959.4
61945.1,32951.1
61947.1,32943
61949.9,32935.1
61953.5,32927.5
61957.8,32920.3
61962.8,32913.6
61968.5,32907.4
61974.7,32901.7
61981.4,32896.7
61988.6,32892.4
61996.2,32888.8
62004.1,32886
62012.3,32883.9
62020.6,32882.7
62028.9,32882.3
62229.5,32882.3
Z" /> 
</g>
<g >
</g>
<g style="fill:#000000; fill-opacity:1.0; 
stroke:#000000; stroke-width:0; stroke-opacity:1; 
stroke-linecap:round; stroke-linejoin:round;">
<path style="fill:#000000; fill-opacity:1.0; 
stroke:#000000; stroke-width:0; stroke-opacity:1; 
stroke-linecap:round; stroke-linejoin:round;fill-rule:evenodd;"
d="M 64945.3,10992.1
64357.1,10992.1
64357.1,10207
64945.3,10207
Z" /> 
<path style="fill:#000000; fill-opacity:1.0; 
stroke:#000000; stroke-width:0; stroke-opacity:1; 
stroke-linecap:round; stroke-linejoin:round;fill-rule:evenodd;"
d="M 63134.3,10992.1
62546.1,10992.1
62546.1,10207
63134.3,10207
Z" /> 
<path style="fill:#000000; fill-opacity:1.0; 
stroke:#000000; stroke-width:0; stroke-opacity:1; 
stroke-linecap:round; stroke-linejoin:round;fill-rule:evenodd;"
d="M 64039.8,10992.1
63451.6,10992.1
63451.6,10207
64039.8,10207
Z" /> 
<path style="fill:#000000; fill-opacity:1.0; 
stroke:#000000; stroke-width:0; stroke-opacity:1; 
stroke-linecap:round; stroke-linejoin:round;fill-rule:evenodd;"
d="M 64492.6,8511.75
62998.9,8511.75
62998.9,7726.71
64492.6,7726.71
Z" /> 
</g>
<g >
</g>
<g style="fill:#000000; fill-opacity:1.0; 
stroke:#000000; stroke-width:0; stroke-opacity:1; 
stroke-linecap:round; stroke-linejoin:round;">
<path style="fill:#000000; fill-opacity:1.0; 
stroke:#000000; stroke-width:0; stroke-opacity:1; 
stroke-linecap:round; stroke-linejoin:round;fill-rule:evenodd;"
d="M 53565.9,2262.49
53574.2,2263.72
53582.4,2265.76
53590.3,2268.59
53597.8,2272.17
53605,2276.49
53611.8,2281.49
53618,2287.13
53623.6,2293.35
53628.6,2300.09
53633,2307.29
53636.5,2314.87
53639.4,2322.78
53641.4,2330.92
53642.6,2339.22
53643.1,2347.61
53643.1,2518.67
53642.6,2527.05
53641.4,2535.36
53639.4,2543.5
53636.5,2551.4
53633,2558.99
53628.6,2566.19
53623.6,2572.93
53618,2579.15
53611.8,2584.79
53605,2589.79
53597.8,2594.1
53590.3,2597.69
53582.4,2600.52
53574.2,2602.56
53565.9,2603.79
53557.5,2604.2
53356.9,2604.2
53348.6,2603.79
53340.2,2602.56
53332.1,2600.52
53324.2,2597.69
53316.6,2594.1
53309.4,2589.79
53302.7,2584.79
53296.5,2579.15
53290.8,2572.93
53285.8,2566.19
53281.5,2558.99
53277.9,2551.4
53275.1,2543.5
53273,2535.36
53271.8,2527.05
53271.4,2518.67
53271.4,2347.61
53271.8,2339.22
53273,2330.92
53275.1,2322.78
53277.9,2314.87
53281.5,2307.29
53285.8,2300.09
53290.8,2293.35
53296.5,2287.13
53302.7,2281.49
53309.4,2276.49
53316.6,2272.17
53324.2,2268.59
53332.1,2265.76
53340.2,2263.72
53348.6,2262.49
53356.9,2262.07
53557.5,2262.07
Z" /> 
<path style="fill:#000000; fill-opacity:1.0; 
stroke:#000000; stroke-width:0; stroke-opacity:1; 
stroke-linecap:round; stroke-linejoin:round;fill-rule:evenodd;"
d="M 53565.9,2882.56
53574.2,2883.8
53582.4,2885.84
53590.3,2888.66
53597.8,2892.25
53605,2896.57
53611.8,2901.57
53618,2907.2
53623.6,2913.42
53628.6,2920.17
53633,2927.37
53636.5,2934.95
53639.4,2942.86
53641.4,2951
53642.6,2959.3
53643.1,2967.68
53643.1,3138.75
53642.6,3147.13
53641.4,3155.43
53639.4,3163.58
53636.5,3171.48
53633,3179.07
53628.6,3186.27
53623.6,3193.01
53618,3199.23
53611.8,3204.86
53605,3209.86
53597.8,3214.18
53590.3,3217.77
53582.4,3220.6
53574.2,3222.64
53565.9,3223.87
53557.5,3224.28
53356.9,3224.28
53348.6,3223.87
53340.2,3222.64
53332.1,3220.6
53324.2,3217.77
53316.6,3214.18
53309.4,3209.86
53302.7,3204.86
53296.5,3199.23
53290.8,3193.01
53285.8,3186.27
53281.5,3179.07
53277.9,3171.48
53275.1,3163.58
53273,3155.43
53271.8,3147.13
53271.4,3138.75
53271.4,2967.68
53271.8,2959.3
53273,2951
53275.1,2942.86
53277.9,2934.95
53281.5,2927.37
53285.8,2920.17
53290.8,2913.42
53296.5,2907.2
53302.7,2901.57
53309.4,2896.57
53316.6,2892.25
53324.2,2888.66
53332.1,2885.84
53340.2,2883.8
53348.6,2882.56
53356.9,2882.15
53557.5,2882.15
Z" /> 
</g>
<g >
</g>
<g style="fill:#000000; fill-opacity:1.0; 
stroke:#000000; stroke-width:0; stroke-opacity:1; 
stroke-linecap:round; stroke-linejoin:round;">
<path style="fill:#000000; fill-opacity:1.0; 
stroke:#000000; stroke-width:0; stroke-opacity:1; 
stroke-linecap:round; stroke-linejoin:round;fill-rule:evenodd;"
d="M 59659.7,2262.52
59668,2263.75
59676.1,2265.79
59684,2268.62
59691.6,2272.21
59698.8,2276.52
59705.6,2281.52
59711.8,2287.16
59717.4,2293.38
59722.4,2300.12
59726.7,2307.32
59730.3,2314.91
59733.1,2322.81
59735.2,2330.95
59736.4,2339.25
59736.8,2347.64
59736.8,2518.7
59736.4,2527.08
59735.2,2535.39
59733.1,2543.53
59730.3,2551.43
59726.7,2559.02
59722.4,2566.22
59717.4,2572.96
59711.8,2579.18
59705.6,2584.82
59698.8,2589.82
59691.6,2594.13
59684,2597.72
59676.1,2600.55
59668,2602.59
59659.7,2603.82
59651.3,2604.23
59450.7,2604.23
59442.3,2603.82
59434,2602.59
59425.9,2600.55
59418,2597.72
59410.4,2594.13
59403.2,2589.82
59396.4,2584.82
59390.2,2579.18
59384.6,2572.96
59379.6,2566.22
59375.3,2559.02
59371.7,2551.43
59368.9,2543.53
59366.8,2535.39
59365.6,2527.08
59365.2,2518.7
59365.2,2347.64
59365.6,2339.25
59366.8,2330.95
59368.9,2322.81
59371.7,2314.91
59375.3,2307.32
59379.6,2300.12
59384.6,2293.38
59390.2,2287.16
59396.4,2281.52
59403.2,2276.52
59410.4,2272.21
59418,2268.62
59425.9,2265.79
59434,2263.75
59442.3,2262.52
59450.7,2262.11
59651.3,2262.11
Z" /> 
<path style="fill:#000000; fill-opacity:1.0; 
stroke:#000000; stroke-width:0; stroke-opacity:1; 
stroke-linecap:round; stroke-linejoin:round;fill-rule:evenodd;"
d="M 59659.7,2882.6
59668,2883.83
59676.1,2885.87
59684,2888.7
59691.6,2892.28
59698.8,2896.6
59705.6,2901.6
59711.8,2907.24
59717.4,2913.46
59722.4,2920.2
59726.7,2927.4
59730.3,2934.99
59733.1,2942.89
59735.2,2951.03
59736.4,2959.33
59736.8,2967.72
59736.8,3138.78
59736.4,3147.16
59735.2,3155.47
59733.1,3163.61
59730.3,3171.51
59726.7,3179.1
59722.4,3186.3
59717.4,3193.04
59711.8,3199.26
59705.6,3204.9
59698.8,3209.9
59691.6,3214.21
59684,3217.8
59676.1,3220.63
59668,3222.67
59659.7,3223.9
59651.3,3224.31
59450.7,3224.31
59442.3,3223.9
59434,3222.67
59425.9,3220.63
59418,3217.8
59410.4,3214.21
59403.2,3209.9
59396.4,3204.9
59390.2,3199.26
59384.6,3193.04
59379.6,3186.3
59375.3,3179.1
59371.7,3171.51
59368.9,3163.61
59366.8,3155.47
59365.6,3147.16
59365.2,3138.78
59365.2,2967.72
59365.6,2959.33
59366.8,2951.03
59368.9,2942.89
59371.7,2934.99
59375.3,2927.4
59379.6,2920.2
59384.6,2913.46
59390.2,2907.24
59396.4,2901.6
59403.2,2896.6
59410.4,2892.28
59418,2888.7
59425.9,2885.87
59434,2883.83
59442.3,2882.6
59450.7,2882.19
59651.3,2882.19
Z" /> 
</g>
<g >
</g>
<g >
</g>
<g >
</g>
<g >
</g>
<g >
</g>
<g >
</g>
<g >
</g>
<g >
</g>
</g>
<g style="fill:#000000; fill-opacity:1.0; 
stroke:#000000; stroke-width:0; stroke-opacity:1; 
stroke-linecap:round; stroke-linejoin:round;">
</g>
<g style="fill:#000000; fill-opacity:0.0; 
stroke:#000000; stroke-width:39.3701; stroke-opacity:1; 
stroke-linecap:round; stroke-linejoin:round;">
<path d="M1894.69 1102.56 A1875 1875 0.0 0 0 19.6854 2977.56" />
<path d="M116270 2977.56 A1875 1875 0.0 0 0 114395 1102.56" />
<path d="M116269 2977
L116269 40477
" />
<path d="M1894 1102
L114394 1102
" />
<path d="M19 40477
L19 2977
" />
<path d="M114395 42352.6 A1875 1875 0.0 0 0 116270 40477.6" />
<path d="M19.6854 40477.6 A1875 1875 0.0 0 0 1894.69 42352.6" />
<path d="M1894 42352
L114394 42352
" />
<g >
</g>
<g >
</g>
<g >
</g>
<g >
</g>
<g >
</g>
<g >
</g>
<g >
</g>
<g >
</g>
<g >
</g>
<g >
</g>
<g >
</g>
<g >
</g>
<g >
</g>
<g >
</g>
<g >
</g>
<g >
</g>
<g >
</g>
<g >
</g>
<g >
</g>
<g >
</g>
<g >
</g>
<g >
</g>
<g >
</g>
<g >
</g>
<g >
</g>
<g >
</g>
<g >
</g>
<g >
</g>
<g >
</g>
<g >
</g>
<g >
</g>
<g >
</g>
<g >
</g>
<g >
</g>
<g >
</g>
<g >
</g>
<g >
</g>
<g >
</g>
<g >
</g>
<g >
</g>
<g >
</g>
<g >
</g>
<g >
</g>
<g >
</g>
<g >
</g>
<g >
</g>
<g >
</g>
<g >
</g>
<g >
</g>
<g >
</g>
<g >
</g>
<g >
</g>
<g >
</g>
<g >
</g>
<g >
</g>
<g >
</g>
<g >
</g>
<g >
</g>
<g >
</g>
<g >
</g>
<g >
</g>
<g >
</g>
<g >
</g>
<g >
</g>
<g >
</g>
<g >
</g>
<g >
</g>
<g >
</g>
<g >
</g>
<g >
</g>
<g >
</g>
<g >
</g>
<g >
</g>
<g >
</g>
<g >
</g>
<g >
</g>
<g >
</g>
<g >
</g>
<g >
</g>
<g >
</g>
<g >
</g>
<g >
</g>
<g >
</g>
<g >
</g>
<g >
</g>
<g >
</g>
<g >
</g>
<g >
</g>
<g >
</g>
<g >
</g>
<g >
</g>
<g >
</g>
<g >
</g>
<g >
</g>
<g >
</g>
<g >
</g>
<g >
</g>
<g >
</g>
<g >
</g>
<g >
</g>
<g >
</g>
<g >
</g>
<g >
</g>
<g >
</g>
<g >
</g>
<g >
</g>
<g >
</g>
<g >
</g>
<g >
</g>
<g >
</g>
<g >
</g>
<g >
</g>
<g >
</g>
<g >
</g>
<g >
</g>
<g >
</g>
<g >
</g>
<g >
</g>
<g >
</g>
<g >
</g>
<g >
</g>
<g >
</g>
<g >
</g>
<g >
</g>
<g >
</g>
<g >
</g>
<g >
</g>
<g >
</g>
<g >
</g>
<g >
</g>
<g >
</g>
<g >
</g>
<g >
</g>
<g >
</g>
<g >
</g>
<g >
</g>
<g >
</g>
<g >
</g>
<g >
</g>
<g >
</g>
<g >
</g>
<g >
</g>
<g >
</g>
<g >
</g>
<g >
</g>
<g >
</g>
<g >
</g>
<g >
</g>
<g >
</g>
<g >
</g>
<g >
</g>
<g >
</g>
<g >
</g>
<g >
</g>
<g >
</g>
<g >
</g>
<g >
</g>
<g >
</g>
<g >
</g>
<g >
</g>
<g >
</g>
<g >
</g>
<g >
</g>
<g >
</g>
<g >
</g>
<g >
</g>
<g >
</g>
<g >
</g>
<g >
</g>
<g >
</g>
<g >
</g>
<g >
</g>
<g >
</g>
<g >
</g>
<g >
</g>
<g >
</g>
<g >
</g>
<g >
</g>
<g >
</g>
<g >
</g>
</g> 
</svg>
