  0
SECTION
  2
HEADER
  9
$ANGBASE
  50
0.0
  9
$ANGDIR
  70
1
  9
$MEASUREMENT
  70
0
  0
ENDSEC
  0
SECTION
  2
TABLES
  0
TABLE
  2
LTYPE
  70
4
  0
LTYPE
  5
40F
  2
CONTINUOUS
  70
0
  3
Solid line
  72
65
  73
0
  40
0.0
  0
LTYPE
  5
410
  2
DASHDOT
 70
0
  3
Dash Dot ____ _ ____ _
 72
65
 73
4
 40
2.0
 49
1.25
 49
-0.25
 49
0.25
 49
-0.25
  0
LTYPE
  5
411
  2
DASHED
 70
0
  3
Dashed __ __ __ __ __
 72
65
 73
2
 40
0.75
 49
0.5
 49
-0.25
  0
LTYPE
  5
43B
  2
DOTTED
 70
0
  3
Dotted .  .  .  .
 72
65
 73
2
 40
0.2
 49
0.0
 49
-0.2
  0
ENDTAB
  0
TABLE
  2
STYLE
  70
4
  0
STYLE
  2
KICAD
  70
0
  40
0
  41
1
  42
1
  50
0
  71
0
  3
isocp.shx
  0
STYLE
  2
KICADB
  70
0
  40
0
  41
1
  42
1
  50
0
  71
0
  3
isocp.shx
  0
STYLE
  2
KICADI
  70
0
  40
0
  41
1
  42
1
  50
15
  71
0
  3
isocp.shx
  0
STYLE
  2
KICADBI
  70
0
  40
0
  41
1
  42
1
  50
15
  71
0
  3
isocp.shx
  0
ENDTAB
  0
TABLE
  2
LAYER
  70
1
  0
LAYER
  2
BLACK
  70
0
  62
7
  6
CONTINUOUS
  0
ENDTAB
  0
ENDSEC
  0
SECTION
  2
ENTITIES
0
LINE
8
BLACK
6
CONTINUOUS
10
12.3752
20
-2.24804
11
12.4093
21
-2.25118
0
LINE
8
BLACK
6
CONTINUOUS
10
12.4093
20
-2.25118
11
12.4093
21
-2.25118
0
LINE
8
BLACK
6
CONTINUOUS
10
12.4093
20
-2.25118
11
12.4093
21
-2.25118
0
LINE
8
BLACK
6
CONTINUOUS
10
12.4093
20
-2.25118
11
12.4094
21
-2.25118
0
LINE
8
BLACK
6
CONTINUOUS
10
12.4094
20
-2.25118
11
12.4096
21
-2.25122
0
LINE
8
BLACK
6
CONTINUOUS
10
12.4096
20
-2.25122
11
12.4097
21
-2.25125
0
LINE
8
BLACK
6
CONTINUOUS
10
12.4097
20
-2.25125
11
12.4427
21
-2.26056
0
LINE
8
BLACK
6
CONTINUOUS
10
12.4427
20
-2.26056
11
12.4428
21
-2.26057
0
LINE
8
BLACK
6
CONTINUOUS
10
12.4428
20
-2.26057
11
12.4429
21
-2.26063
0
LINE
8
BLACK
6
CONTINUOUS
10
12.4429
20
-2.26063
11
12.4431
21
-2.26069
0
LINE
8
BLACK
6
CONTINUOUS
10
12.4431
20
-2.26069
11
12.4738
21
-2.27586
0
LINE
8
BLACK
6
CONTINUOUS
10
12.4738
20
-2.27586
11
12.4739
21
-2.27589
0
LINE
8
BLACK
6
CONTINUOUS
10
12.4739
20
-2.27589
11
12.474
21
-2.27597
0
LINE
8
BLACK
6
CONTINUOUS
10
12.474
20
-2.27597
11
12.4741
21
-2.27605
0
LINE
8
BLACK
6
CONTINUOUS
10
12.4741
20
-2.27605
11
12.5016
21
-2.29658
0
LINE
8
BLACK
6
CONTINUOUS
10
12.5016
20
-2.29658
11
12.5017
21
-2.29661
0
LINE
8
BLACK
6
CONTINUOUS
10
12.5017
20
-2.29661
11
12.5018
21
-2.29672
0
LINE
8
BLACK
6
CONTINUOUS
10
12.5018
20
-2.29672
11
12.5019
21
-2.29682
0
LINE
8
BLACK
6
CONTINUOUS
10
12.5019
20
-2.29682
11
12.5252
21
-2.32202
0
LINE
8
BLACK
6
CONTINUOUS
10
12.5252
20
-2.32202
11
12.5252
21
-2.32206
0
LINE
8
BLACK
6
CONTINUOUS
10
12.5252
20
-2.32206
11
12.5253
21
-2.32218
0
LINE
8
BLACK
6
CONTINUOUS
10
12.5253
20
-2.32218
11
12.5254
21
-2.32231
0
LINE
8
BLACK
6
CONTINUOUS
10
12.5254
20
-2.32231
11
12.5437
21
-2.35133
0
LINE
8
BLACK
6
CONTINUOUS
10
12.5437
20
-2.35133
11
12.5437
21
-2.35133
0
LINE
8
BLACK
6
CONTINUOUS
10
12.5437
20
-2.35133
11
12.5437
21
-2.35133
0
LINE
8
BLACK
6
CONTINUOUS
10
12.5437
20
-2.35133
11
12.5438
21
-2.35137
0
LINE
8
BLACK
6
CONTINUOUS
10
12.5438
20
-2.35137
11
12.5438
21
-2.35151
0
LINE
8
BLACK
6
CONTINUOUS
10
12.5438
20
-2.35151
11
12.5439
21
-2.35165
0
LINE
8
BLACK
6
CONTINUOUS
10
12.5439
20
-2.35165
11
12.5566
21
-2.38352
0
LINE
8
BLACK
6
CONTINUOUS
10
12.5566
20
-2.38352
11
12.5566
21
-2.38352
0
LINE
8
BLACK
6
CONTINUOUS
10
12.5566
20
-2.38352
11
12.5566
21
-2.38352
0
LINE
8
BLACK
6
CONTINUOUS
10
12.5566
20
-2.38352
11
12.5566
21
-2.38357
0
LINE
8
BLACK
6
CONTINUOUS
10
12.5566
20
-2.38357
11
12.5567
21
-2.38372
0
LINE
8
BLACK
6
CONTINUOUS
10
12.5567
20
-2.38372
11
12.5567
21
-2.38386
0
LINE
8
BLACK
6
CONTINUOUS
10
12.5567
20
-2.38386
11
12.5634
21
-2.41752
0
LINE
8
BLACK
6
CONTINUOUS
10
12.5634
20
-2.41752
11
12.5634
21
-2.41757
0
LINE
8
BLACK
6
CONTINUOUS
10
12.5634
20
-2.41757
11
12.5634
21
-2.41768
0
LINE
8
BLACK
6
CONTINUOUS
10
12.5634
20
-2.41768
11
12.5634
21
-2.4178
0
LINE
8
BLACK
6
CONTINUOUS
10
12.5634
20
-2.4178
11
12.5645
21
-2.43735
0
LINE
8
BLACK
6
CONTINUOUS
10
12.5645
20
-2.43735
11
12.5645
21
-2.4374
0
LINE
8
BLACK
6
CONTINUOUS
10
12.5645
20
-2.4374
11
12.5645
21
-6.1876
0
LINE
8
BLACK
6
CONTINUOUS
10
12.5645
20
-6.1876
11
12.5645
21
-6.18768
0
LINE
8
BLACK
6
CONTINUOUS
10
12.5645
20
-6.18768
11
12.5613
21
-6.22185
0
LINE
8
BLACK
6
CONTINUOUS
10
12.5613
20
-6.22185
11
12.5613
21
-6.22185
0
LINE
8
BLACK
6
CONTINUOUS
10
12.5613
20
-6.22185
11
12.5613
21
-6.22185
0
LINE
8
BLACK
6
CONTINUOUS
10
12.5613
20
-6.22185
11
12.5613
21
-6.2219
0
LINE
8
BLACK
6
CONTINUOUS
10
12.5613
20
-6.2219
11
12.5613
21
-6.22205
0
LINE
8
BLACK
6
CONTINUOUS
10
12.5613
20
-6.22205
11
12.5613
21
-6.2222
0
LINE
8
BLACK
6
CONTINUOUS
10
12.5613
20
-6.2222
11
12.5519
21
-6.25523
0
LINE
8
BLACK
6
CONTINUOUS
10
12.5519
20
-6.25523
11
12.5519
21
-6.25528
0
LINE
8
BLACK
6
CONTINUOUS
10
12.5519
20
-6.25528
11
12.5519
21
-6.25542
0
LINE
8
BLACK
6
CONTINUOUS
10
12.5519
20
-6.25542
11
12.5518
21
-6.25556
0
LINE
8
BLACK
6
CONTINUOUS
10
12.5518
20
-6.25556
11
12.5366
21
-6.28634
0
LINE
8
BLACK
6
CONTINUOUS
10
12.5366
20
-6.28634
11
12.5366
21
-6.28639
0
LINE
8
BLACK
6
CONTINUOUS
10
12.5366
20
-6.28639
11
12.5365
21
-6.28651
0
LINE
8
BLACK
6
CONTINUOUS
10
12.5365
20
-6.28651
11
12.5364
21
-6.28665
0
LINE
8
BLACK
6
CONTINUOUS
10
12.5364
20
-6.28665
11
12.5159
21
-6.31414
0
LINE
8
BLACK
6
CONTINUOUS
10
12.5159
20
-6.31414
11
12.5159
21
-6.31414
0
LINE
8
BLACK
6
CONTINUOUS
10
12.5159
20
-6.31414
11
12.5159
21
-6.31414
0
LINE
8
BLACK
6
CONTINUOUS
10
12.5159
20
-6.31414
11
12.5159
21
-6.31418
0
LINE
8
BLACK
6
CONTINUOUS
10
12.5159
20
-6.31418
11
12.5158
21
-6.31429
0
LINE
8
BLACK
6
CONTINUOUS
10
12.5158
20
-6.31429
11
12.5157
21
-6.31441
0
LINE
8
BLACK
6
CONTINUOUS
10
12.5157
20
-6.31441
11
12.4905
21
-6.3377
0
LINE
8
BLACK
6
CONTINUOUS
10
12.4905
20
-6.3377
11
12.4905
21
-6.3377
0
LINE
8
BLACK
6
CONTINUOUS
10
12.4905
20
-6.3377
11
12.4905
21
-6.3377
0
LINE
8
BLACK
6
CONTINUOUS
10
12.4905
20
-6.3377
11
12.4904
21
-6.33773
0
LINE
8
BLACK
6
CONTINUOUS
10
12.4904
20
-6.33773
11
12.4903
21
-6.33782
0
LINE
8
BLACK
6
CONTINUOUS
10
12.4903
20
-6.33782
11
12.4902
21
-6.33792
0
LINE
8
BLACK
6
CONTINUOUS
10
12.4902
20
-6.33792
11
12.4612
21
-6.35623
0
LINE
8
BLACK
6
CONTINUOUS
10
12.4612
20
-6.35623
11
12.4612
21
-6.35623
0
LINE
8
BLACK
6
CONTINUOUS
10
12.4612
20
-6.35623
11
12.4612
21
-6.35623
0
LINE
8
BLACK
6
CONTINUOUS
10
12.4612
20
-6.35623
11
12.4611
21
-6.35626
0
LINE
8
BLACK
6
CONTINUOUS
10
12.4611
20
-6.35626
11
12.461
21
-6.35632
0
LINE
8
BLACK
6
CONTINUOUS
10
12.461
20
-6.35632
11
12.4609
21
-6.35639
0
LINE
8
BLACK
6
CONTINUOUS
10
12.4609
20
-6.35639
11
12.429
21
-6.36911
0
LINE
8
BLACK
6
CONTINUOUS
10
12.429
20
-6.36911
11
12.429
21
-6.36911
0
LINE
8
BLACK
6
CONTINUOUS
10
12.429
20
-6.36911
11
12.429
21
-6.36911
0
LINE
8
BLACK
6
CONTINUOUS
10
12.429
20
-6.36911
11
12.4289
21
-6.36913
0
LINE
8
BLACK
6
CONTINUOUS
10
12.4289
20
-6.36913
11
12.4288
21
-6.36917
0
LINE
8
BLACK
6
CONTINUOUS
10
12.4288
20
-6.36917
11
12.4286
21
-6.36921
0
LINE
8
BLACK
6
CONTINUOUS
10
12.4286
20
-6.36921
11
12.395
21
-6.3759
0
LINE
8
BLACK
6
CONTINUOUS
10
12.395
20
-6.3759
11
12.3949
21
-6.37591
0
LINE
8
BLACK
6
CONTINUOUS
10
12.3949
20
-6.37591
11
12.3948
21
-6.37592
0
LINE
8
BLACK
6
CONTINUOUS
10
12.3948
20
-6.37592
11
12.3947
21
-6.37594
0
LINE
8
BLACK
6
CONTINUOUS
10
12.3947
20
-6.37594
11
12.3751
21
-6.37696
0
LINE
8
BLACK
6
CONTINUOUS
10
12.3751
20
-6.37696
11
12.3751
21
-6.37697
0
LINE
8
BLACK
6
CONTINUOUS
10
12.3751
20
-6.37697
11
1.1249
21
-6.37697
0
LINE
8
BLACK
6
CONTINUOUS
10
1.1249
20
-6.37697
11
1.12482
21
-6.37696
0
LINE
8
BLACK
6
CONTINUOUS
10
1.12482
20
-6.37696
11
1.09065
21
-6.37382
0
LINE
8
BLACK
6
CONTINUOUS
10
1.09065
20
-6.37382
11
1.09065
21
-6.37382
0
LINE
8
BLACK
6
CONTINUOUS
10
1.09065
20
-6.37382
11
1.09065
21
-6.37382
0
LINE
8
BLACK
6
CONTINUOUS
10
1.09065
20
-6.37382
11
1.0906
21
-6.37382
0
LINE
8
BLACK
6
CONTINUOUS
10
1.0906
20
-6.37382
11
1.09045
21
-6.37378
0
LINE
8
BLACK
6
CONTINUOUS
10
1.09045
20
-6.37378
11
1.0903
21
-6.37375
0
LINE
8
BLACK
6
CONTINUOUS
10
1.0903
20
-6.37375
11
1.05727
21
-6.36444
0
LINE
8
BLACK
6
CONTINUOUS
10
1.05727
20
-6.36444
11
1.05722
21
-6.36443
0
LINE
8
BLACK
6
CONTINUOUS
10
1.05722
20
-6.36443
11
1.05708
21
-6.36437
0
LINE
8
BLACK
6
CONTINUOUS
10
1.05708
20
-6.36437
11
1.05694
21
-6.36431
0
LINE
8
BLACK
6
CONTINUOUS
10
1.05694
20
-6.36431
11
1.02616
21
-6.34914
0
LINE
8
BLACK
6
CONTINUOUS
10
1.02616
20
-6.34914
11
1.02611
21
-6.34911
0
LINE
8
BLACK
6
CONTINUOUS
10
1.02611
20
-6.34911
11
1.02599
21
-6.34903
0
LINE
8
BLACK
6
CONTINUOUS
10
1.02599
20
-6.34903
11
1.02585
21
-6.34895
0
LINE
8
BLACK
6
CONTINUOUS
10
1.02585
20
-6.34895
11
0.99836
21
-6.32842
0
LINE
8
BLACK
6
CONTINUOUS
10
0.99836
20
-6.32842
11
0.99836
21
-6.32842
0
LINE
8
BLACK
6
CONTINUOUS
10
0.99836
20
-6.32842
11
0.99836
21
-6.32842
0
LINE
8
BLACK
6
CONTINUOUS
10
0.99836
20
-6.32842
11
0.998319
21
-6.32839
0
LINE
8
BLACK
6
CONTINUOUS
10
0.998319
20
-6.32839
11
0.998207
21
-6.32828
0
LINE
8
BLACK
6
CONTINUOUS
10
0.998207
20
-6.32828
11
0.998092
21
-6.32818
0
LINE
8
BLACK
6
CONTINUOUS
10
0.998092
20
-6.32818
11
0.974801
21
-6.30298
0
LINE
8
BLACK
6
CONTINUOUS
10
0.974801
20
-6.30298
11
0.974801
21
-6.30298
0
LINE
8
BLACK
6
CONTINUOUS
10
0.974801
20
-6.30298
11
0.974801
21
-6.30298
0
LINE
8
BLACK
6
CONTINUOUS
10
0.974801
20
-6.30298
11
0.974766
21
-6.30294
0
LINE
8
BLACK
6
CONTINUOUS
10
0.974766
20
-6.30294
11
0.974676
21
-6.30282
0
LINE
8
BLACK
6
CONTINUOUS
10
0.974676
20
-6.30282
11
0.974581
21
-6.30269
0
LINE
8
BLACK
6
CONTINUOUS
10
0.974581
20
-6.30269
11
0.956272
21
-6.27367
0
LINE
8
BLACK
6
CONTINUOUS
10
0.956272
20
-6.27367
11
0.956271
21
-6.27367
0
LINE
8
BLACK
6
CONTINUOUS
10
0.956271
20
-6.27367
11
0.956271
21
-6.27367
0
LINE
8
BLACK
6
CONTINUOUS
10
0.956271
20
-6.27367
11
0.956245
21
-6.27363
0
LINE
8
BLACK
6
CONTINUOUS
10
0.956245
20
-6.27363
11
0.956179
21
-6.27349
0
LINE
8
BLACK
6
CONTINUOUS
10
0.956179
20
-6.27349
11
0.956108
21
-6.27335
0
LINE
8
BLACK
6
CONTINUOUS
10
0.956108
20
-6.27335
11
0.943393
21
-6.24148
0
LINE
8
BLACK
6
CONTINUOUS
10
0.943393
20
-6.24148
11
0.943393
21
-6.24148
0
LINE
8
BLACK
6
CONTINUOUS
10
0.943393
20
-6.24148
11
0.943393
21
-6.24148
0
LINE
8
BLACK
6
CONTINUOUS
10
0.943393
20
-6.24148
11
0.943374
21
-6.24143
0
LINE
8
BLACK
6
CONTINUOUS
10
0.943374
20
-6.24143
11
0.943334
21
-6.24128
0
LINE
8
BLACK
6
CONTINUOUS
10
0.943334
20
-6.24128
11
0.943291
21
-6.24114
0
LINE
8
BLACK
6
CONTINUOUS
10
0.943291
20
-6.24114
11
0.936596
21
-6.20748
0
LINE
8
BLACK
6
CONTINUOUS
10
0.936596
20
-6.20748
11
0.936587
21
-6.20743
0
LINE
8
BLACK
6
CONTINUOUS
10
0.936587
20
-6.20743
11
0.936578
21
-6.20732
0
LINE
8
BLACK
6
CONTINUOUS
10
0.936578
20
-6.20732
11
0.936561
21
-6.2072
0
LINE
8
BLACK
6
CONTINUOUS
10
0.936561
20
-6.2072
11
0.935537
21
-6.18765
0
LINE
8
BLACK
6
CONTINUOUS
10
0.935537
20
-6.18765
11
0.935531
21
-6.1876
0
LINE
8
BLACK
6
CONTINUOUS
10
0.935531
20
-6.1876
11
0.935532
21
-2.4374
0
LINE
8
BLACK
6
CONTINUOUS
10
0.935532
20
-2.4374
11
0.93554
21
-2.43732
0
LINE
8
BLACK
6
CONTINUOUS
10
0.93554
20
-2.43732
11
0.938679
21
-2.40315
0
LINE
8
BLACK
6
CONTINUOUS
10
0.938679
20
-2.40315
11
0.938679
21
-2.40315
0
LINE
8
BLACK
6
CONTINUOUS
10
0.938679
20
-2.40315
11
0.93868
21
-2.40315
0
LINE
8
BLACK
6
CONTINUOUS
10
0.93868
20
-2.40315
11
0.938685
21
-2.4031
0
LINE
8
BLACK
6
CONTINUOUS
10
0.938685
20
-2.4031
11
0.938717
21
-2.40295
0
LINE
8
BLACK
6
CONTINUOUS
10
0.938717
20
-2.40295
11
0.938745
21
-2.4028
0
LINE
8
BLACK
6
CONTINUOUS
10
0.938745
20
-2.4028
11
0.948059
21
-2.36977
0
LINE
8
BLACK
6
CONTINUOUS
10
0.948059
20
-2.36977
11
0.948074
21
-2.36972
0
LINE
8
BLACK
6
CONTINUOUS
10
0.948074
20
-2.36972
11
0.948133
21
-2.36958
0
LINE
8
BLACK
6
CONTINUOUS
10
0.948133
20
-2.36958
11
0.948188
21
-2.36944
0
LINE
8
BLACK
6
CONTINUOUS
10
0.948188
20
-2.36944
11
0.963364
21
-2.33866
0
LINE
8
BLACK
6
CONTINUOUS
10
0.963364
20
-2.33866
11
0.963388
21
-2.33861
0
LINE
8
BLACK
6
CONTINUOUS
10
0.963388
20
-2.33861
11
0.963472
21
-2.33849
0
LINE
8
BLACK
6
CONTINUOUS
10
0.963472
20
-2.33849
11
0.963553
21
-2.33835
0
LINE
8
BLACK
6
CONTINUOUS
10
0.963553
20
-2.33835
11
0.984083
21
-2.31086
0
LINE
8
BLACK
6
CONTINUOUS
10
0.984083
20
-2.31086
11
0.984114
21
-2.31082
0
LINE
8
BLACK
6
CONTINUOUS
10
0.984114
20
-2.31082
11
0.984221
21
-2.31071
0
LINE
8
BLACK
6
CONTINUOUS
10
0.984221
20
-2.31071
11
0.984324
21
-2.31059
0
LINE
8
BLACK
6
CONTINUOUS
10
0.984324
20
-2.31059
11
1.00952
21
-2.2873
0
LINE
8
BLACK
6
CONTINUOUS
10
1.00952
20
-2.2873
11
1.00956
21
-2.28727
0
LINE
8
BLACK
6
CONTINUOUS
10
1.00956
20
-2.28727
11
1.00968
21
-2.28718
0
LINE
8
BLACK
6
CONTINUOUS
10
1.00968
20
-2.28718
11
1.00981
21
-2.28708
0
LINE
8
BLACK
6
CONTINUOUS
10
1.00981
20
-2.28708
11
1.03883
21
-2.26877
0
LINE
8
BLACK
6
CONTINUOUS
10
1.03883
20
-2.26877
11
1.03883
21
-2.26877
0
LINE
8
BLACK
6
CONTINUOUS
10
1.03883
20
-2.26877
11
1.03883
21
-2.26877
0
LINE
8
BLACK
6
CONTINUOUS
10
1.03883
20
-2.26877
11
1.03887
21
-2.26874
0
LINE
8
BLACK
6
CONTINUOUS
10
1.03887
20
-2.26874
11
1.03901
21
-2.26868
0
LINE
8
BLACK
6
CONTINUOUS
10
1.03901
20
-2.26868
11
1.03915
21
-2.26861
0
LINE
8
BLACK
6
CONTINUOUS
10
1.03915
20
-2.26861
11
1.07102
21
-2.25589
0
LINE
8
BLACK
6
CONTINUOUS
10
1.07102
20
-2.25589
11
1.07102
21
-2.25589
0
LINE
8
BLACK
6
CONTINUOUS
10
1.07102
20
-2.25589
11
1.07102
21
-2.25589
0
LINE
8
BLACK
6
CONTINUOUS
10
1.07102
20
-2.25589
11
1.07107
21
-2.25587
0
LINE
8
BLACK
6
CONTINUOUS
10
1.07107
20
-2.25587
11
1.07122
21
-2.25583
0
LINE
8
BLACK
6
CONTINUOUS
10
1.07122
20
-2.25583
11
1.07136
21
-2.25579
0
LINE
8
BLACK
6
CONTINUOUS
10
1.07136
20
-2.25579
11
1.10502
21
-2.2491
0
LINE
8
BLACK
6
CONTINUOUS
10
1.10502
20
-2.2491
11
1.10507
21
-2.24909
0
LINE
8
BLACK
6
CONTINUOUS
10
1.10507
20
-2.24909
11
1.10518
21
-2.24908
0
LINE
8
BLACK
6
CONTINUOUS
10
1.10518
20
-2.24908
11
1.1053
21
-2.24906
0
LINE
8
BLACK
6
CONTINUOUS
10
1.1053
20
-2.24906
11
1.12485
21
-2.24804
0
LINE
8
BLACK
6
CONTINUOUS
10
1.12485
20
-2.24804
11
1.1249
21
-2.24803
0
LINE
8
BLACK
6
CONTINUOUS
10
1.1249
20
-2.24803
11
12.3751
21
-2.24803
0
LINE
8
BLACK
6
CONTINUOUS
10
12.3751
20
-2.24803
11
12.3752
21
-2.24804
0
LINE
8
BLACK
6
CONTINUOUS
10
1.12505
20
-2.25197
11
1.10565
21
-2.25299
0
LINE
8
BLACK
6
CONTINUOUS
10
1.10565
20
-2.25299
11
1.07231
21
-2.25962
0
LINE
8
BLACK
6
CONTINUOUS
10
1.07231
20
-2.25962
11
1.04077
21
-2.2722
0
LINE
8
BLACK
6
CONTINUOUS
10
1.04077
20
-2.2722
11
1.01206
21
-2.29031
0
LINE
8
BLACK
6
CONTINUOUS
10
1.01206
20
-2.29031
11
0.987129
21
-2.31336
0
LINE
8
BLACK
6
CONTINUOUS
10
0.987129
20
-2.31336
11
0.966815
21
-2.34056
0
LINE
8
BLACK
6
CONTINUOUS
10
0.966815
20
-2.34056
11
0.951799
21
-2.37101
0
LINE
8
BLACK
6
CONTINUOUS
10
0.951799
20
-2.37101
11
0.942583
21
-2.40369
0
LINE
8
BLACK
6
CONTINUOUS
10
0.942583
20
-2.40369
11
0.939469
21
-2.43759
0
LINE
8
BLACK
6
CONTINUOUS
10
0.939469
20
-2.43759
11
0.939469
21
-6.18745
0
LINE
8
BLACK
6
CONTINUOUS
10
0.939469
20
-6.18745
11
0.940485
21
-6.20685
0
LINE
8
BLACK
6
CONTINUOUS
10
0.940485
20
-6.20685
11
0.947117
21
-6.24019
0
LINE
8
BLACK
6
CONTINUOUS
10
0.947117
20
-6.24019
11
0.959698
21
-6.27173
0
LINE
8
BLACK
6
CONTINUOUS
10
0.959698
20
-6.27173
11
0.977815
21
-6.30044
0
LINE
8
BLACK
6
CONTINUOUS
10
0.977815
20
-6.30044
11
1.00086
21
-6.32537
0
LINE
8
BLACK
6
CONTINUOUS
10
1.00086
20
-6.32537
11
1.02806
21
-6.34568
0
LINE
8
BLACK
6
CONTINUOUS
10
1.02806
20
-6.34568
11
1.05851
21
-6.3607
0
LINE
8
BLACK
6
CONTINUOUS
10
1.05851
20
-6.3607
11
1.09119
21
-6.36992
0
LINE
8
BLACK
6
CONTINUOUS
10
1.09119
20
-6.36992
11
1.12509
21
-6.37303
0
LINE
8
BLACK
6
CONTINUOUS
10
1.12509
20
-6.37303
11
12.3749
21
-6.37303
0
LINE
8
BLACK
6
CONTINUOUS
10
12.3749
20
-6.37303
11
12.3944
21
-6.37201
0
LINE
8
BLACK
6
CONTINUOUS
10
12.3944
20
-6.37201
11
12.4277
21
-6.36538
0
LINE
8
BLACK
6
CONTINUOUS
10
12.4277
20
-6.36538
11
12.4592
21
-6.3528
0
LINE
8
BLACK
6
CONTINUOUS
10
12.4592
20
-6.3528
11
12.4879
21
-6.33469
0
LINE
8
BLACK
6
CONTINUOUS
10
12.4879
20
-6.33469
11
12.5129
21
-6.31164
0
LINE
8
BLACK
6
CONTINUOUS
10
12.5129
20
-6.31164
11
12.5332
21
-6.28444
0
LINE
8
BLACK
6
CONTINUOUS
10
12.5332
20
-6.28444
11
12.5482
21
-6.25399
0
LINE
8
BLACK
6
CONTINUOUS
10
12.5482
20
-6.25399
11
12.5574
21
-6.22131
0
LINE
8
BLACK
6
CONTINUOUS
10
12.5574
20
-6.22131
11
12.5605
21
-6.18741
0
LINE
8
BLACK
6
CONTINUOUS
10
12.5605
20
-6.18741
11
12.5605
21
-2.43755
0
LINE
8
BLACK
6
CONTINUOUS
10
12.5605
20
-2.43755
11
12.5595
21
-2.41815
0
LINE
8
BLACK
6
CONTINUOUS
10
12.5595
20
-2.41815
11
12.5529
21
-2.38481
0
LINE
8
BLACK
6
CONTINUOUS
10
12.5529
20
-2.38481
11
12.5403
21
-2.35327
0
LINE
8
BLACK
6
CONTINUOUS
10
12.5403
20
-2.35327
11
12.5222
21
-2.32456
0
LINE
8
BLACK
6
CONTINUOUS
10
12.5222
20
-2.32456
11
12.4991
21
-2.29963
0
LINE
8
BLACK
6
CONTINUOUS
10
12.4991
20
-2.29963
11
12.4719
21
-2.27932
0
LINE
8
BLACK
6
CONTINUOUS
10
12.4719
20
-2.27932
11
12.4415
21
-2.2643
0
LINE
8
BLACK
6
CONTINUOUS
10
12.4415
20
-2.2643
11
12.4088
21
-2.25508
0
LINE
8
BLACK
6
CONTINUOUS
10
12.4088
20
-2.25508
11
12.3749
21
-2.25197
0
LINE
8
BLACK
6
CONTINUOUS
10
12.3749
20
-2.25197
11
1.12505
21
-2.25197
  0
ENDSEC
  0
EOF
